<svg width="48" height="48" viewBox="0 0 48 48" fill="none" xmlns="http://www.w3.org/2000/svg">
<g clip-path="url(#clip0)">
<path d="M47 23.999C47 11.2965 36.7025 0.999023 24 0.999023C11.2975 0.999023 1 11.2965 1 23.999C1 36.7016 11.2975 46.999 24 46.999C36.7025 46.999 47 36.7016 47 23.999Z" stroke="white" stroke-width="2"/>
<path d="M20.404 15.9L28.363 23.858L20.404 31.817C20.3333 31.8872 20.2934 31.9825 20.293 32.0821C20.2926 32.1817 20.3318 32.2773 20.402 32.348C20.4721 32.4187 20.5675 32.4586 20.667 32.459C20.7666 32.4594 20.8623 32.4202 20.933 32.35L29.156 24.122C29.1907 24.0873 29.2183 24.046 29.2371 24.0007C29.2559 23.9553 29.2655 23.9066 29.2655 23.8575C29.2655 23.8084 29.2559 23.7597 29.2371 23.7144C29.2183 23.669 29.1907 23.6277 29.156 23.593L20.933 15.371C20.8989 15.3354 20.8581 15.3068 20.813 15.2869C20.7679 15.267 20.7193 15.2561 20.6699 15.255C20.6206 15.2539 20.5716 15.2625 20.5256 15.2804C20.4796 15.2982 20.4376 15.3249 20.402 15.359C20.3663 15.3931 20.3377 15.4339 20.3178 15.479C20.2979 15.5241 20.2871 15.5727 20.286 15.622C20.2849 15.6713 20.2935 15.7204 20.3113 15.7664C20.3292 15.8123 20.3559 15.8544 20.39 15.89L20.399 15.899L20.404 15.9Z" stroke="white" stroke-width="1.5"/>
</g>
<defs>
<clipPath id="clip0">
<rect width="48" height="48" fill="white"/>
</clipPath>
</defs>
</svg>
