<svg width="48" height="48" viewBox="0 0 48 48" fill="none" xmlns="http://www.w3.org/2000/svg">
<g clip-path="url(#clip0)">
<path d="M1 23.999C1 11.2965 11.2975 0.999023 24 0.999023C36.7025 0.999023 47 11.2965 47 23.999C47 36.7016 36.7025 46.999 24 46.999C11.2975 46.999 1 36.7016 1 23.999Z" stroke="white" stroke-width="2"/>
<path d="M27.596 15.9L19.637 23.858L27.596 31.817C27.6667 31.8872 27.7066 31.9825 27.707 32.0821C27.7074 32.1817 27.6682 32.2773 27.598 32.348C27.5279 32.4187 27.4325 32.4586 27.333 32.459C27.2334 32.4594 27.1377 32.4202 27.067 32.35L18.844 24.122C18.8093 24.0873 18.7817 24.046 18.7629 24.0007C18.7441 23.9553 18.7345 23.9066 18.7345 23.8575C18.7345 23.8084 18.7441 23.7597 18.7629 23.7144C18.7817 23.669 18.8093 23.6277 18.844 23.593L27.067 15.371C27.1011 15.3354 27.1419 15.3068 27.187 15.2869C27.2321 15.267 27.2807 15.2561 27.3301 15.255C27.3794 15.2539 27.4284 15.2625 27.4744 15.2804C27.5204 15.2982 27.5624 15.3249 27.598 15.359C27.6337 15.3931 27.6623 15.4339 27.6822 15.479C27.7021 15.5241 27.7129 15.5727 27.714 15.622C27.7151 15.6713 27.7065 15.7204 27.6887 15.7664C27.6708 15.8123 27.6441 15.8544 27.61 15.89L27.601 15.899L27.596 15.9Z" stroke="white" stroke-width="1.5"/>
</g>
<defs>
<clipPath id="clip0">
<rect width="48" height="48" fill="white" transform="matrix(-1 0 0 1 48 0)"/>
</clipPath>
</defs>
</svg>
