<svg width="9" height="16" viewBox="0 0 9 16" fill="none" xmlns="http://www.w3.org/2000/svg">
<g clip-path="url(#clip0)">
<path d="M0.648985 1.10192L7.46098 7.91292L0.648985 14.7239C0.59383 14.7848 0.564191 14.8645 0.566213 14.9467C0.568235 15.0288 0.601757 15.107 0.659841 15.1651C0.717925 15.2231 0.796122 15.2567 0.87824 15.2587C0.960358 15.2607 1.04011 15.2311 1.10098 15.1759L8.13898 8.13792C8.19883 8.07794 8.23243 7.99666 8.23243 7.91192C8.23243 7.82719 8.19883 7.74591 8.13898 7.68592L1.10098 0.647924C1.04115 0.591379 0.961823 0.560069 0.879499 0.560503C0.797175 0.560937 0.71819 0.593083 0.658956 0.650256C0.599723 0.707429 0.5648 0.785232 0.561453 0.867488C0.558105 0.949744 0.586589 1.03013 0.640981 1.09192L0.648985 1.09992V1.10192Z" fill="black" stroke="black"/>
<path d="M8.23298 7.9129C8.2331 7.99757 8.19966 8.07884 8.13998 8.1389L1.10198 15.1769C1.04111 15.2321 0.961358 15.2617 0.87924 15.2597C0.797121 15.2576 0.718924 15.2241 0.660841 15.166C0.602757 15.108 0.569234 15.0298 0.567213 14.9476C0.565191 14.8655 0.594829 14.7858 0.649984 14.7249L7.46098 7.9129L0.648984 1.1019C0.616511 1.07332 0.59017 1.03845 0.571554 0.999398C0.552938 0.960348 0.542429 0.917929 0.54067 0.874704C0.538911 0.83148 0.545933 0.788348 0.561315 0.747914C0.576697 0.70748 0.600119 0.670586 0.630163 0.63946C0.660206 0.608334 0.696248 0.583621 0.736112 0.566818C0.775976 0.550015 0.818837 0.541471 0.862096 0.541698C0.905356 0.541926 0.948122 0.550924 0.987806 0.568147C1.02749 0.585369 1.06327 0.610459 1.09298 0.641901L1.10098 0.6499L8.13898 7.6879C8.19878 7.74756 8.23257 7.82843 8.23298 7.9129Z" fill="black" stroke="black"/>
</g>
<defs>
<clipPath id="clip0">
<rect width="8.782" height="15.815" fill="white"/>
</clipPath>
</defs>
</svg>
