<svg width="11" height="15" viewBox="0 0 11 15" fill="none" xmlns="http://www.w3.org/2000/svg">
<g clip-path="url(#clip0)">
<path d="M5.54602 0.764999C4.17215 0.766587 2.85501 1.31306 1.88354 2.28453C0.912072 3.256 0.365602 4.57314 0.364014 5.947C0.364014 8.647 4.66401 13.298 5.15601 13.82L5.54602 14.235L5.93602 13.82C6.42702 13.298 10.728 8.648 10.728 5.947C10.7264 4.57314 10.18 3.256 9.20849 2.28453C8.23702 1.31306 6.91988 0.766587 5.54602 0.764999V0.764999ZM5.54602 8.092C5.12197 8.092 4.70745 7.96626 4.35487 7.73067C4.00229 7.49508 3.72749 7.16024 3.56522 6.76847C3.40294 6.37671 3.36048 5.94562 3.44321 5.52973C3.52594 5.11383 3.73014 4.73181 4.02998 4.43196C4.32982 4.13212 4.71185 3.92792 5.12774 3.8452C5.54364 3.76247 5.97472 3.80493 6.36649 3.9672C6.75825 4.12948 7.0931 4.40428 7.32869 4.75686C7.56427 5.10944 7.69001 5.52396 7.69001 5.948C7.68922 6.51638 7.46308 7.06125 7.06118 7.46316C6.65927 7.86507 6.1144 8.09121 5.54602 8.092Z" fill="#EF9F9C"/>
</g>
<defs>
<clipPath id="clip0">
<rect width="10.364" height="13.47" fill="white" transform="translate(0.364014 0.764999)"/>
</clipPath>
</defs>
</svg>
