<svg width="102" height="102" viewBox="0 0 102 102" fill="none" xmlns="http://www.w3.org/2000/svg">
<g clip-path="url(#clip0)">
<path d="M102 -0.000976562H0V101.999H102V-0.000976562Z" fill="white"/>
<path d="M36 21.999H60" stroke="#EF9F9C" stroke-width="2" stroke-linecap="round" stroke-linejoin="round"/>
<path d="M48.9387 80.723H10.6387V21.149H14.8937" stroke="#EF9F9C" stroke-width="2" stroke-linecap="round" stroke-linejoin="round"/>
<path d="M78.7227 21.149H82.9777V44.549" stroke="#EF9F9C" stroke-width="2" stroke-linecap="round" stroke-linejoin="round"/>
<path d="M28 14.999H22V26.999H28V14.999Z" stroke="#EF9F9C" stroke-width="2" stroke-linecap="round" stroke-linejoin="round"/>
<path d="M72 14.999H66V26.999H72V14.999Z" stroke="#EF9F9C" stroke-width="2" stroke-linecap="round" stroke-linejoin="round"/>
<path d="M83 33.999H11" stroke="#EF9F9C" stroke-width="2" stroke-linecap="round" stroke-linejoin="round"/>
<path d="M32 44.999H22V52.999H32V44.999Z" stroke="#EF9F9C" stroke-width="2" stroke-linecap="round" stroke-linejoin="round"/>
<path d="M53 44.999H42V52.999H53V44.999Z" stroke="#EF9F9C" stroke-width="2" stroke-linecap="round" stroke-linejoin="round"/>
<path d="M32 61.999H22V69.999H32V61.999Z" stroke="#EF9F9C" stroke-width="2" stroke-linecap="round" stroke-linejoin="round"/>
<path d="M46.8077 61.574H42.5527V70.085H46.8077" stroke="#EF9F9C" stroke-width="2" stroke-linecap="round" stroke-linejoin="round"/>
<path d="M72.5 86.999C83.2696 86.999 92 78.4924 92 67.999C92 57.5056 83.2696 48.999 72.5 48.999C61.7304 48.999 53 57.5056 53 67.999C53 78.4924 61.7304 86.999 72.5 86.999Z" stroke="#EF9F9C" stroke-width="2" stroke-linecap="round" stroke-linejoin="round"/>
<path d="M82.3876 61.112C82.1935 60.9181 81.9304 60.8092 81.6561 60.8092C81.3818 60.8092 81.1187 60.9181 80.9246 61.112L68.5306 73.512L63.7666 68.743C63.5726 68.5486 63.3093 68.4392 63.0347 68.4389C62.76 68.4387 62.4965 68.5475 62.3021 68.7415C62.1077 68.9355 61.9983 69.1988 61.998 69.4734C61.9978 69.7481 62.1066 70.0116 62.3006 70.206L67.8006 75.706C67.9947 75.8999 68.2578 76.0088 68.5321 76.0088C68.8064 76.0088 69.0695 75.8999 69.2636 75.706L82.3876 62.576C82.4838 62.4799 82.56 62.3658 82.6121 62.2402C82.6641 62.1146 82.6909 61.9799 82.6909 61.844C82.6909 61.708 82.6641 61.5734 82.6121 61.4478C82.56 61.3222 82.4838 61.2081 82.3876 61.112Z" fill="#EF9F9C"/>
</g>
<defs>
<clipPath id="clip0">
<rect width="102" height="102" fill="white"/>
</clipPath>
</defs>
</svg>
