<svg width="120" height="76" viewBox="0 0 120 76" fill="none" xmlns="http://www.w3.org/2000/svg">
<g clip-path="url(#clip0)">
<path d="M110.556 32.238L107.491 19.98C107.906 19.8916 108.278 19.6634 108.545 19.3336C108.812 19.0038 108.958 18.5924 108.958 18.168V16.188C108.956 14.1248 108.135 12.1468 106.676 10.6879C105.217 9.22904 103.239 8.40839 101.176 8.40601H87.217V4.329C87.2157 3.31389 86.8118 2.34075 86.094 1.62296C85.3763 0.905165 84.4031 0.501323 83.388 0.5H12.235C11.2199 0.501323 10.2467 0.905165 9.52895 1.62296C8.81116 2.34075 8.40732 3.31389 8.406 4.329V37.929C8.406 38.4204 8.60123 38.8918 8.94873 39.2393C9.29624 39.5868 9.76755 39.782 10.259 39.782C10.7504 39.782 11.2218 39.5868 11.5693 39.2393C11.9168 38.8918 12.112 38.4204 12.112 37.929V4.329C12.112 4.29638 12.125 4.26509 12.148 4.24203C12.1711 4.21896 12.2024 4.206 12.235 4.206H83.387C83.4196 4.206 83.4509 4.21896 83.474 4.24203C83.497 4.26509 83.51 4.29638 83.51 4.329V37.929C83.51 38.4204 83.7052 38.8918 84.0527 39.2393C84.4002 39.5868 84.8716 39.782 85.363 39.782C85.8544 39.782 86.3258 39.5868 86.6733 39.2393C87.0208 38.8918 87.216 38.4204 87.216 37.929V35.829H109.084C110.364 35.8315 111.611 36.2392 112.645 36.9936C113.68 37.7481 114.449 38.8107 114.842 40.029H109.08C108.589 40.029 108.117 40.2242 107.77 40.5717C107.422 40.9192 107.227 41.3906 107.227 41.882V45.838C107.229 47.3774 107.841 48.8532 108.929 49.9417C110.018 51.0302 111.494 51.6424 113.033 51.644H115.133V59.797H110.288C109.492 57.4895 107.995 55.4879 106.007 54.071C104.019 52.6542 101.639 51.8928 99.198 51.8928C96.7569 51.8928 94.3766 52.6542 92.3887 54.071C90.4009 55.4879 88.9044 57.4895 88.108 59.797H87.216V45.838C87.216 45.3465 87.0208 44.8752 86.6733 44.5277C86.3258 44.1802 85.8544 43.985 85.363 43.985C84.8716 43.985 84.4002 44.1802 84.0527 44.5277C83.7052 44.8752 83.51 45.3465 83.51 45.838V59.796H45.066C44.2696 57.4885 42.7731 55.4869 40.7853 54.07C38.7974 52.6532 36.4171 51.8918 33.976 51.8918C31.5349 51.8918 29.1546 52.6532 27.1667 54.07C25.1789 55.4869 23.6824 57.4885 22.886 59.796H12.235C12.2024 59.796 12.1711 59.783 12.148 59.76C12.125 59.7369 12.112 59.7056 12.112 59.673V55.597H20.141C20.6324 55.597 21.1038 55.4018 21.4513 55.0543C21.7988 54.7068 21.994 54.2355 21.994 53.744C21.994 53.2526 21.7988 52.7812 21.4513 52.4337C21.1038 52.0862 20.6324 51.891 20.141 51.891H2.353C1.86155 51.891 1.39024 52.0862 1.04273 52.4337C0.695226 52.7812 0.5 53.2526 0.5 53.744C0.5 54.2355 0.695226 54.7068 1.04273 55.0543C1.39024 55.4018 1.86155 55.597 2.353 55.597H8.406V59.673C8.40732 60.6881 8.81116 61.6613 9.52895 62.3791C10.2467 63.0968 11.2199 63.5007 12.235 63.502H22.244C22.244 63.543 22.244 63.584 22.244 63.625C22.244 66.7373 23.4804 69.7222 25.6811 71.9229C27.8818 74.1236 30.8667 75.36 33.979 75.36C37.0913 75.36 40.0762 74.1236 42.2769 71.9229C44.4776 69.7222 45.714 66.7373 45.714 63.625C45.714 63.583 45.714 63.543 45.714 63.502H87.467C87.467 63.543 87.467 63.584 87.467 63.625C87.467 66.7373 88.7034 69.7222 90.9041 71.9229C93.1048 74.1236 96.0897 75.36 99.202 75.36C102.314 75.36 105.299 74.1236 107.5 71.9229C109.701 69.7222 110.937 66.7373 110.937 63.625C110.937 63.583 110.937 63.543 110.937 63.502H116.993C117.484 63.502 117.956 63.3068 118.303 62.9593C118.651 62.6118 118.846 62.1404 118.846 61.649V41.882C118.842 39.5498 118.005 37.2958 116.484 35.5271C114.964 33.7585 112.861 32.5919 110.556 32.238ZM87.217 12.112H101.176C102.257 12.1133 103.293 12.5432 104.057 13.3073C104.821 14.0714 105.251 15.1074 105.252 16.188V16.311H87.217V12.112ZM87.217 32.123V20.018H103.682L106.708 32.124L87.217 32.123ZM33.976 71.652C32.388 71.652 30.8357 71.1811 29.5153 70.2989C28.195 69.4166 27.1659 68.1627 26.5582 66.6956C25.9505 65.2285 25.7915 63.6141 26.1013 62.0566C26.4111 60.4992 27.1758 59.0685 28.2986 57.9456C29.4215 56.8228 30.8521 56.0581 32.4096 55.7483C33.9671 55.4385 35.5815 55.5975 37.0486 56.2052C38.5157 56.8129 39.7696 57.842 40.6519 59.1623C41.5341 60.4827 42.005 62.035 42.005 63.623C42.0026 65.7517 41.1559 67.7925 39.6507 69.2977C38.1455 70.8029 36.1047 71.6496 33.976 71.652ZM99.199 71.652C97.611 71.652 96.0587 71.1811 94.7383 70.2989C93.418 69.4166 92.3889 68.1627 91.7812 66.6956C91.1735 65.2285 91.0145 63.6141 91.3243 62.0566C91.6341 60.4992 92.3988 59.0685 93.5216 57.9456C94.6445 56.8228 96.0751 56.0581 97.6326 55.7483C99.1901 55.4385 100.804 55.5975 102.272 56.2052C103.739 56.8129 104.993 57.842 105.875 59.1623C106.757 60.4827 107.228 62.035 107.228 63.623C107.226 65.7515 106.379 67.7922 104.874 69.2974C103.369 70.8026 101.329 71.6494 99.2 71.652H99.199ZM115.134 47.938H113.034C112.477 47.938 111.943 47.7167 111.549 47.3229C111.155 46.9291 110.934 46.395 110.934 45.838V43.738H115.134V47.938Z" fill="#EF9F9C" stroke="white"/>
<path d="M33.9794 59.797C33.2221 59.797 32.4818 60.0216 31.8521 60.4423C31.2224 60.863 30.7317 61.4611 30.4419 62.1607C30.1521 62.8604 30.0762 63.6302 30.224 64.373C30.3717 65.1158 30.7364 65.798 31.2719 66.3335C31.8074 66.869 32.4896 67.2337 33.2324 67.3814C33.9751 67.5292 34.745 67.4533 35.4447 67.1635C36.1443 66.8737 36.7423 66.383 37.1631 65.7533C37.5838 65.1236 37.8084 64.3833 37.8084 63.626C37.8071 62.6109 37.4032 61.6378 36.6854 60.92C35.9676 60.2022 34.9945 59.7983 33.9794 59.797Z" fill="#EF9F9C" stroke="white"/>
<path d="M99.1981 59.797C98.4408 59.797 97.7005 60.0216 97.0709 60.4423C96.4412 60.863 95.9504 61.4611 95.6606 62.1607C95.3708 62.8604 95.295 63.6302 95.4427 64.373C95.5905 65.1158 95.9551 65.798 96.4906 66.3335C97.0261 66.869 97.7084 67.2337 98.4511 67.3814C99.1939 67.5292 99.9638 67.4533 100.663 67.1635C101.363 66.8737 101.961 66.383 102.382 65.7533C102.803 65.1236 103.027 64.3833 103.027 63.626C103.026 62.6109 102.622 61.6378 101.904 60.92C101.186 60.2022 100.213 59.7983 99.1981 59.797Z" fill="#EF9F9C" stroke="white"/>
<path d="M77.4585 51.888H49.7885C49.2971 51.888 48.8258 52.0832 48.4783 52.4307C48.1308 52.7782 47.9355 53.2496 47.9355 53.741C47.9355 54.2324 48.1308 54.7038 48.4783 55.0513C48.8258 55.3988 49.2971 55.594 49.7885 55.594H77.4585C77.95 55.594 78.4213 55.3988 78.7688 55.0513C79.1163 54.7038 79.3115 54.2324 79.3115 53.741C79.3115 53.2496 79.1163 52.7782 78.7688 52.4307C78.4213 52.0832 77.95 51.888 77.4585 51.888Z" fill="#EF9F9C" stroke="white"/>
<path d="M30.0231 43.982H6.30613C5.81468 43.982 5.34336 44.1772 4.99586 44.5247C4.64835 44.8723 4.45312 45.3435 4.45312 45.835C4.45312 46.3264 4.64835 46.7978 4.99586 47.1453C5.34336 47.4928 5.81468 47.688 6.30613 47.688H30.0231C30.5146 47.688 30.9859 47.4928 31.3334 47.1453C31.6809 46.7978 31.8761 46.3264 31.8761 45.835C31.8761 45.3435 31.6809 44.8723 31.3334 44.5247C30.9859 44.1772 30.5146 43.982 30.0231 43.982Z" fill="#EF9F9C" stroke="white"/>
<path d="M64.9296 18.83C64.5821 18.4827 64.1109 18.2875 63.6196 18.2875C63.1282 18.2875 62.657 18.4827 62.3096 18.83L45.8296 35.308L37.2576 26.736C36.9078 26.4001 36.4402 26.2147 35.9553 26.2196C35.4704 26.2245 35.0067 26.4194 34.6638 26.7623C34.3209 27.1052 34.1261 27.5689 34.1212 28.0538C34.1163 28.5387 34.3017 29.0062 34.6376 29.356L44.5196 39.238C44.867 39.5853 45.3382 39.7805 45.8296 39.7805C46.3209 39.7805 46.7921 39.5853 47.1396 39.238L64.9296 21.451C65.1017 21.2789 65.2382 21.0746 65.3314 20.8498C65.4246 20.6249 65.4725 20.3839 65.4725 20.1405C65.4725 19.8971 65.4246 19.6561 65.3314 19.4312C65.2382 19.2064 65.1017 19.0021 64.9296 18.83Z" fill="#EF9F9C" stroke="white"/>
</g>
<defs>
<clipPath id="clip0">
<rect width="119.34" height="75.858" fill="white"/>
</clipPath>
</defs>
</svg>
