<svg width="85" height="85" viewBox="0 0 85 85" fill="none" xmlns="http://www.w3.org/2000/svg">
<g clip-path="url(#clip0)">
<path d="M57.7354 47.566L46.3304 40.554C46.1896 40.468 46.0333 40.4106 45.8704 40.385L42.2994 39.754C41.981 39.7044 41.656 39.7816 41.3939 39.969C41.1318 40.1564 40.9537 40.439 40.8977 40.7563C40.8416 41.0735 40.9122 41.4001 41.0943 41.6659C41.2763 41.9317 41.5553 42.1156 41.8714 42.178L45.2414 42.773L56.4474 49.659C56.7259 49.8299 57.0608 49.8832 57.3786 49.8072C57.6964 49.7311 57.9709 49.532 58.1419 49.2535C58.3128 48.975 58.3661 48.64 58.2901 48.3223C58.214 48.0045 58.0149 47.7299 57.7364 47.559L57.7354 47.566Z" fill="#EF9F9C" stroke="white" stroke-width="0.4"/>
<path d="M83.7271 47.96C83.6168 47.8419 83.4842 47.7466 83.337 47.6797C83.1899 47.6128 83.0309 47.5756 82.8694 47.5701C82.7078 47.5646 82.5467 47.591 82.3953 47.6478C82.244 47.7046 82.1053 47.7906 81.9872 47.901L76.9982 52.564L54.1362 30.007L83.6692 2.328C83.8985 2.10273 84.0306 1.79668 84.0373 1.47527C84.044 1.15386 83.9246 0.842598 83.7048 0.608019C83.485 0.37344 83.1821 0.23416 82.861 0.219954C82.5398 0.205747 82.2258 0.317742 81.9862 0.531995L51.5182 29.086C51.3988 29.2002 51.3034 29.337 51.2375 29.4885C51.1716 29.6399 51.1365 29.803 51.1344 29.9682C51.1323 30.1333 51.1631 30.2973 51.225 30.4504C51.2869 30.6035 51.3788 30.7428 51.4951 30.86L53.5171 32.86L52.8722 33.43L39.3551 32.261C39.1441 32.2428 38.932 32.2793 38.7391 32.367L28.0292 37.245C27.9981 37.237 27.9672 37.229 27.9342 37.223L21.7732 36.136L22.2732 34.863C22.3914 34.5605 22.3853 34.2236 22.2563 33.9256C22.1272 33.6276 21.8856 33.3927 21.5842 33.272L1.89115 25.399C1.59036 25.2884 1.25831 25.2995 0.965565 25.4299C0.672818 25.5603 0.442455 25.7997 0.323436 26.0972C0.204417 26.3948 0.206125 26.727 0.328196 27.0233C0.450267 27.3196 0.683079 27.5566 0.977151 27.684L19.5361 35.099L8.59815 63.051L1.84515 60.659C1.5397 60.5588 1.20718 60.5821 0.918654 60.7238C0.630132 60.8656 0.408506 61.1146 0.301148 61.4176C0.19379 61.7206 0.209219 62.0535 0.344137 62.3453C0.479054 62.6371 0.722757 62.8645 1.02315 62.979L8.90015 65.769C9.20147 65.8727 9.53113 65.8567 9.82093 65.7241C10.1107 65.5916 10.3385 65.3528 10.4572 65.057L12.2852 60.386L17.0742 63.07L16.5462 63.926C15.9907 64.826 15.7248 65.8747 15.7844 66.9306C15.8439 67.9866 16.2261 68.9988 16.8792 69.8306C17.5323 70.6624 18.4249 71.2738 19.4366 71.5822C20.4482 71.8905 21.5301 71.8811 22.5361 71.555C22.6487 72.2956 22.921 73.0029 23.3342 73.6277C23.7474 74.2526 24.2915 74.78 24.929 75.1735C25.5664 75.567 26.2818 75.8171 27.0256 75.9065C27.7694 75.9958 28.5237 75.9223 29.2362 75.691C29.3487 76.4316 29.621 77.1389 30.0342 77.7638C30.4474 78.3887 30.9915 78.9163 31.6289 79.3099C32.2663 79.7036 32.9816 79.9539 33.7254 80.0435C34.4691 80.1332 35.2235 80.06 35.9361 79.829C36.0938 80.8761 36.5695 81.8495 37.2989 82.6172C38.0282 83.385 38.9759 83.91 40.0135 84.1212C41.0512 84.3323 42.1287 84.2195 43.1001 83.7978C44.0714 83.3762 44.8898 82.6662 45.4441 81.764L46.2841 80.403L46.9751 80.828C47.5533 81.1846 48.1962 81.4235 48.8669 81.5311C49.5377 81.6386 50.223 81.6127 50.8837 81.4548C51.5444 81.2968 52.1674 81.01 52.7169 80.6107C53.2665 80.2114 53.7318 79.7075 54.0861 79.128C54.6425 78.2245 54.9055 77.171 54.8391 76.112C55.23 76.2073 55.6308 76.2559 56.0331 76.257C56.9176 76.2546 57.7869 76.027 58.5592 75.5958C59.3314 75.1645 59.9811 74.5438 60.4471 73.792C61.0048 72.8893 61.2689 71.836 61.2031 70.777C61.5931 70.8716 61.9929 70.92 62.3941 70.921C63.2786 70.9186 64.1479 70.691 64.9202 70.2598C65.6924 69.8285 66.3421 69.2078 66.8082 68.456C67.3661 67.5524 67.6299 66.4979 67.5632 65.438C68.7593 65.725 70.0186 65.5759 71.1146 65.0175C72.2106 64.4591 73.0714 63.5279 73.5423 62.3916C74.0132 61.2552 74.0632 59.9881 73.6833 58.8181C73.3035 57.6482 72.5187 56.6521 71.4702 56.009L70.6272 55.491L73.4562 52.536L76.1021 55.146C76.3296 55.365 76.6319 55.4893 76.9476 55.4936C77.2633 55.4979 77.5689 55.3818 77.8022 55.169L83.6552 49.699C83.8952 49.4779 84.0377 49.1705 84.0512 48.8444C84.0647 48.5183 83.9481 48.2002 83.7271 47.96ZM23.2492 68.06C22.8724 68.6717 22.2681 69.1087 21.5691 69.2749C20.8702 69.441 20.1339 69.3227 19.5222 68.946C18.9104 68.5693 18.4734 67.9649 18.3073 67.266C18.1411 66.567 18.2594 65.8307 18.6362 65.219L25.5361 54.046C25.9108 53.4452 26.5048 53.0141 27.192 52.8442C27.8793 52.6743 28.6058 52.779 29.2172 53.136C29.8372 53.5308 30.2772 54.1536 30.442 54.87C30.6068 55.5864 30.4833 56.3389 30.0982 56.965L23.2492 68.06ZM29.9522 72.199C29.77 72.5107 29.5273 72.7829 29.2384 72.9994C28.9494 73.216 28.6201 73.3726 28.2698 73.46C27.9195 73.5474 27.5552 73.5639 27.1984 73.5085C26.8417 73.453 26.4996 73.3268 26.1923 73.1372C25.885 72.9476 25.6187 72.6985 25.4091 72.4045C25.1995 72.1105 25.0509 71.7775 24.9718 71.4252C24.8928 71.0729 24.885 70.7084 24.949 70.353C25.0129 69.9976 25.1473 69.6587 25.3442 69.356L30.8591 60.418C31.2338 59.8172 31.8278 59.3861 32.515 59.2162C33.2023 59.0463 33.9288 59.151 34.5401 59.508C35.1602 59.9028 35.6002 60.5256 35.765 61.242C35.9298 61.9584 35.8063 62.7109 35.4212 63.337L29.9522 72.199ZM36.6521 76.335C36.2751 76.9461 35.6707 77.3824 34.972 77.548C34.2733 77.7136 33.5374 77.5949 32.9261 77.218C32.3203 76.8363 31.8885 76.2321 31.7236 75.5353C31.5587 74.8385 31.6738 74.1048 32.0441 73.492L36.1801 66.792C36.5548 66.1912 37.1488 65.7601 37.836 65.5902C38.5233 65.4203 39.2498 65.525 39.8611 65.882C40.4812 66.2768 40.9212 66.8996 41.086 67.616C41.2508 68.3324 41.1273 69.0849 40.7421 69.711L36.6521 76.335ZM46.0662 76.078L43.3551 80.471C42.9751 81.0761 42.3714 81.5064 41.6755 81.6683C40.9796 81.8302 40.2479 81.7105 39.6399 81.3353C39.0318 80.9601 38.5967 80.3598 38.4293 79.6652C38.2619 78.9706 38.3758 78.238 38.7461 77.627L41.5031 73.158C41.8778 72.5572 42.4718 72.1261 43.159 71.9562C43.8463 71.7863 44.5728 71.891 45.1842 72.248C45.8051 72.642 46.246 73.2645 46.4118 73.9809C46.5776 74.6974 46.4549 75.4503 46.0701 76.077L46.0662 76.078ZM68.4862 54.178L62.3862 50.429C62.2483 50.3444 62.0951 50.2877 61.9353 50.2623C61.7755 50.2369 61.6123 50.2431 61.4549 50.2808C61.2976 50.3185 61.1492 50.3867 61.0182 50.4817C60.8873 50.5767 60.7763 50.6966 60.6917 50.8345C60.607 50.9724 60.5504 51.1256 60.5249 51.2854C60.4995 51.4452 60.5058 51.6084 60.5435 51.7657C60.5811 51.9231 60.6494 52.0715 60.7444 52.2024C60.8394 52.3334 60.9593 52.4444 61.0971 52.529L70.1871 58.114C70.4959 58.2973 70.7652 58.5402 70.9792 58.8285C71.1933 59.1168 71.3478 59.4449 71.4339 59.7935C71.52 60.1421 71.5359 60.5044 71.4806 60.8592C71.4254 61.214 71.3001 61.5543 71.1121 61.8603C70.9242 62.1663 70.6772 62.4318 70.3856 62.6414C70.094 62.851 69.7637 63.0005 69.4138 63.0813C69.0639 63.162 68.7014 63.1724 68.3475 63.1117C67.9935 63.0511 67.6552 62.9206 67.3521 62.728L57.6041 56.738C57.3257 56.5671 56.9907 56.5138 56.6729 56.5898C56.3551 56.6658 56.0806 56.865 55.9096 57.1435C55.7387 57.422 55.6854 57.7569 55.7615 58.0747C55.8375 58.3925 56.0367 58.6671 56.3151 58.838L63.8272 63.454C64.1359 63.6373 64.4052 63.8802 64.6192 64.1685C64.8333 64.4568 64.9878 64.7849 65.0739 65.1335C65.16 65.4821 65.1759 65.8444 65.1206 66.1992C65.0654 66.554 64.9401 66.8943 64.7521 67.2003C64.5642 67.5063 64.3172 67.7718 64.0256 67.9814C63.734 68.191 63.4037 68.3405 63.0538 68.4213C62.7039 68.502 62.3414 68.5124 61.9875 68.4517C61.6335 68.3911 61.2952 68.2606 60.9921 68.068L54.1852 63.885C54.0473 63.8004 53.8941 63.7437 53.7343 63.7183C53.5745 63.6929 53.4113 63.6991 53.2539 63.7368C53.0966 63.7745 52.9482 63.8427 52.8172 63.9377C52.6863 64.0327 52.5753 64.1526 52.4907 64.2905C52.406 64.4284 52.3494 64.5816 52.3239 64.7414C52.2985 64.9012 52.3048 65.0644 52.3425 65.2217C52.3801 65.3791 52.4484 65.5275 52.5434 65.6584C52.6384 65.7894 52.7583 65.9004 52.8961 65.985L57.4661 68.793C57.7973 68.964 58.0896 69.2015 58.3247 69.4907C58.5598 69.7798 58.7328 70.1144 58.8326 70.4734C58.9325 70.8325 58.9572 71.2083 58.9052 71.5773C58.8531 71.9464 58.7254 72.3007 58.5302 72.6181C58.3349 72.9356 58.0762 73.2093 57.7702 73.4221C57.4643 73.6349 57.1177 73.7823 56.7522 73.8551C56.3867 73.9278 56.0101 73.9243 55.646 73.8448C55.2819 73.7653 54.9381 73.6115 54.6362 73.393C54.6362 73.393 50.6171 70.926 50.5791 70.908C50.2952 70.7741 49.9709 70.7536 49.6725 70.8509C49.374 70.9482 49.124 71.1558 48.9735 71.4313C48.8231 71.7068 48.7835 72.0294 48.863 72.333C48.9425 72.6367 49.135 72.8985 49.4011 73.065L51.1111 74.115C51.7112 74.4964 52.1372 75.0986 52.2971 75.7914C52.457 76.4843 52.3379 77.2122 51.9657 77.818C51.5935 78.4239 50.9979 78.859 50.3076 79.0294C49.6172 79.1998 48.8876 79.0919 48.2761 78.729L47.5891 78.307L48.1681 77.369C48.5355 76.7688 48.7803 76.1018 48.8884 75.4065C48.9965 74.7112 48.9658 74.0014 48.7981 73.318C48.5167 72.1458 47.8282 71.1117 46.8554 70.3998C45.8825 69.6879 44.6885 69.3446 43.4861 69.431C43.6777 68.6136 43.6735 67.7625 43.4741 66.947C43.1925 65.7749 42.504 64.7409 41.5312 64.0291C40.5584 63.3172 39.3645 62.9738 38.1621 63.06C38.4154 61.9859 38.3231 60.8592 37.8982 59.8406C37.4733 58.8221 36.7377 57.9637 35.7962 57.388C34.9034 56.8606 33.8716 56.6165 32.8372 56.688C33.1389 55.4916 33.0014 54.2267 32.4497 53.1232C31.8979 52.0196 30.9684 51.1506 29.8303 50.6742C28.6922 50.1978 27.4209 50.1456 26.2475 50.5271C25.0741 50.9086 24.0766 51.6984 23.4362 52.753L18.3642 60.973L13.1862 58.073L20.8552 38.473L25.0302 39.21C24.2986 40.1155 23.8941 41.2415 23.8823 42.4055C23.8706 43.5695 24.2521 44.7035 24.9652 45.6236C25.6783 46.5437 26.6812 47.1961 27.8113 47.4752C28.9415 47.7542 30.1328 47.6435 31.1922 47.161L38.4002 43.878C38.5511 43.8136 38.6876 43.7196 38.8017 43.6016C38.9158 43.4836 39.0052 43.344 39.0645 43.191C39.1239 43.038 39.1521 42.8746 39.1474 42.7106C39.1427 42.5465 39.1052 42.3851 39.0372 42.2357C38.9692 42.0863 38.872 41.9521 38.7513 41.8408C38.6306 41.7296 38.4889 41.6436 38.3345 41.5879C38.1801 41.5322 38.0162 41.5079 37.8523 41.5165C37.6884 41.5251 37.5279 41.5664 37.3801 41.638L30.1762 44.922C29.527 45.1922 28.7982 45.1994 28.1439 44.942C27.4896 44.6845 26.961 44.1827 26.6701 43.5426C26.3791 42.9025 26.3485 42.1743 26.5848 41.512C26.8211 40.8498 27.3057 40.3054 27.9362 39.994L39.4701 34.741L53.1901 35.923C53.2255 35.923 53.2608 35.923 53.2962 35.923C53.5959 35.9228 53.8853 35.8133 54.1101 35.615L55.2781 34.584L71.7122 50.807L68.4862 54.178Z" fill="#EF9F9C" stroke="white" stroke-width="0.4"/>
</g>
<defs>
<clipPath id="clip0">
<rect width="84.346" height="84.536" fill="white"/>
</clipPath>
</defs>
</svg>
