<svg width="96" height="81" viewBox="0 0 96 81" fill="none" xmlns="http://www.w3.org/2000/svg">
<g clip-path="url(#clip0)">
<path d="M56.874 68.975H49.715C49.2257 68.975 48.7564 69.1694 48.4104 69.5154C48.0644 69.8614 47.87 70.3307 47.87 70.82C47.87 71.3094 48.0644 71.7786 48.4104 72.1246C48.7564 72.4706 49.2257 72.665 49.715 72.665H56.873C57.4044 72.665 57.914 72.8761 58.2897 73.2518C58.6654 73.6276 58.8765 74.1372 58.8765 74.6685C58.8765 75.1999 58.6654 75.7095 58.2897 76.0852C57.914 76.4609 57.4044 76.672 56.873 76.672H37.6C36.1736 76.6744 34.7642 76.362 33.4724 75.757C32.1807 75.152 31.0384 74.2693 30.127 73.172L25.519 67.633C24.3036 66.1693 22.7898 64.9819 21.0788 64.1502C19.3677 63.3184 17.4988 62.8615 15.597 62.81V51.91H22.389C25.7221 51.9037 28.9262 53.1977 31.32 55.517L41.266 65.117C41.4393 65.2801 41.5789 65.4758 41.6766 65.6928C41.7743 65.9098 41.8284 66.144 41.8356 66.3819C41.8429 66.6198 41.8032 66.8568 41.7188 67.0793C41.6345 67.3019 41.5071 67.5057 41.344 67.679C41.1809 67.8524 40.9852 67.9919 40.7682 68.0896C40.5512 68.1874 40.3171 68.2414 40.0792 68.2486C39.8413 68.2559 39.6042 68.2162 39.3817 68.1318C39.1591 68.0475 38.9553 67.9201 38.782 67.757L30.974 60.599C30.612 60.2764 30.1376 60.1093 29.6534 60.1338C29.1691 60.1583 28.714 60.3724 28.3863 60.7298C28.0587 61.0872 27.885 61.5593 27.9027 62.0438C27.9204 62.5284 28.1282 62.9865 28.481 63.319L36.289 70.477C37.3517 71.4768 38.7681 72.0134 40.2264 71.9688C41.6848 71.9243 43.0658 71.3023 44.0655 70.2395C45.0652 69.1768 45.6019 67.7605 45.5573 66.3021C45.5128 64.8437 44.8907 63.4628 43.828 62.463L33.882 52.863C30.8014 49.8778 26.6777 48.2124 22.388 48.221H15.243C14.8933 47.392 14.3072 46.6843 13.5577 46.1863C12.8083 45.6884 11.9288 45.4222 11.029 45.421H2.345C1.85568 45.421 1.38639 45.6154 1.04039 45.9614C0.694383 46.3074 0.5 46.7767 0.5 47.266L0.5 60.756C0.5 61.2454 0.694383 61.7146 1.04039 62.0606C1.38639 62.4066 1.85568 62.601 2.345 62.601C2.83432 62.601 3.30361 62.4066 3.64961 62.0606C3.99562 61.7146 4.19 61.2454 4.19 60.756V49.11H11.029C11.2631 49.1103 11.4875 49.2034 11.6531 49.369C11.8186 49.5345 11.9117 49.7589 11.912 49.993V64.775C11.9117 65.0091 11.8186 65.2336 11.6531 65.3991C11.4875 65.5646 11.2631 65.6578 11.029 65.658H9.113C8.62368 65.658 8.15439 65.8524 7.80839 66.1984C7.46238 66.5444 7.268 67.0137 7.268 67.503C7.268 67.9923 7.46238 68.4616 7.80839 68.8076C8.15439 69.1537 8.62368 69.348 9.113 69.348H11.029C11.9408 69.347 12.8316 69.0738 13.5871 68.5634C14.3427 68.0529 14.9287 67.3286 15.27 66.483C16.687 66.4888 18.0854 66.8052 19.3669 67.4099C20.6484 68.0147 21.7817 68.893 22.687 69.983L27.295 75.522C28.5507 77.0373 30.1254 78.2568 31.9067 79.0934C33.688 79.93 35.632 80.3632 37.6 80.362H56.87C58.3799 80.362 59.8279 79.7622 60.8956 78.6946C61.9632 77.6269 62.563 76.1789 62.563 74.669C62.563 73.1592 61.9632 71.7111 60.8956 70.6435C59.8279 69.5758 58.3799 68.976 56.87 68.976L56.874 68.975Z" fill="#EF9F9C" stroke="white"/>
<path d="M93.1185 17.5411C92.6292 17.5411 92.1599 17.7354 91.8139 18.0814C91.4679 18.4274 91.2735 18.8967 91.2735 19.3861V31.7521H84.4345C84.2004 31.7518 83.9759 31.6587 83.8104 31.4931C83.6449 31.3276 83.5517 31.1032 83.5515 30.8691V16.0831C83.5517 15.849 83.6449 15.6245 83.8104 15.459C83.9759 15.2934 84.2004 15.2003 84.4345 15.2001H86.2155C86.7048 15.2001 87.1741 15.0057 87.5201 14.6597C87.8661 14.3137 88.0605 13.8444 88.0605 13.3551C88.0605 12.8657 87.8661 12.3964 87.5201 12.0504C87.1741 11.7044 86.7048 11.5101 86.2155 11.5101H84.4345C83.5227 11.5111 82.6319 11.7843 81.8763 12.2947C81.1208 12.8051 80.5348 13.5295 80.1935 14.3751C78.7765 14.3693 77.378 14.0529 76.0966 13.4481C74.8151 12.8434 73.6818 11.9651 72.7765 10.8751L68.1685 5.33206C66.9118 3.81734 65.3362 2.59869 63.5542 1.76309C61.7722 0.927491 59.8277 0.495538 57.8595 0.498058H38.5895C37.8419 0.498058 37.1016 0.645311 36.4109 0.931411C35.7202 1.21751 35.0926 1.63685 34.5639 2.1655C34.0353 2.69414 33.6159 3.32173 33.3298 4.01244C33.0437 4.70315 32.8965 5.44344 32.8965 6.19105C32.8965 6.93867 33.0437 7.67897 33.3298 8.36967C33.6159 9.06038 34.0353 9.68797 34.5639 10.2166C35.0926 10.7453 35.7202 11.1646 36.4109 11.4507C37.1016 11.7368 37.8419 11.8841 38.5895 11.8841H46.4695C46.9588 11.8841 47.4281 11.6897 47.7741 11.3437C48.1201 10.9977 48.3145 10.5284 48.3145 10.0391C48.3145 9.54973 48.1201 9.08045 47.7741 8.73444C47.4281 8.38844 46.9588 8.19406 46.4695 8.19406H38.5895C38.0581 8.19406 37.5485 7.98298 37.1728 7.60725C36.7971 7.23152 36.586 6.72192 36.586 6.19056C36.586 5.65919 36.7971 5.1496 37.1728 4.77387C37.5485 4.39814 38.0581 4.18706 38.5895 4.18706H57.8585C59.2849 4.18465 60.6943 4.49709 61.9861 5.10209C63.2778 5.70709 64.4201 6.58974 65.3315 7.68706L69.9395 13.2261C71.1548 14.6898 72.6687 15.8772 74.3797 16.7089C76.0908 17.5406 77.9597 17.9975 79.8615 18.0491V28.9491H73.0695C69.7364 28.9554 66.5323 27.6613 64.1385 25.3421L54.1925 15.7421C54.0191 15.579 53.8796 15.3833 53.7819 15.1663C53.6842 14.9493 53.6301 14.7151 53.6229 14.4772C53.6156 14.2393 53.6553 14.0023 53.7397 13.7797C53.824 13.5572 53.9514 13.3534 54.1145 13.1801C54.4439 12.83 54.8989 12.6251 55.3793 12.6104C55.6172 12.6032 55.8542 12.6429 56.0768 12.7272C56.2994 12.8116 56.5031 12.939 56.6765 13.1021L64.4855 20.2601C64.6634 20.4277 64.8728 20.5584 65.1016 20.6444C65.3304 20.7304 65.5741 20.7701 65.8184 20.7612C66.0627 20.7523 66.3027 20.6949 66.5247 20.5924C66.7466 20.4899 66.9459 20.3443 67.1111 20.1641C67.2763 19.9839 67.404 19.7726 67.4868 19.5426C67.5696 19.3126 67.6059 19.0685 67.5936 18.8243C67.5813 18.5802 67.5205 18.3409 67.4149 18.1205C67.3093 17.9 67.161 17.7027 66.9785 17.5401L59.1695 10.3821C58.1068 9.38232 56.6904 8.8457 55.2321 8.89024C53.7737 8.93478 52.3927 9.55683 51.393 10.6196C50.3933 11.6823 49.8566 13.0986 49.9012 14.557C49.9457 16.0154 50.5678 17.3963 51.6305 18.3961L61.5765 27.9961C64.6571 30.9813 68.7808 32.6467 73.0705 32.6381H80.2215C80.5712 33.4671 81.1573 34.1748 81.9068 34.6727C82.6562 35.1707 83.5357 35.4369 84.4355 35.4381H93.1195C93.6088 35.4381 94.0781 35.2437 94.4241 34.8977C94.7701 34.5517 94.9645 34.0824 94.9645 33.5931V19.3861C94.9645 19.1437 94.9167 18.9037 94.8239 18.6798C94.7312 18.4559 94.5952 18.2524 94.4238 18.0811C94.2523 17.9098 94.0488 17.7739 93.8248 17.6812C93.6009 17.5886 93.3609 17.5409 93.1185 17.5411Z" fill="#EF9F9C" stroke="white"/>
<path d="M60.0631 63.243C59.9151 62.9058 59.6704 62.6199 59.3601 62.4215C59.0497 62.2231 58.6876 62.1211 58.3193 62.1284C57.9511 62.1357 57.5932 62.2519 57.2909 62.4624C56.9887 62.6729 56.7556 62.9682 56.621 63.3111C56.4865 63.654 56.4565 64.0291 56.5349 64.3889C56.6134 64.7488 56.7966 65.0774 57.0617 65.3332C57.3267 65.589 57.6615 65.7606 58.024 65.8262C58.3864 65.8918 58.7602 65.8487 59.0981 65.7021L59.1381 65.684C59.5842 65.4828 59.9322 65.1127 60.1057 64.655C60.2791 64.1973 60.2638 63.6894 60.0631 63.243Z" fill="#EF9F9C" stroke="white"/>
<path d="M64.6491 60.1331C64.4328 59.8375 64.1336 59.6127 63.7895 59.4872C63.4453 59.3616 63.0717 59.341 62.7158 59.4278C62.3599 59.5146 62.0378 59.705 61.7901 59.9749C61.5425 60.2448 61.3804 60.5821 61.3245 60.9441C61.2685 61.3061 61.3212 61.6766 61.4758 62.0087C61.6304 62.3408 61.88 62.6195 62.1931 62.8098C62.5061 63 62.8686 63.0931 63.2346 63.0773C63.6005 63.0615 63.9536 62.9375 64.2491 62.7211L64.2721 62.7041C64.4657 62.56 64.6291 62.3793 64.7528 62.1721C64.8765 61.9649 64.9582 61.7354 64.9933 61.4967C65.0283 61.2579 65.0159 61.0146 64.9569 60.7806C64.8978 60.5466 64.7933 60.3266 64.6491 60.1331Z" fill="#EF9F9C" stroke="white"/>
<path d="M54.9051 65.311C54.8317 64.9514 54.6536 64.6214 54.3931 64.3628C54.1327 64.1041 53.8015 63.9282 53.4414 63.8572C53.0812 63.7863 52.7081 63.8234 52.369 63.964C52.0299 64.1046 51.74 64.3423 51.5357 64.6473C51.3313 64.9522 51.2217 65.3108 51.2207 65.6779C51.2197 66.045 51.3272 66.4042 51.5299 66.7103C51.7325 67.0164 52.0211 67.2557 52.3594 67.3982C52.6977 67.5407 53.0706 67.58 53.4311 67.511L53.4851 67.5C53.7222 67.4498 53.9471 67.3533 54.1468 67.216C54.3466 67.0787 54.5173 66.9034 54.6492 66.7001C54.7811 66.4967 54.8716 66.2694 54.9155 66.0311C54.9594 65.7927 54.9559 65.548 54.9051 65.311Z" fill="#EF9F9C" stroke="white"/>
<path d="M68.5021 56.1251C68.1389 55.7976 67.6604 55.6277 67.1719 55.6528C66.6834 55.678 66.2249 55.896 65.8972 56.2591L65.8581 56.3031C65.6241 56.5799 65.4768 56.9194 65.4345 57.2793C65.3922 57.6393 65.4569 58.0037 65.6204 58.3271C65.784 58.6506 66.0392 58.9187 66.3541 59.098C66.6691 59.2773 67.0299 59.3598 67.3915 59.3354C67.7531 59.3109 68.0995 59.1804 68.3874 58.9603C68.6753 58.7402 68.8921 58.4401 69.0105 58.0976C69.129 57.7551 69.1439 57.3853 69.0535 57.0343C68.9631 56.6833 68.7713 56.3668 68.5021 56.1241V56.1251ZM67.4721 57.6801L67.2671 57.4941L67.4891 57.6941L67.4721 57.6801Z" fill="#EF9F9C" stroke="white"/>
<path d="M73.1973 46.1281C72.8473 46.0203 72.4731 46.0186 72.1221 46.1234C71.7711 46.2281 71.459 46.4344 71.2253 46.7164C70.9915 46.9984 70.8465 47.3434 70.8087 47.7077C70.7709 48.072 70.8419 48.4394 71.0128 48.7634C71.1837 49.0874 71.4467 49.3535 71.7687 49.528C72.0907 49.7026 72.4572 49.7778 72.822 49.7442C73.1867 49.7105 73.5333 49.5696 73.8179 49.3391C74.1026 49.1086 74.3126 48.7989 74.4213 48.4491L74.4293 48.4241C74.4995 48.1925 74.5233 47.9492 74.4993 47.7084C74.4754 47.4675 74.4042 47.2338 74.2897 47.0205C74.1753 46.8072 74.0199 46.6186 73.8324 46.4655C73.645 46.3123 73.4291 46.1977 73.1973 46.1281Z" fill="#EF9F9C" stroke="white"/>
<path d="M75.5601 36.6051C75.5601 36.5821 75.5521 36.5581 75.5471 36.5351C75.4485 36.0554 75.1645 35.6341 74.7569 35.3627C74.3493 35.0913 73.851 34.9918 73.3704 35.0858C72.8898 35.1799 72.4658 35.4598 72.1905 35.8648C71.9152 36.2698 71.811 36.7671 71.9004 37.2485C71.9898 37.73 72.2657 38.1567 72.668 38.4358C73.0703 38.715 73.5666 38.824 74.0489 38.7392C74.5312 38.6544 74.9605 38.3826 75.2435 37.983C75.5265 37.5834 75.6403 37.0882 75.5601 36.6051Z" fill="#EF9F9C" stroke="white"/>
<path d="M73.8695 40.6081C73.3823 40.5656 72.8982 40.7181 72.5232 41.0321C72.1483 41.3461 71.9132 41.796 71.8695 42.2831C71.8695 42.3011 71.8695 42.3371 71.8645 42.3551C71.8358 42.8434 72.0023 43.3232 72.3272 43.6889C72.6522 44.0546 73.1091 44.2762 73.5975 44.3051C73.6345 44.3051 73.6705 44.3051 73.7075 44.3051C74.1835 44.3026 74.6403 44.1171 74.9833 43.787C75.3262 43.457 75.5291 43.0077 75.55 42.5322C75.5708 42.0567 75.4079 41.5913 75.0951 41.2326C74.7823 40.8739 74.3434 40.6492 73.8695 40.6051V40.6081Z" fill="#EF9F9C" stroke="white"/>
<path d="M71.3912 51.3761C71.1802 51.2569 70.9478 51.1805 70.7072 51.1512C70.4667 51.1219 70.2227 51.1403 69.9892 51.2053C69.7558 51.2703 69.5374 51.3807 69.3466 51.5301C69.1558 51.6795 68.9963 51.865 68.8772 52.0761L68.8512 52.1221C68.6975 52.4035 68.6196 52.72 68.6253 53.0406C68.6309 53.3612 68.7199 53.6747 68.8834 53.9505C69.0469 54.2263 69.2794 54.4549 69.558 54.6136C69.8365 54.7724 70.1516 54.8559 70.4722 54.8561C70.8026 54.8567 71.127 54.7679 71.411 54.5991C71.695 54.4302 71.928 54.1877 72.0852 53.8971L70.4852 52.9851L72.0852 53.8951C72.2054 53.6842 72.2828 53.4517 72.3129 53.2108C72.3431 52.97 72.3254 52.7256 72.261 52.4916C72.1965 52.2576 72.0865 52.0386 71.9372 51.8472C71.788 51.6557 71.6025 51.4957 71.3912 51.3761Z" fill="#EF9F9C" stroke="white"/>
<path d="M37.9307 16.243C37.8224 16.0263 37.6725 15.833 37.4895 15.6742C37.3065 15.5154 37.094 15.3943 36.8642 15.3177C36.6343 15.241 36.3916 15.2105 36.1499 15.2277C35.9083 15.2449 35.6724 15.3096 35.4557 15.418L35.4397 15.426C35.1156 15.592 34.8478 15.8502 34.6701 16.168C34.4924 16.4859 34.4128 16.8493 34.4412 17.2123C34.4696 17.5754 34.6048 17.9219 34.8298 18.2082C35.0548 18.4946 35.3595 18.7079 35.7056 18.8214C36.0516 18.9349 36.4235 18.9434 36.7743 18.846C37.1252 18.7485 37.4394 18.5494 37.6773 18.2737C37.9153 17.998 38.0663 17.6581 38.1114 17.2967C38.1564 16.9354 38.0936 16.5687 37.9307 16.243Z" fill="#EF9F9C" stroke="white"/>
<path d="M43.2708 14.705C43.2138 14.4695 43.1109 14.2475 42.9681 14.0518C42.8252 13.856 42.6452 13.6904 42.4383 13.5642C42.2313 13.4381 42.0016 13.354 41.7621 13.3167C41.5227 13.2795 41.2783 13.2898 41.0428 13.347L40.9998 13.358C40.6492 13.4521 40.3341 13.6475 40.094 13.9198C39.8539 14.192 39.6995 14.5291 39.65 14.8887C39.6006 15.2483 39.6583 15.6146 39.816 15.9415C39.9737 16.2685 40.2244 16.5417 40.5366 16.7269C40.8488 16.9121 41.2087 17.001 41.5713 16.9827C41.9338 16.9643 42.2829 16.8393 42.5748 16.6235C42.8667 16.4077 43.0884 16.1105 43.2122 15.7693C43.336 15.428 43.3564 15.0578 43.2708 14.705Z" fill="#EF9F9C" stroke="white"/>
<path d="M33.0559 18.9041C32.749 18.5231 32.3036 18.2795 31.8172 18.2266C31.3309 18.1738 30.8435 18.316 30.4619 18.6221L31.6059 20.0691L30.4569 18.6261C30.0742 18.9311 29.8283 19.3756 29.7734 19.8619C29.7184 20.3482 29.8589 20.8364 30.1639 21.2191C30.4689 21.6018 30.9135 21.8477 31.3998 21.9026C31.886 21.9576 32.3742 21.8171 32.7569 21.5121L32.7809 21.4921C33.16 21.1849 33.4018 20.74 33.4533 20.2549C33.5049 19.7698 33.362 19.284 33.0559 18.9041Z" fill="#EF9F9C" stroke="white"/>
<path d="M23.2194 32.03C22.7474 31.9014 22.2437 31.9654 21.819 32.2081C21.3943 32.4508 21.0833 32.8521 20.9544 33.324C20.9544 33.341 20.9414 33.376 20.9364 33.393C20.8546 33.7456 20.8783 34.1143 21.0045 34.4535C21.1308 34.7927 21.354 35.0872 21.6463 35.3005C21.9387 35.5138 22.2873 35.6364 22.6488 35.653C23.0103 35.6696 23.3687 35.5796 23.6794 35.3941C23.9902 35.2086 24.2395 34.9358 24.3963 34.6097C24.5532 34.2836 24.6107 33.9185 24.5617 33.56C24.5126 33.2014 24.3592 32.8652 24.1206 32.5932C23.8819 32.3211 23.5685 32.1253 23.2194 32.03Z" fill="#EF9F9C" stroke="white"/>
<path d="M22.0446 37.4501C21.5562 37.4219 21.0767 37.5889 20.7114 37.9143C20.3461 38.2396 20.1249 38.6967 20.0966 39.1851C20.0966 39.2091 20.0966 39.2321 20.0966 39.2561C20.0891 39.4983 20.1295 39.7397 20.2154 39.9664C20.3013 40.193 20.431 40.4005 20.5972 40.577C20.7633 40.7534 20.9627 40.8954 21.1837 40.9948C21.4048 41.0942 21.6433 41.149 21.8856 41.1561H21.9416C22.4141 41.1419 22.8634 40.9476 23.1975 40.6131C23.5317 40.2786 23.7254 39.8291 23.739 39.3565C23.7527 38.8839 23.5853 38.424 23.2711 38.0707C22.9568 37.7175 22.5195 37.4976 22.0486 37.4561L22.0446 37.4501Z" fill="#EF9F9C" stroke="white"/>
<path d="M25.5403 26.987C25.3257 26.8743 25.091 26.805 24.8497 26.7831C24.6083 26.7611 24.365 26.787 24.1337 26.8592C23.9023 26.9313 23.6875 27.0484 23.5014 27.2036C23.3153 27.3589 23.1617 27.5493 23.0492 27.764L23.0192 27.823C22.8627 28.1495 22.8057 28.5148 22.8553 28.8734C22.9049 29.2321 23.0589 29.5682 23.2982 29.84C23.5375 30.1117 23.8514 30.307 24.2009 30.4016C24.5504 30.4962 24.92 30.4859 25.2636 30.3719C25.6073 30.258 25.9098 30.0454 26.1335 29.7607C26.3573 29.4761 26.4923 29.1318 26.5218 28.771C26.5513 28.4101 26.4739 28.0486 26.2994 27.7313C26.1249 27.4141 25.8609 27.1552 25.5403 26.987Z" fill="#EF9F9C" stroke="white"/>
<path d="M28.8733 22.551C28.6868 22.396 28.4716 22.2792 28.24 22.2074C28.0083 22.1356 27.7648 22.1101 27.5233 22.1325C27.2819 22.1549 27.0472 22.2247 26.8327 22.3378C26.6182 22.451 26.4281 22.6053 26.2733 22.792L26.2353 22.8391C26.0131 23.1253 25.8801 23.4705 25.8529 23.8318C25.8256 24.1931 25.9054 24.5545 26.0822 24.8707C26.259 25.187 26.525 25.4442 26.847 25.6103C27.1691 25.7763 27.5329 25.8439 27.8931 25.8046C28.2532 25.7652 28.5939 25.6207 28.8724 25.389C29.151 25.1573 29.3552 24.8487 29.4595 24.5017C29.5638 24.1548 29.5637 23.7847 29.4591 23.4378C29.3545 23.0909 29.1501 22.7825 28.8713 22.551H28.8733Z" fill="#EF9F9C" stroke="white"/>
<path d="M24.1291 44.4941C24.0394 44.0156 23.7642 43.5921 23.3636 43.3156C22.963 43.0391 22.4693 42.9322 21.9902 43.0181C21.5111 43.104 21.0853 43.3757 20.8056 43.7741C20.526 44.1725 20.4151 44.6653 20.4971 45.1451V45.1631C20.5732 45.5873 20.7962 45.9712 21.1269 46.2474C21.4577 46.5237 21.8751 46.6747 22.3061 46.6741C22.4171 46.6739 22.5279 46.6638 22.6371 46.6441C23.1199 46.5564 23.5481 46.2808 23.8279 45.8777C24.1076 45.4746 24.2159 44.977 24.1291 44.4941Z" fill="#EF9F9C" stroke="white"/>
<path d="M54.0651 30.4911C52.9033 30.489 51.7533 30.7239 50.6853 31.1814C49.6174 31.639 48.654 32.3095 47.8541 33.1521C47.0498 32.3071 46.0814 31.6353 45.0082 31.1778C43.9351 30.7203 42.7798 30.4867 41.6133 30.4915C40.4467 30.4962 39.2934 30.7391 38.224 31.2053C37.1546 31.6715 36.1917 32.3512 35.3943 33.2027C34.5968 34.0542 33.9817 35.0596 33.5866 36.1572C33.1914 37.2549 33.0246 38.4216 33.0963 39.586C33.168 40.7504 33.4767 41.8879 34.0036 42.9287C34.5304 43.9696 35.2642 44.8919 36.1601 45.6391L36.1961 45.6691L46.7091 53.9921C47.0353 54.251 47.4396 54.392 47.8561 54.392C48.2726 54.392 48.6769 54.251 49.0031 53.9921L59.9611 45.2631C60.0146 45.2203 60.0657 45.1746 60.1141 45.1261C61.3146 43.9291 62.133 42.4027 62.4655 40.7403C62.7981 39.0779 62.6299 37.3542 61.9822 35.7875C61.3345 34.2207 60.2364 32.8814 58.8271 31.9391C57.4177 30.9968 55.7604 30.4939 54.0651 30.4941V30.4911ZM57.5761 42.4431L47.8511 50.1901L38.5061 42.7901C37.9406 42.3146 37.4905 41.7169 37.1898 41.042C36.8891 40.3671 36.7457 39.6327 36.7703 38.8942C36.795 38.1558 36.9872 37.4326 37.3323 36.7793C37.6774 36.126 38.1664 35.5596 38.7624 35.123C39.3585 34.6863 40.0459 34.3908 40.7729 34.2587C41.4998 34.1267 42.2473 34.1615 42.9588 34.3606C43.6703 34.5597 44.3273 34.9178 44.8801 35.408C45.433 35.8982 45.8672 36.5075 46.1501 37.1901C46.2899 37.5269 46.5264 37.8147 46.8297 38.0172C47.1329 38.2197 47.4894 38.3277 47.8541 38.3277C48.2187 38.3277 48.5752 38.2197 48.8785 38.0172C49.1818 37.8147 49.4183 37.5269 49.5581 37.1901C49.8326 36.5274 50.2499 35.9334 50.7802 35.4505C51.3106 34.9675 51.9409 34.6075 52.6264 34.3961C53.3118 34.1846 54.0354 34.127 54.7457 34.2273C55.456 34.3276 56.1354 34.5833 56.7355 34.9762C57.3356 35.3692 57.8416 35.8896 58.2175 36.5005C58.5934 37.1115 58.8299 37.7978 58.9102 38.5106C58.9905 39.2234 58.9126 39.9451 58.682 40.6243C58.4513 41.3035 58.0738 41.9235 57.5761 42.4401V42.4431Z" fill="#EF9F9C" stroke="white"/>
<path d="M2.34386 69.346C3.35896 69.346 4.18186 68.5231 4.18186 67.508C4.18186 66.4929 3.35896 65.67 2.34386 65.67C1.32876 65.67 0.505859 66.4929 0.505859 67.508C0.505859 68.5231 1.32876 69.346 2.34386 69.346Z" fill="#EF9F9C" stroke="white"/>
<path d="M93.1173 15.1921C94.1324 15.1921 94.9553 14.3692 94.9553 13.3541C94.9553 12.339 94.1324 11.5161 93.1173 11.5161C92.1022 11.5161 91.2793 12.339 91.2793 13.3541C91.2793 14.3692 92.1022 15.1921 93.1173 15.1921Z" fill="#EF9F9C" stroke="white"/>
</g>
<defs>
<clipPath id="clip0">
<rect width="95.463" height="80.862" fill="white"/>
</clipPath>
</defs>
</svg>
