<svg width="148" height="85" viewBox="0 0 148 85" fill="none" xmlns="http://www.w3.org/2000/svg">
<g clip-path="url(#clip0)">
<path d="M30.4065 30.519H65.9885C66.3228 30.5185 66.6433 30.3853 66.8796 30.1487C67.1158 29.912 67.2485 29.5913 67.2485 29.257V24.336C67.2485 24.0018 67.1157 23.6813 66.8794 23.445C66.6431 23.2087 66.3227 23.076 65.9885 23.076H57.6085V1.25998C57.6085 0.925806 57.4757 0.605314 57.2394 0.369019C57.0031 0.132723 56.6827 0 56.3485 0H40.6405C40.3063 0 39.9858 0.132723 39.7495 0.369019C39.5132 0.605314 39.3805 0.925806 39.3805 1.25998V23.075H30.4065C30.0723 23.075 29.7518 23.2077 29.5155 23.444C29.2792 23.6803 29.1465 24.0008 29.1465 24.335V29.256C29.1462 29.5905 29.2788 29.9115 29.5151 30.1483C29.7513 30.3851 30.0719 30.5185 30.4065 30.519ZM41.9005 2.51898H55.0895V23.074H41.9015L41.9005 2.51898ZM31.6675 25.599H40.5735C40.5955 25.599 40.6165 25.613 40.6405 25.613H56.3485C56.3735 25.613 56.3935 25.6 56.4175 25.599H64.7285V27.999H31.6675V25.599Z" fill="#EF9F9C"/>
<path d="M146.209 0.932983H107.79C107.456 0.933248 107.136 1.0661 106.899 1.30234C106.663 1.53858 106.53 1.8589 106.53 2.19299V42.193C60.82 41.965 1.26195 42.193 1.26195 42.193C0.927591 42.1935 0.607119 42.3267 0.37088 42.5633C0.134642 42.7999 0.00195271 43.1206 0.00195313 43.455V83.39C0.00195313 83.7242 0.134706 84.0446 0.371002 84.2809C0.607298 84.5172 0.927775 84.65 1.26195 84.65H107.167C107.354 84.7683 107.569 84.8336 107.79 84.839H146.209C146.543 84.8385 146.864 84.7053 147.1 84.4687C147.336 84.232 147.469 83.9114 147.469 83.577V2.19299C147.469 1.8589 147.336 1.53858 147.1 1.30234C146.863 1.0661 146.543 0.933248 146.209 0.932983ZM144.949 3.45398V27.183H109.049V3.45398H144.949ZM106.367 63.389H66.4669V44.713H106.367V63.389ZM63.9409 53.166H32.4209V44.711H63.9409V53.166ZM32.4209 55.688H63.9409V82.126H32.4209V55.688ZM2.52095 44.71H29.9039V82.126H2.52196L2.52095 44.71ZM66.465 82.123V65.911H106.365V82.126L66.465 82.123ZM109.049 82.312V29.702H144.949V82.312H109.049Z" fill="#EF9F9C"/>
<path d="M26.2444 57.71C25.91 57.7105 25.5895 57.8437 25.3533 58.0803C25.117 58.3169 24.9844 58.6376 24.9844 58.972V68.814C24.9844 69.1483 25.1172 69.4689 25.3536 69.7053C25.59 69.9417 25.9106 70.0745 26.2449 70.0745C26.5792 70.0745 26.8998 69.9417 27.1362 69.7053C27.3726 69.4689 27.5054 69.1483 27.5054 68.814V58.972C27.5054 58.6374 27.3725 58.3166 27.1361 58.08C26.8996 57.8433 26.5789 57.7102 26.2444 57.71Z" fill="#EF9F9C"/>
<path d="M79.2356 55.378H92.2946C92.6291 55.378 92.9498 55.2451 93.1863 55.0086C93.4228 54.7721 93.5556 54.4514 93.5556 54.1169C93.5556 53.7825 93.4228 53.4618 93.1863 53.2253C92.9498 52.9888 92.6291 52.856 92.2946 52.856H79.2356C78.9012 52.856 78.5804 52.9888 78.3439 53.2253C78.1075 53.4618 77.9746 53.7825 77.9746 54.1169C77.9746 54.4514 78.1075 54.7721 78.3439 55.0086C78.5804 55.2451 78.9012 55.378 79.2356 55.378Z" fill="#EF9F9C"/>
<path d="M92.6613 72.5859H79.6023C79.268 72.5859 78.9474 72.7187 78.711 72.9551C78.4746 73.1915 78.3418 73.5121 78.3418 73.8464C78.3418 74.1807 78.4746 74.5014 78.711 74.7378C78.9474 74.9742 79.268 75.1069 79.6023 75.1069H92.6613C92.9956 75.1069 93.3162 74.9742 93.5526 74.7378C93.789 74.5014 93.9218 74.1807 93.9218 73.8464C93.9218 73.5121 93.789 73.1915 93.5526 72.9551C93.3162 72.7187 92.9956 72.5859 92.6613 72.5859Z" fill="#EF9F9C"/>
<path d="M58.2811 59.186H37.4631C37.1288 59.1866 36.8083 59.3198 36.5721 59.5564C36.3358 59.793 36.2031 60.1137 36.2031 60.4481V74.83C36.2031 75.1642 36.3359 75.4847 36.5722 75.721C36.8085 75.9573 37.1289 76.0901 37.4631 76.0901H58.2811C58.6153 76.0901 58.9358 75.9573 59.1721 75.721C59.4084 75.4847 59.5411 75.1642 59.5411 74.83V60.4481C59.5411 60.1137 59.4084 59.793 59.1722 59.5564C58.936 59.3198 58.6155 59.1866 58.2811 59.186ZM57.0211 73.569H38.7211V61.708H57.0211V73.569Z" fill="#EF9F9C"/>
<path d="M115.263 23.066C115.597 23.066 115.918 22.9332 116.154 22.6969C116.39 22.4606 116.523 22.1401 116.523 21.806V11.397C116.523 11.0627 116.39 10.742 116.154 10.5056C115.917 10.2693 115.597 10.1365 115.262 10.1365C114.928 10.1365 114.608 10.2693 114.371 10.5056C114.135 10.742 114.002 11.0627 114.002 11.397V21.806C114.002 21.9715 114.035 22.1355 114.098 22.2884C114.161 22.4413 114.254 22.5803 114.371 22.6973C114.488 22.8143 114.627 22.9071 114.78 22.9703C114.933 23.0336 115.097 23.0661 115.263 23.066Z" fill="#EF9F9C"/>
<path d="M114.696 35.105C114.361 35.105 114.041 35.2377 113.805 35.474C113.568 35.7103 113.436 36.0308 113.436 36.365V46.775C113.436 47.1093 113.568 47.4299 113.805 47.6663C114.041 47.9027 114.362 48.0355 114.696 48.0355C115.03 48.0355 115.351 47.9027 115.587 47.6663C115.824 47.4299 115.957 47.1093 115.957 46.775V36.365C115.957 36.1994 115.924 36.0355 115.861 35.8826C115.797 35.7296 115.704 35.5907 115.587 35.4737C115.47 35.3566 115.331 35.2639 115.178 35.2006C115.025 35.1373 114.861 35.1048 114.696 35.105Z" fill="#EF9F9C"/>
</g>
<defs>
<clipPath id="clip0">
<rect width="147.469" height="84.836" fill="white"/>
</clipPath>
</defs>
</svg>
