<svg width="89" height="89" viewBox="0 0 89 89" fill="none" xmlns="http://www.w3.org/2000/svg">
<path d="M66.5 88.496C67.6046 88.496 68.5 87.8244 68.5 86.996C68.5 86.1675 67.6046 85.496 66.5 85.496C65.3954 85.496 64.5 86.1675 64.5 86.996C64.5 87.8244 65.3954 88.496 66.5 88.496Z" fill="#EF9F9C" stroke="white"/>
<path d="M86.781 23.188H67.875V14.594C67.875 14.1381 67.6939 13.7009 67.3715 13.3785C67.0491 13.0561 66.6119 12.875 66.156 12.875H46.219V2.219C46.219 1.76309 46.0379 1.32586 45.7155 1.00348C45.3931 0.681108 44.9559 0.5 44.5 0.5H2.219C1.76309 0.5 1.32586 0.681108 1.00348 1.00348C0.681108 1.32586 0.5 1.76309 0.5 2.219L0.5 66.156C0.5 66.6119 0.681108 67.0491 1.00348 67.3715C1.32586 67.6939 1.76309 67.875 2.219 67.875H22.156V76.469C22.156 76.6947 22.2005 76.9183 22.2869 77.1268C22.3732 77.3354 22.4999 77.5249 22.6595 77.6845C22.8191 77.8441 23.0086 77.9708 23.2172 78.0572C23.4257 78.1435 23.6493 78.188 23.875 78.188H43.813V86.782C43.8133 87.2376 43.9944 87.6744 44.3165 87.9965C44.6386 88.3186 45.0754 88.4997 45.531 88.5H58.422C58.8706 88.4892 59.2972 88.3034 59.6106 87.9823C59.9241 87.6612 60.0995 87.2302 60.0995 86.7815C60.0995 86.3328 59.9241 85.9018 59.6106 85.5807C59.2972 85.2596 58.8706 85.0738 58.422 85.063H47.25V69.225C47.9608 70.1822 48.6185 71.1777 49.22 72.207C51.012 75.147 52.865 78.188 55.844 78.188C58.823 78.188 60.676 75.148 62.468 72.207C63.582 70.379 65.108 67.875 66.157 67.875C67.206 67.875 68.731 70.375 69.846 72.207C71.638 75.147 73.491 78.188 76.47 78.188C79.449 78.188 81.302 75.148 83.094 72.207C83.6955 71.1777 84.3532 70.1822 85.064 69.225V85.063H73.891C73.4351 85.063 72.9979 85.2441 72.6755 85.5665C72.3531 85.8889 72.172 86.3261 72.172 86.782C72.172 87.2379 72.3531 87.6751 72.6755 87.9975C72.9979 88.3199 73.4351 88.501 73.891 88.501H86.781C87.0068 88.501 87.2304 88.4565 87.4391 88.3701C87.6477 88.2836 87.8372 88.1569 87.9969 87.9972C88.1565 87.8374 88.2831 87.6478 88.3694 87.4391C88.4558 87.2305 88.5001 87.0068 88.5 86.781V24.906C88.4997 24.4503 88.3185 24.0133 87.9962 23.6911C87.6738 23.369 87.2367 23.188 86.781 23.188ZM43.813 43.813H25.594V31.781H43.813V43.813ZM25.594 47.25H43.813V59.281H25.594V47.25ZM47.25 38.288C47.9608 39.2452 48.6185 40.2407 49.22 41.27C51.012 44.21 52.865 47.251 55.844 47.251C58.823 47.251 60.676 44.211 62.468 41.27C63.582 39.442 65.108 36.938 66.157 36.938C67.206 36.938 68.731 39.438 69.846 41.27C71.638 44.21 73.491 47.251 76.47 47.251C79.449 47.251 81.302 44.211 83.094 41.27C83.6955 40.2407 84.3532 39.2452 85.064 38.288V49.335C83.038 50.228 81.579 52.619 80.159 54.949C79.045 56.777 77.519 59.281 76.47 59.281C75.421 59.281 73.896 56.781 72.781 54.949C70.989 52.009 69.136 48.968 66.157 48.968C63.178 48.968 61.325 52.008 59.533 54.949C58.419 56.777 56.893 59.281 55.844 59.281C54.795 59.281 53.27 56.781 52.155 54.949C50.735 52.619 49.276 50.228 47.25 49.335V38.288ZM85.063 33.867C83.037 34.76 81.578 37.151 80.158 39.481C79.044 41.309 77.518 43.813 76.469 43.813C75.42 43.813 73.895 41.313 72.78 39.481C70.988 36.54 69.135 33.5 66.156 33.5C63.177 33.5 61.324 36.54 59.532 39.481C58.418 41.309 56.892 43.813 55.843 43.813C54.794 43.813 53.269 41.313 52.154 39.481C50.734 37.151 49.275 34.76 47.249 33.867V26.625H85.063V33.867ZM64.438 23.188H45.531C45.0751 23.188 44.6379 23.3691 44.3155 23.6915C43.9931 24.0139 43.812 24.4511 43.812 24.907V28.345H25.594V16.313H64.438V23.188ZM3.938 64.438V3.938H42.781V12.876H23.875C23.6493 12.876 23.4257 12.9205 23.2172 13.0069C23.0086 13.0932 22.8191 13.2199 22.6595 13.3795C22.4999 13.5391 22.3732 13.7286 22.2869 13.9372C22.2005 14.1457 22.156 14.3693 22.156 14.595V64.438H3.938ZM25.594 74.75V62.719H43.813V74.75H25.594ZM80.158 70.418C79.044 72.246 77.518 74.75 76.469 74.75C75.42 74.75 73.895 72.25 72.78 70.418C70.988 67.478 69.135 64.437 66.156 64.437C63.177 64.437 61.324 67.477 59.532 70.418C58.418 72.246 56.892 74.75 55.843 74.75C54.794 74.75 53.269 72.25 52.154 70.418C50.734 68.088 49.275 65.697 47.249 64.804V53.757C47.9598 54.7142 48.6175 55.7097 49.219 56.739C51.011 59.679 52.864 62.719 55.843 62.719C58.822 62.719 60.675 59.679 62.467 56.738C63.581 54.91 65.107 52.406 66.156 52.406C67.205 52.406 68.73 54.906 69.845 56.738C71.637 59.678 73.49 62.719 76.469 62.719C79.448 62.719 81.301 59.679 83.093 56.738C83.6945 55.7087 84.3522 54.7132 85.063 53.756V64.8C83.036 65.7 81.577 68.088 80.157 70.418H80.158Z" fill="#EF9F9C" stroke="white"/>
</svg>
