<svg width="89" height="89" viewBox="0 0 89 89" fill="none" xmlns="http://www.w3.org/2000/svg">
<g clip-path="url(#clip0)">
<path d="M81.725 0.5H6.3C4.76256 0.502644 3.28884 1.11456 2.2017 2.2017C1.11456 3.28884 0.502644 4.76256 0.5 6.3L0.5 51.267C0.5 51.6516 0.652767 52.0204 0.924695 52.2923C1.19662 52.5642 1.56544 52.717 1.95 52.717H86.078C86.4626 52.717 86.8314 52.5642 87.1033 52.2923C87.3752 52.0204 87.528 51.6516 87.528 51.267V6.3C87.5254 4.76204 86.913 3.28787 85.8252 2.20064C84.7374 1.11342 83.263 0.501851 81.725 0.5ZM84.625 49.816H3.4V6.3C3.40132 5.53128 3.70728 4.79442 4.25085 4.25085C4.79442 3.70728 5.53128 3.40132 6.3 3.4H81.725C82.4937 3.40132 83.2306 3.70728 83.7741 4.25085C84.3177 4.79442 84.6237 5.53128 84.625 6.3V49.816Z" fill="#EF9F9C" stroke="white"/>
<path d="M86.078 49.816H1.95C1.56544 49.816 1.19662 49.9688 0.924695 50.2408C0.652767 50.5127 0.5 50.8815 0.5 51.2661L0.5 64.319C0.502644 65.8565 1.11456 67.3302 2.2017 68.4174C3.28884 69.5045 4.76256 70.1164 6.3 70.119H81.725C83.2624 70.1164 84.7362 69.5045 85.8233 68.4174C86.9104 67.3302 87.5224 65.8565 87.525 64.319V51.2671C87.5253 50.8828 87.373 50.5142 87.1017 50.2422C86.8304 49.9701 86.4622 49.8168 86.078 49.816ZM84.627 64.316C84.6257 65.0848 84.3197 65.8216 83.7761 66.3652C83.2326 66.9088 82.4957 67.2147 81.727 67.216H6.3C5.53128 67.2147 4.79442 66.9088 4.25085 66.3652C3.70728 65.8216 3.40132 65.0848 3.4 64.316V52.716H84.627V64.316Z" fill="#EF9F9C" stroke="white"/>
<path d="M80.2767 6.302H7.75274C7.56232 6.302 7.37377 6.33951 7.19785 6.41238C7.02192 6.48525 6.86208 6.59205 6.72743 6.7267C6.59279 6.86134 6.48598 7.02119 6.41311 7.19711C6.34024 7.37304 6.30273 7.56159 6.30273 7.752V51.269C6.30273 51.4594 6.34024 51.648 6.41311 51.8239C6.48598 51.9998 6.59279 52.1597 6.72743 52.2943C6.86208 52.429 7.02192 52.5358 7.19785 52.6086C7.37377 52.6815 7.56232 52.719 7.75274 52.719H80.2767C80.6613 52.719 81.0301 52.5662 81.302 52.2943C81.574 52.0224 81.7267 51.6536 81.7267 51.269V7.752C81.7267 7.36744 81.574 6.99862 81.302 6.7267C81.0301 6.45477 80.6613 6.302 80.2767 6.302ZM78.8267 49.816H9.20374V9.203H78.8267V49.816Z" fill="#EF9F9C" stroke="white"/>
<path d="M62.8726 78.825H25.1556C24.0026 78.8263 22.8972 79.2849 22.0819 80.1002C21.2666 80.9155 20.808 82.0209 20.8066 83.174V86.074C20.8066 86.4585 20.9594 86.8273 21.2313 87.0993C21.5033 87.3712 21.8721 87.524 22.2566 87.524H65.7706C66.1552 87.524 66.524 87.3712 66.7959 87.0993C67.0679 86.8273 67.2206 86.4585 67.2206 86.074V83.174C67.2193 82.0211 66.7608 80.9158 65.9457 80.1006C65.1306 79.2853 64.0255 78.8265 62.8726 78.825ZM64.3206 84.625H23.7076V83.172C23.7079 82.788 23.8605 82.4199 24.132 82.1484C24.4035 81.8769 24.7717 81.7242 25.1556 81.724H62.8736C63.2576 81.7242 63.6257 81.8769 63.8972 82.1484C64.1687 82.4199 64.3214 82.788 64.3216 83.172V84.625H64.3206Z" fill="#EF9F9C" stroke="white"/>
<path d="M59.9692 78.826C55.1562 78.826 52.7172 75.41 52.7172 68.673C52.7172 68.2884 52.5645 67.9196 52.2925 67.6477C52.0206 67.3758 51.6518 67.223 51.2672 67.223H36.7672C36.3827 67.223 36.0139 67.3758 35.7419 67.6477C35.47 67.9196 35.3172 68.2884 35.3172 68.673C35.3172 75.41 32.8772 78.826 28.0652 78.826C27.6807 78.826 27.3119 78.9788 27.0399 79.2507C26.768 79.5226 26.6152 79.8915 26.6152 80.276C26.6152 80.6606 26.768 81.0294 27.0399 81.3013C27.3119 81.5733 27.6807 81.726 28.0652 81.726H59.9752C60.3598 81.726 60.7286 81.5733 61.0005 81.3013C61.2725 81.0294 61.4252 80.6606 61.4252 80.276C61.4252 79.8915 61.2725 79.5226 61.0005 79.2507C60.7286 78.9788 60.3598 78.826 59.9752 78.826H59.9692ZM35.1242 78.826C36.9102 76.849 37.9612 73.902 38.1732 70.126H49.8572C50.0672 73.904 51.1192 76.852 52.9062 78.826H35.1242Z" fill="#EF9F9C" stroke="white"/>
<path d="M46.9141 61.42H42.5611V58.52H46.9121C47.1025 58.52 47.2911 58.4825 47.467 58.4096C47.6429 58.3367 47.8028 58.2299 47.9374 58.0953C48.0721 57.9606 48.1789 57.8008 48.2517 57.6249C48.3246 57.449 48.3621 57.2604 48.3621 57.07C48.3621 56.8796 48.3246 56.691 48.2517 56.5151C48.1789 56.3392 48.0721 56.1793 47.9374 56.0447C47.8028 55.91 47.6429 55.8032 47.467 55.7303C47.2911 55.6575 47.1025 55.62 46.9121 55.62H41.1121C40.7275 55.62 40.3587 55.7727 40.0868 56.0447C39.8149 56.3166 39.6621 56.6854 39.6621 57.07V62.87C39.6621 63.2546 39.8149 63.6234 40.0868 63.8953C40.3587 64.1672 40.7275 64.32 41.1121 64.32H46.9121C47.2967 64.32 47.6655 64.1672 47.9374 63.8953C48.2093 63.6234 48.3621 63.2546 48.3621 62.87C48.3621 62.4854 48.2093 62.1166 47.9374 61.8447C47.6655 61.5727 47.2967 61.42 46.9121 61.42H46.9141Z" fill="#EF9F9C" stroke="white"/>
<path d="M20.3812 12.528C20.2467 12.3931 20.0868 12.2862 19.9108 12.2132C19.7349 12.1402 19.5462 12.1027 19.3557 12.1027C19.1652 12.1027 18.9766 12.1402 18.8006 12.2132C18.6247 12.2862 18.4648 12.3931 18.3302 12.528L12.5302 18.328C12.3956 18.4626 12.2887 18.6225 12.2159 18.7985C12.143 18.9744 12.1055 19.163 12.1055 19.3535C12.1055 19.5439 12.143 19.7325 12.2159 19.9085C12.2887 20.0844 12.3956 20.2443 12.5302 20.379C12.6649 20.5136 12.8248 20.6205 13.0007 20.6933C13.1767 20.7662 13.3653 20.8037 13.5557 20.8037C13.7462 20.8037 13.9348 20.7662 14.1107 20.6933C14.2867 20.6205 14.4466 20.5136 14.5812 20.379L20.3812 14.579C20.5161 14.4444 20.623 14.2845 20.696 14.1086C20.769 13.9326 20.8065 13.744 20.8065 13.5535C20.8065 13.363 20.769 13.1743 20.696 12.9984C20.623 12.8224 20.5161 12.6626 20.3812 12.528Z" fill="#EF9F9C" stroke="white"/>
<path d="M30.5355 21.2319C30.401 21.0971 30.2411 20.9902 30.0651 20.9172C29.8892 20.8442 29.7005 20.8066 29.51 20.8066C29.3195 20.8066 29.1309 20.8442 28.9549 20.9172C28.779 20.9902 28.6191 21.0971 28.4845 21.2319L22.6845 27.032C22.4126 27.3039 22.2598 27.6728 22.2598 28.0574C22.2598 28.4421 22.4126 28.811 22.6845 29.0829C22.9565 29.3549 23.3254 29.5077 23.71 29.5077C24.0947 29.5077 24.4636 29.3549 24.7355 29.0829L30.5355 23.283C30.6704 23.1484 30.7773 22.9885 30.8503 22.8125C30.9233 22.6366 30.9608 22.4479 30.9608 22.2574C30.9608 22.0669 30.9233 21.8783 30.8503 21.7024C30.7773 21.5264 30.6704 21.3665 30.5355 21.2319Z" fill="#EF9F9C" stroke="white"/>
<path d="M29.0832 12.5289C28.9486 12.3941 28.7888 12.2872 28.6128 12.2142C28.4368 12.1412 28.2482 12.1036 28.0577 12.1036C27.8672 12.1036 27.6786 12.1412 27.5026 12.2142C27.3266 12.2872 27.1668 12.3941 27.0322 12.5289L12.5322 27.0289C12.3975 27.1636 12.2907 27.3235 12.2178 27.4995C12.1449 27.6754 12.1074 27.864 12.1074 28.0544C12.1074 28.2449 12.1449 28.4335 12.2178 28.6094C12.2907 28.7854 12.3975 28.9453 12.5322 29.0799C12.6669 29.2146 12.8267 29.3214 13.0027 29.3943C13.1787 29.4672 13.3672 29.5047 13.5577 29.5047C13.7481 29.5047 13.9367 29.4672 14.1127 29.3943C14.2886 29.3214 14.4485 29.2146 14.5832 29.0799L29.0832 14.5799C29.218 14.4454 29.325 14.2855 29.398 14.1095C29.4709 13.9336 29.5085 13.7449 29.5085 13.5544C29.5085 13.3639 29.4709 13.1753 29.398 12.9993C29.325 12.8234 29.218 12.6635 29.0832 12.5289Z" fill="#EF9F9C" stroke="white"/>
</g>
<defs>
<clipPath id="clip0">
<rect width="88.028" height="88.028" fill="white"/>
</clipPath>
</defs>
</svg>
