<svg width="93" height="93" viewBox="0 0 93 93" fill="none" xmlns="http://www.w3.org/2000/svg">
<g clip-path="url(#clip0)">
<path d="M87.981 0.5H4.948C3.76832 0.5 2.63695 0.968627 1.80279 1.80279C0.968627 2.63695 0.5 3.76832 0.5 4.948V61.292C0.5 62.4717 0.968627 63.603 1.80279 64.4372C2.63695 65.2714 3.76832 65.74 4.948 65.74H36.085V80.567C36.0853 80.8601 36.1724 81.1466 36.3353 81.3902C36.4983 81.6339 36.7298 81.8238 37.0007 81.9359C37.2715 82.048 37.5695 82.0774 37.857 82.0203C38.1445 81.9632 38.4086 81.8221 38.616 81.615L42.016 78.215V90.946C42.0163 91.2391 42.1034 91.5256 42.2663 91.7692C42.4293 92.0129 42.6608 92.2028 42.9317 92.3149C43.2025 92.427 43.5005 92.4564 43.788 92.3993C44.0755 92.3422 44.3396 92.2011 44.547 91.994L49.43 87.111L54.313 91.994C54.591 92.2718 54.968 92.4279 55.361 92.428C55.556 92.4285 55.7491 92.3901 55.929 92.315C56.1999 92.2027 56.4314 92.0126 56.5942 91.7687C56.7571 91.5249 56.844 91.2382 56.844 90.945V65.74H87.981C89.1607 65.74 90.2921 65.2714 91.1262 64.4372C91.9604 63.603 92.429 62.4717 92.429 61.292V4.948C92.429 3.76832 91.9604 2.63695 91.1262 1.80279C90.2921 0.968627 89.1607 0.5 87.981 0.5ZM43.535 64.625C42.5724 63.7257 41.3235 63.1946 40.008 63.125C38.8874 63.0899 37.8224 62.6291 37.0296 61.8364C36.2369 61.0436 35.7761 59.9786 35.741 58.858C35.6714 57.5425 35.1403 56.2936 34.241 55.331C33.5227 54.524 33.1259 53.4813 33.1259 52.401C33.1259 51.3207 33.5227 50.278 34.241 49.471C35.1407 48.5078 35.6719 47.2582 35.741 45.942C35.7763 44.8216 36.2372 43.7568 37.03 42.9643C37.8227 42.1717 38.8876 41.7111 40.008 41.676C41.3235 41.6064 42.5724 41.0753 43.535 40.176C44.3521 39.479 45.391 39.0962 46.465 39.0962C47.539 39.0962 48.5779 39.479 49.395 40.176C50.3576 41.0753 51.6065 41.6064 52.922 41.676C54.0424 41.7111 55.1073 42.1717 55.9 42.9643C56.6928 43.7568 57.1537 44.8216 57.189 45.942C57.2581 47.2582 57.7893 48.5078 58.689 49.471C59.4073 50.278 59.8041 51.3207 59.8041 52.401C59.8041 53.4813 59.4073 54.524 58.689 55.331C57.7897 56.2936 57.2586 57.5425 57.189 58.858C57.1539 59.9786 56.6931 61.0436 55.9004 61.8364C55.1076 62.6291 54.0426 63.0899 52.922 63.125C51.6065 63.1946 50.3576 63.7257 49.395 64.625C48.5779 65.322 47.539 65.7048 46.465 65.7048C45.391 65.7048 44.3521 65.322 43.535 64.625ZM60.912 47.5C60.4765 47.05 60.208 46.4646 60.151 45.841C60.0912 43.9691 59.3208 42.1902 57.9964 40.8659C56.6719 39.5417 54.8929 38.7715 53.021 38.712C52.3977 38.655 51.8126 38.3865 51.363 37.951C49.9954 36.7876 48.2585 36.1487 46.463 36.1487C44.6675 36.1487 42.9306 36.7876 41.563 37.951C41.1134 38.3865 40.5283 38.655 39.905 38.712C38.0331 38.7715 36.2541 39.5417 34.9296 40.8659C33.6052 42.1902 32.8348 43.9691 32.775 45.841C32.7188 46.4642 32.4514 47.0496 32.017 47.5C30.879 48.7729 30.2228 50.4041 30.1621 52.1105C30.1015 53.8168 30.6403 55.4905 31.685 56.841H15.179C14.8859 55.4183 14.1823 54.1126 13.1553 53.0854C12.1282 52.0581 10.8227 51.3544 9.4 51.061V15.179C10.8225 14.8857 12.128 14.1821 13.155 13.155C14.1821 12.128 14.8857 10.8225 15.179 9.4H77.75C78.0429 10.8238 78.7468 12.1305 79.7747 13.1584C80.8025 14.1862 82.1092 14.8901 83.533 15.183V51.061C82.1092 51.3539 80.8025 52.0578 79.7747 53.0856C78.7468 54.1135 78.0429 55.4202 77.75 56.844H61.244C62.2895 55.4933 62.8288 53.819 62.7681 52.1119C62.7075 50.4049 62.0507 48.7731 60.912 47.5ZM39.051 65.974C39.3342 66.0271 39.6204 66.0632 39.908 66.082C40.5313 66.1389 41.1164 66.4075 41.566 66.843C42.9162 68.0428 44.6598 68.7053 46.466 68.705C46.9646 68.7015 47.4615 68.6469 47.949 68.542V76.994L44.549 73.594C44.4112 73.4559 44.2476 73.3463 44.0674 73.2715C43.8872 73.1968 43.6941 73.1583 43.499 73.1583C43.3039 73.1583 43.1108 73.1968 42.9306 73.2715C42.7504 73.3463 42.5868 73.4559 42.449 73.594L39.049 76.988L39.051 65.974ZM50.478 83.967C50.3402 83.8289 50.1766 83.7193 49.9964 83.6445C49.8162 83.5698 49.6231 83.5313 49.428 83.5313C49.2329 83.5313 49.0398 83.5698 48.8596 83.6445C48.6794 83.7193 48.5158 83.8289 48.378 83.967L44.978 87.367V78.215L48.378 81.615C48.656 81.8928 49.033 82.0489 49.426 82.049C49.621 82.0495 49.8141 82.0111 49.994 81.936C50.2649 81.8237 50.4964 81.6336 50.6592 81.3897C50.8221 81.1459 50.909 80.8592 50.909 80.566V67.222H50.844C51.016 67.094 51.198 66.985 51.36 66.842C51.8096 66.4065 52.3947 66.138 53.018 66.081C53.3056 66.0622 53.5918 66.0261 53.875 65.973V87.367L50.478 83.967ZM89.463 61.292C89.463 61.6853 89.3068 62.0625 89.0286 62.3406C88.7505 62.6188 88.3733 62.775 87.98 62.775H58.93C59.5132 61.8798 59.8934 60.8678 60.044 59.81H79.084C79.2787 59.81 79.4716 59.7716 79.6515 59.6971C79.8314 59.6226 79.9949 59.5134 80.1326 59.3756C80.2703 59.2379 80.3796 59.0744 80.4541 58.8945C80.5286 58.7146 80.567 58.5218 80.567 58.327C80.567 57.1473 81.0356 56.016 81.8698 55.1818C82.7039 54.3476 83.8353 53.879 85.015 53.879C85.408 53.8795 85.7851 53.7241 86.0635 53.4468C86.342 53.1695 86.4989 52.793 86.5 52.4V13.844C86.5 13.4507 86.3438 13.0735 86.0656 12.7954C85.7875 12.5172 85.4103 12.361 85.017 12.361C83.8373 12.361 82.7059 11.8924 81.8718 11.0582C81.0376 10.224 80.569 9.09268 80.569 7.913C80.569 7.71825 80.5306 7.52541 80.4561 7.34548C80.3816 7.16555 80.2723 7.00207 80.1346 6.86436C79.9969 6.72665 79.8334 6.61741 79.6535 6.54289C79.4736 6.46836 79.2807 6.43 79.086 6.43H13.844C13.4507 6.43 13.0735 6.58624 12.7954 6.86436C12.5172 7.14248 12.361 7.51968 12.361 7.913C12.361 8.49712 12.2459 9.07552 12.0224 9.61518C11.7989 10.1548 11.4712 10.6452 11.0582 11.0582C10.6452 11.4712 10.1548 11.7989 9.61518 12.0224C9.07552 12.2459 8.49712 12.361 7.913 12.361C7.51968 12.361 7.14248 12.5172 6.86436 12.7954C6.58624 13.0735 6.43 13.4507 6.43 13.844V52.4C6.43 52.7933 6.58624 53.1705 6.86436 53.4486C7.14248 53.7268 7.51968 53.883 7.913 53.883C8.49712 53.883 9.07552 53.9981 9.61518 54.2216C10.1548 54.4451 10.6452 54.7728 11.0582 55.1858C11.4712 55.5988 11.7989 56.0892 12.0224 56.6288C12.2459 57.1685 12.361 57.7469 12.361 58.331C12.361 58.7243 12.5172 59.1015 12.7954 59.3796C13.0735 59.6578 13.4507 59.814 13.844 59.814H32.886C33.0373 60.87 33.4175 61.8803 34 62.774H4.948C4.55468 62.774 4.17748 62.6178 3.89936 62.3396C3.62124 62.0615 3.465 61.6843 3.465 61.291V4.948C3.465 4.55468 3.62124 4.17748 3.89936 3.89936C4.17748 3.62124 4.55468 3.465 4.948 3.465H87.981C88.1758 3.465 88.3686 3.50336 88.5485 3.57789C88.7284 3.65241 88.8919 3.76165 89.0296 3.89936C89.1674 4.03707 89.2766 4.20055 89.3511 4.38048C89.4256 4.56041 89.464 4.75325 89.464 4.948L89.463 61.292Z" fill="#EF9F9C" stroke="white"/>
<path d="M46.4684 43.499C44.7081 43.499 42.9874 44.021 41.5238 44.9989C40.0602 45.9769 38.9195 47.3669 38.2458 48.9931C37.5722 50.6194 37.396 52.4089 37.7394 54.1353C38.0828 55.8618 38.9304 57.4476 40.1751 58.6923C41.4198 59.937 43.0056 60.7846 44.7321 61.128C46.4585 61.4714 48.248 61.2952 49.8742 60.6216C51.5005 59.9479 52.8905 58.8072 53.8684 57.3436C54.8464 55.88 55.3684 54.1593 55.3684 52.399C55.3684 50.0386 54.4307 47.7748 52.7616 46.1058C51.0925 44.4367 48.8288 43.499 46.4684 43.499ZM46.4684 58.326C45.295 58.3268 44.1477 57.9795 43.1718 57.3281C42.1958 56.6767 41.435 55.7505 40.9856 54.6666C40.5362 53.5827 40.4184 52.3898 40.6471 51.2389C40.8759 50.0881 41.4408 49.0309 42.2705 48.2012C43.1002 47.3715 44.1574 46.8065 45.3083 46.5778C46.4591 46.3491 47.652 46.4669 48.7359 46.9163C49.8198 47.3657 50.7461 48.1265 51.3975 49.1024C52.0489 50.0784 52.3962 51.2256 52.3954 52.399C52.3943 53.9706 51.7695 55.4776 50.6582 56.5889C49.5469 57.7002 48.04 58.325 46.4684 58.326Z" fill="#EF9F9C" stroke="white"/>
<path d="M33.1191 12.3621H59.8081V15.3271H33.1191V12.3621Z" fill="#EF9F9C" stroke="white"/>
<path d="M24.2246 18.293H68.7066V21.258H24.2246V18.293Z" fill="#EF9F9C" stroke="white"/>
<path d="M18.293 24.224H74.636V27.189H18.293V24.224Z" fill="#EF9F9C" stroke="white"/>
<path d="M65.7402 50.913H74.6402V53.878H65.7402V50.913Z" fill="#EF9F9C" stroke="white"/>
<path d="M18.293 50.913H27.193V53.878H18.293V50.913Z" fill="#EF9F9C" stroke="white"/>
</g>
<defs>
<clipPath id="clip0">
<rect width="92.929" height="92.955" fill="white"/>
</clipPath>
</defs>
</svg>
