<svg width="82" height="82" viewBox="0 0 82 82" fill="none" xmlns="http://www.w3.org/2000/svg">
<g clip-path="url(#clip0)">
<path d="M23.1027 2.57001C21.931 1.40384 20.3453 0.749146 18.6922 0.749146C17.0391 0.749146 15.4533 1.40384 14.2817 2.57001L2.57169 14.281C1.40503 15.4524 0.75 17.0383 0.75 18.6915C0.75 20.3448 1.40503 21.9306 2.57169 23.102L21.5717 42.124L9.88668 53.814C9.63307 54.0653 9.44847 54.3777 9.35069 54.721L4.45068 71.861C4.27897 72.4609 4.2489 73.0925 4.36285 73.706C4.4768 74.3195 4.73166 74.8981 5.10734 75.3963C5.48301 75.8945 5.96925 76.2987 6.52773 76.577C7.08622 76.8553 7.7017 77.0001 8.32568 77C8.70005 76.9993 9.07254 76.9472 9.43269 76.845L26.5727 71.945C26.916 71.8471 27.2283 71.6626 27.4797 71.409L39.1737 59.724L58.1827 78.735C59.3546 79.9007 60.9403 80.5551 62.5932 80.5551C64.2461 80.5551 65.8318 79.9007 67.0037 78.735L78.7147 67.024C79.8813 65.8526 80.5364 64.2667 80.5364 62.6135C80.5364 60.9603 79.8813 59.3744 78.7147 58.203L59.7147 39.181L75.7957 23.1C76.5687 22.3282 77.1819 21.4115 77.6003 20.4025C78.0187 19.3935 78.2341 18.3119 78.2341 17.2195C78.2341 16.1272 78.0187 15.0455 77.6003 14.0365C77.1819 13.0275 76.5687 12.1108 75.7957 11.339L69.9407 5.48401C68.3802 3.92605 66.2653 3.05101 64.0602 3.05101C61.8551 3.05101 59.7402 3.92605 58.1797 5.48401L42.1127 21.584L23.1027 2.57001ZM15.7687 65.53C14.5331 64.3065 13.055 63.3551 11.4297 62.737L12.7357 58.161L20.0187 61.282L23.1397 68.565L18.5637 69.871C17.9436 68.2444 16.9898 66.7657 15.7637 65.53H15.7687ZM24.1087 60.162L55.2867 28.984L59.6367 33.334L26.7177 66.251L24.1087 60.162ZM50.9387 18.696L55.2887 14.346L66.9617 26.014L62.6097 30.361L50.9387 18.696ZM52.3187 26.015L21.1387 57.193L15.0477 54.585L47.9667 21.666L52.3187 26.015ZM5.54068 20.134C5.15829 19.7511 4.9435 19.2321 4.9435 18.691C4.9435 18.1499 5.15829 17.6309 5.54068 17.248L17.2517 5.537C17.6346 5.15461 18.1536 4.93983 18.6947 4.93983C19.2358 4.93983 19.7548 5.15461 20.1377 5.537L24.5087 9.908L20.1377 14.279C19.7438 14.6729 19.5226 15.207 19.5226 15.764C19.5226 16.321 19.7438 16.8552 20.1377 17.249C20.5315 17.6429 21.0657 17.8641 21.6227 17.8641C22.1797 17.8641 22.7138 17.6429 23.1077 17.249L27.4787 12.878L31.8287 17.232L28.9217 20.139C28.5278 20.5329 28.3066 21.067 28.3066 21.624C28.3066 22.181 28.5278 22.7152 28.9217 23.109C29.3155 23.5029 29.8497 23.7241 30.4067 23.7241C30.9637 23.7241 31.4978 23.5029 31.8917 23.109L34.7987 20.202L39.1487 24.552L24.5487 39.152L5.54068 20.134ZM8.57768 72.723L10.2577 66.8C12.1661 67.6051 13.6846 69.1236 14.4897 71.032L8.57768 72.723ZM61.0997 46.508L58.1927 49.415C57.7988 49.8089 57.5776 50.343 57.5776 50.9C57.5776 51.457 57.7988 51.9912 58.1927 52.385C58.5865 52.7789 59.1207 53.0001 59.6777 53.0001C60.2347 53.0001 60.7688 52.7789 61.1627 52.385L64.0697 49.474L68.4197 53.824L64.0487 58.195C63.6548 58.5889 63.4336 59.123 63.4336 59.68C63.4336 60.237 63.6548 60.7712 64.0487 61.165C64.4425 61.5589 64.9767 61.7801 65.5337 61.7801C66.0907 61.7801 66.6248 61.5589 67.0187 61.165L71.3897 56.794L75.7577 61.164C76.1401 61.5469 76.3549 62.0659 76.3549 62.607C76.3549 63.1481 76.1401 63.6671 75.7577 64.05L64.0467 75.761C63.6638 76.1434 63.1448 76.3582 62.6037 76.3582C62.0626 76.3582 61.5435 76.1434 61.1607 75.761L42.1517 56.752L56.7517 42.152L61.0997 46.508ZM64.0677 7.259C64.6075 7.25676 65.1424 7.36167 65.6414 7.56766C66.1404 7.77364 66.5936 8.07662 66.9747 8.45901L72.8297 14.314C73.5995 15.085 74.0319 16.13 74.0319 17.2195C74.0319 18.309 73.5995 19.354 72.8297 20.125L69.9297 23.04L58.2607 11.371L61.1677 8.464C61.5477 8.08186 61.9996 7.77873 62.4973 7.57208C62.995 7.36544 63.5288 7.25938 64.0677 7.26001V7.259Z" fill="#EF9F9C" stroke="white" stroke-width="1.5"/>
</g>
<defs>
<clipPath id="clip0">
<rect width="81.29" height="81.307" fill="white"/>
</clipPath>
</defs>
</svg>
