<svg width="93" height="93" viewBox="0 0 93 93" fill="none" xmlns="http://www.w3.org/2000/svg">
<g clip-path="url(#clip0)">
<path d="M87.87 66.975C85.0534 64.1947 81.2486 62.6457 77.291 62.668L41.244 26.624C42.1916 23.119 42.196 19.4257 41.2566 15.9184C40.3173 12.4111 38.4676 9.21432 35.895 6.65204C30.434 1.15204 22.252 -1.22395 12.719 2.25205L25.929 15.462L24.181 24.162L15.481 25.91L2.26601 12.711C-1.19399 22.152 1.16701 30.427 6.62801 35.887C9.19173 38.4563 12.3877 40.304 15.8935 41.2436C19.3994 42.1833 23.091 42.1817 26.596 41.239L62.644 77.2831C62.6225 79.7175 63.2029 82.1195 64.3337 84.2754C65.4645 86.4314 67.1106 88.2745 69.1255 89.6408C71.1405 91.0071 73.4619 91.8542 75.8833 92.1069C78.3046 92.3595 80.7509 92.0099 83.0045 91.089C85.2582 90.1681 87.2493 88.7045 88.8008 86.8284C90.3523 84.9524 91.4161 82.7219 91.8976 80.3355C92.3791 77.9491 92.2634 75.4807 91.5607 73.1498C90.8581 70.8189 89.5902 68.6977 87.87 66.975ZM85.78 85.79C83.5612 88.0057 80.5537 89.2503 77.418 89.2503C74.2823 89.2503 71.2748 88.0057 69.056 85.79C67.8394 84.5116 66.9082 82.9894 66.3242 81.3241C65.7401 79.6587 65.5164 77.8883 65.668 76.1301L27.444 37.888C24.5327 38.9696 21.3883 39.2678 18.3256 38.7528C15.2628 38.2378 12.389 36.9277 9.99142 34.9534C7.59389 32.9792 5.75674 30.4101 4.66371 27.503C3.57068 24.5959 3.26009 21.4528 3.76301 18.388L14.503 29.129L26.686 26.696L29.119 14.513L18.378 3.77205C21.1556 3.30639 24.0043 3.51339 26.6854 4.3757C29.3664 5.23801 31.8017 6.7305 33.787 8.72804C36.181 11.1356 37.8377 14.1767 38.5622 17.4937C39.2868 20.8106 39.0491 24.2656 37.877 27.452L76.102 65.677C77.8612 65.5127 79.6351 65.7304 81.3023 66.3151C82.9696 66.8999 84.4909 67.8379 85.762 69.065C86.8624 70.1615 87.7358 71.4641 88.3323 72.8984C88.9288 74.3326 89.2367 75.8704 89.2383 77.4238C89.24 78.9772 88.9354 80.5156 88.342 81.9512C87.7486 83.3868 86.878 84.6912 85.78 85.79Z" fill="#EF9F9C" stroke="white"/>
<path d="M82.6431 72.2021C81.6094 71.1685 80.2925 70.4647 78.8588 70.1796C77.4251 69.8944 75.939 70.0408 74.5885 70.6003C73.238 71.1597 72.0838 72.107 71.2717 73.3224C70.4596 74.5379 70.0261 75.9668 70.0261 77.4286C70.0261 78.8904 70.4596 80.3193 71.2717 81.5347C72.0838 82.7502 73.238 83.6975 74.5885 84.2569C75.939 84.8164 77.4251 84.9628 78.8588 84.6776C80.2925 84.3925 81.6094 83.6887 82.6431 82.6551C84.0271 81.2678 84.8044 79.3882 84.8044 77.4286C84.8044 75.469 84.0271 73.5894 82.6431 72.2021ZM80.5521 80.5641C79.7074 81.371 78.5842 81.8213 77.4161 81.8213C76.2479 81.8213 75.1248 81.371 74.2801 80.5641C73.4491 79.732 72.9824 78.6041 72.9824 77.4281C72.9824 76.2521 73.4491 75.1242 74.2801 74.2921C75.1239 73.4836 76.2474 73.0323 77.4161 73.0323C78.5847 73.0323 79.7082 73.4836 80.5521 74.2921C81.3832 75.1241 81.8501 76.2519 81.8503 77.4279C81.8505 78.6039 81.3839 79.7318 80.5531 80.5641H80.5521Z" fill="#EF9F9C" stroke="white"/>
<path d="M46.3882 44.3098L44.298 46.4L46.3882 48.4902L48.4784 46.4L46.3882 44.3098Z" fill="#EF9F9C" stroke="white"/>
<path d="M50.5782 48.4828L48.488 50.573L50.5782 52.6632L52.6685 50.573L50.5782 48.4828Z" fill="#EF9F9C" stroke="white" stroke-width="0.999849"/>
<path d="M42.2202 40.1158L40.13 42.2061L42.2202 44.2963L44.3104 42.2061L42.2202 40.1158Z" fill="#EF9F9C" stroke="white"/>
</g>
<defs>
<clipPath id="clip0">
<rect width="92.693" height="92.651" fill="white"/>
</clipPath>
</defs>
</svg>
