<svg width="98" height="98" viewBox="0 0 98 98" fill="none" xmlns="http://www.w3.org/2000/svg">
<g clip-path="url(#clip0)">
<path d="M22.459 18.234C22.7375 18.234 23.0097 18.1514 23.2412 17.9967C23.4728 17.842 23.6533 17.6221 23.7598 17.3648C23.8664 17.1075 23.8943 16.8244 23.8399 16.5513C23.7856 16.2782 23.6515 16.0273 23.4546 15.8304C23.2577 15.6335 23.0068 15.4994 22.7337 15.4451C22.4606 15.3907 22.1775 15.4186 21.9202 15.5252C21.6629 15.6317 21.443 15.8122 21.2883 16.0438C21.1336 16.2753 21.051 16.5475 21.051 16.826C21.051 17.1994 21.1993 17.5576 21.4634 17.8216C21.7274 18.0857 22.0856 18.234 22.459 18.234ZM11.196 18.234C11.4745 18.234 11.7467 18.1514 11.9782 17.9967C12.2098 17.842 12.3903 17.6221 12.4968 17.3648C12.6034 17.1075 12.6313 16.8244 12.5769 16.5513C12.5226 16.2782 12.3885 16.0273 12.1916 15.8304C11.9947 15.6335 11.7438 15.4994 11.4707 15.4451C11.1976 15.3907 10.9145 15.4186 10.6572 15.5252C10.3999 15.6317 10.18 15.8122 10.0253 16.0438C9.87058 16.2753 9.788 16.5475 9.788 16.826C9.788 17.0112 9.82455 17.1947 9.89556 17.3657C9.96657 17.5368 10.0706 17.6922 10.2018 17.823C10.333 17.9538 10.4887 18.0575 10.66 18.128C10.8312 18.1985 11.0148 18.2345 11.2 18.234H11.196ZM16.828 18.234C17.1065 18.234 17.3787 18.1514 17.6102 17.9967C17.8418 17.842 18.0223 17.6221 18.1288 17.3648C18.2354 17.1075 18.2633 16.8244 18.2089 16.5513C18.1546 16.2782 18.0205 16.0273 17.8236 15.8304C17.6267 15.6335 17.3758 15.4994 17.1027 15.4451C16.8296 15.3907 16.5465 15.4186 16.2892 15.5252C16.0319 15.6317 15.812 15.8122 15.6573 16.0438C15.5026 16.2753 15.42 16.5475 15.42 16.826C15.42 17.1993 15.5682 17.5572 15.832 17.8213C16.0959 18.0853 16.4537 18.2337 16.827 18.234H16.828ZM16.518 33.15H16.544H29.273C29.6953 33.1498 30.1058 33.0109 30.4414 32.7546C30.777 32.4983 31.0192 32.1389 31.1306 31.7316C31.2421 31.3243 31.2167 30.8917 31.0583 30.5002C30.8999 30.1088 30.6173 29.7802 30.254 29.565L28.318 28.42C30.2279 26.5279 31.6409 24.1934 32.4317 21.6239C33.2225 19.0544 33.3665 16.3293 32.851 13.6908C32.3356 11.0522 31.1765 8.58176 29.4767 6.49883C27.777 4.41589 25.5892 2.78491 23.1076 1.75073C20.626 0.716546 17.9275 0.311161 15.2516 0.570574C12.5757 0.829986 10.0052 1.74617 7.76853 3.23776C5.53181 4.72935 3.69803 6.7502 2.43004 9.12084C1.16205 11.4915 0.499077 14.1386 0.500001 16.827C0.543922 21.0901 2.23627 25.1708 5.22236 28.2137C8.20844 31.2567 12.2565 33.0257 16.518 33.15ZM7.343 7.2C8.6156 5.93797 10.1282 4.94378 11.7915 4.27616C13.4548 3.60854 15.235 3.28104 17.027 3.313C19.7606 3.35305 22.4177 4.22149 24.6473 5.80359C26.8769 7.38568 28.574 9.60698 29.5145 12.174C30.455 14.741 30.5945 17.533 29.9147 20.181C29.2349 22.829 27.7677 25.2085 25.707 27.005C25.4614 27.2184 25.27 27.4871 25.1485 27.7889C25.027 28.0908 24.9789 28.4172 25.0082 28.7412C25.0375 29.0653 25.1433 29.3777 25.317 29.6529C25.4906 29.9281 25.7271 30.1581 26.007 30.324L26.021 30.332H16.555C13.8977 30.2791 11.3151 29.4436 9.13034 27.9301C6.94559 26.4166 5.2558 24.2923 4.27247 21.8231C3.28915 19.3539 3.05597 16.6495 3.60214 14.0484C4.14831 11.4473 5.44956 9.06514 7.343 7.2ZM95.207 93.8H93.8V72.832C93.7977 70.1382 93.0136 67.5029 91.543 65.2459C90.0723 62.989 87.9783 61.2073 85.515 60.117L78.095 56.937C79.9136 56.3638 81.5542 55.3324 82.859 53.942C84.8698 51.7954 85.9953 48.9683 86.01 46.027C86.0078 43.3546 85.0502 40.7711 83.31 38.743C81.1013 36.1175 79.8895 32.797 79.888 29.366V22.62C79.888 16.7533 77.5575 11.1268 73.4091 6.97845C69.2607 2.83005 63.6342 0.499502 57.7675 0.499502C51.9008 0.499502 46.2743 2.83005 42.1259 6.97845C37.9775 11.1268 35.647 16.7533 35.647 22.62V29.147C35.5905 32.6922 34.2977 36.1064 31.992 38.8C30.7935 40.2453 29.9705 41.9643 29.5962 43.8042C29.2219 45.6442 29.3078 47.5481 29.8464 49.3468C30.3849 51.1455 31.3594 52.7834 32.6833 54.1148C34.0071 55.4463 35.6394 56.4302 37.435 56.979L30.067 60.179C27.5414 61.2375 25.3857 63.0198 23.8713 65.3013C22.3569 67.5829 21.5516 70.2616 21.557 73V89.575C21.557 89.9484 21.7053 90.3066 21.9694 90.5706C22.2334 90.8347 22.5916 90.983 22.965 90.983C23.3384 90.983 23.6966 90.8347 23.9606 90.5706C24.2247 90.3066 24.373 89.9484 24.373 89.575V73C24.3706 70.8149 25.0151 68.678 26.2252 66.8586C27.4353 65.0391 29.1569 63.6186 31.173 62.776L40.409 58.76V67.235H36.167C35.5748 67.2349 34.9891 67.3594 34.4481 67.6004C33.9071 67.8414 33.4228 68.1934 33.0267 68.6337C32.6307 69.0741 32.3316 69.5928 32.1491 70.1562C31.9665 70.7196 31.9045 71.3151 31.967 71.904L34.288 93.8H1.908C1.53458 93.8 1.17645 93.9483 0.912395 94.2124C0.648343 94.4764 0.500001 94.8346 0.500001 95.208C0.500001 95.5814 0.648343 95.9396 0.912395 96.2036C1.17645 96.4677 1.53458 96.616 1.908 96.616H95.208C95.5814 96.616 95.9396 96.4677 96.2036 96.2036C96.4677 95.9396 96.616 95.5814 96.616 95.208C96.616 94.8346 96.4677 94.4764 96.2036 94.2124C95.9396 93.9483 95.5814 93.8 95.208 93.8H95.207ZM81.158 40.556C82.4671 42.0786 83.1888 44.019 83.193 46.027C83.1809 48.251 82.329 50.3884 80.808 52.011C80.011 52.8552 79.0482 53.5257 77.9799 53.9803C76.9116 54.4349 75.7609 54.664 74.6 54.653H72.766L70.356 53.62C69.3314 53.1811 68.4386 52.4831 67.7653 51.5948C67.0921 50.7064 66.6615 49.6581 66.516 48.553C68.7212 47.3684 70.5644 45.6086 71.8497 43.4605C73.1351 41.3124 73.8145 38.8563 73.816 36.353V25.769C74.228 25.797 74.64 25.812 75.05 25.812C75.7253 25.8121 76.4 25.774 77.071 25.698V29.367C77.0731 33.4612 78.5189 37.4235 81.154 40.557L81.158 40.556ZM58.111 62.783C53.084 62.8724 48.0705 62.2344 43.226 60.889V57.536L43.633 57.359H43.643L46.155 56.267C47.515 55.676 48.713 54.7667 49.6477 53.6155C50.5825 52.4644 51.2267 51.1054 51.526 49.653C52.7801 50.0184 54.0797 50.2039 55.386 50.204H59.974C61.2851 50.204 62.5896 50.0171 63.848 49.649C64.1572 51.0952 64.8091 52.4461 65.7487 53.5881C66.6884 54.7302 67.8884 55.63 69.248 56.212L71.929 57.361H71.934L72.134 57.446V60.614C67.5814 61.9715 62.865 62.7018 58.115 62.785L58.111 62.783ZM72.13 63.544V67.237H43.23V63.8C47.79 64.9959 52.4848 65.6008 57.199 65.6C57.521 65.6 57.843 65.5973 58.165 65.592C62.8886 65.5108 67.5822 64.8222 72.13 63.543V63.544ZM77.075 22.859C73.0944 23.3906 69.0619 22.3705 65.813 20.01C65.6668 19.8967 65.4998 19.8134 65.3214 19.7647C65.143 19.716 64.9568 19.7029 64.7734 19.7261C64.5899 19.7494 64.4129 19.8085 64.2523 19.9002C64.0917 19.9919 63.9508 20.1143 63.8375 20.2605C63.7242 20.4067 63.6409 20.5737 63.5922 20.7521C63.5434 20.9305 63.5303 21.1167 63.5536 21.3001C63.5769 21.4836 63.636 21.6606 63.7277 21.8212C63.8194 21.9818 63.9418 22.1227 64.088 22.236C66.1259 23.7907 68.4887 24.8648 71 25.378V33.043C70.3403 34.6982 69.2626 36.1539 67.872 37.268C67.1596 37.8551 66.3749 38.3485 65.537 38.736C65.1912 38.0587 64.665 37.4899 64.0166 37.0926C63.3681 36.6952 62.6225 36.4846 61.862 36.484H58.562C57.4675 36.484 56.4177 36.9188 55.6438 37.6928C54.8698 38.4667 54.435 39.5165 54.435 40.611C54.435 41.7056 54.8698 42.7553 55.6438 43.5292C56.4177 44.3032 57.4675 44.738 58.562 44.738H61.862C62.7745 44.7369 63.661 44.4338 64.3833 43.8762C65.1055 43.3185 65.623 42.5375 65.855 41.655C67.6306 40.7618 69.2938 39.6611 70.81 38.376C70.3348 40.9049 68.9917 43.1886 67.0125 44.833C65.0333 46.4774 62.5422 47.3793 59.969 47.383H55.385C52.4605 47.3798 49.6568 46.2168 47.5888 44.1489C45.5208 42.0811 44.3574 39.2775 44.354 36.353V25.47C49.1018 24.7338 53.6654 23.0982 57.8 20.651C62.9904 17.5663 67.3767 13.2965 70.6 8.191C72.6688 10.0281 74.3182 12.2886 75.4364 14.8193C76.5547 17.3499 77.1156 20.0915 77.081 22.858L77.075 22.859ZM63.175 40.616C63.1737 40.963 63.035 41.2954 62.7894 41.5405C62.5437 41.7856 62.211 41.9235 61.864 41.924H58.564C58.2162 41.924 57.8826 41.7858 57.6366 41.5399C57.3907 41.2939 57.2525 40.9603 57.2525 40.6125C57.2525 40.2647 57.3907 39.9311 57.6366 39.6851C57.8826 39.4392 58.2162 39.301 58.564 39.301H61.864C62.2108 39.3015 62.5434 39.4393 62.789 39.6842C63.0347 39.929 63.1734 40.2612 63.175 40.608V40.616ZM38.463 22.616C38.4644 19.1351 39.4067 15.7194 41.1902 12.7301C42.9737 9.74085 45.5321 7.28927 48.5946 5.63474C51.6571 3.98022 55.1099 3.18428 58.5877 3.33113C62.0655 3.47799 65.4389 4.56218 68.351 6.469C65.3544 11.2922 61.2431 15.325 56.363 18.228C52.2777 20.645 47.7434 22.206 43.036 22.816H38.465V22.616H38.463ZM33 49.723C32.2991 48.2518 32.0359 46.6101 32.2417 44.9935C32.4476 43.377 33.1138 41.8536 34.161 40.605C36.8929 37.4067 38.4173 33.3519 38.469 29.146V25.632H41.542V36.353C41.5446 38.8575 42.2259 41.3144 43.5134 43.4626C44.8009 45.6108 46.6465 47.37 48.854 48.553C48.7196 49.6658 48.2966 50.7242 47.6268 51.623C46.9571 52.5219 46.0639 53.2299 45.036 53.677L42.801 54.649H40.756C39.126 54.6578 37.5278 54.1978 36.152 53.3237C34.7761 52.4496 33.6806 51.1983 32.996 49.719L33 49.723ZM82.008 71.608L79.656 93.8H37.119L34.767 71.608C34.7463 71.4117 34.767 71.2133 34.8279 71.0255C34.8888 70.8378 34.9885 70.665 35.1205 70.5182C35.2525 70.3715 35.4139 70.2542 35.5942 70.1739C35.7745 70.0936 35.9696 70.052 36.167 70.052H80.608C80.8054 70.052 81.0005 70.0936 81.1808 70.1739C81.3611 70.2542 81.5225 70.3715 81.6545 70.5182C81.7865 70.665 81.8862 70.8378 81.9471 71.0255C82.008 71.2133 82.0287 71.4117 82.008 71.608ZM90.983 93.8H82.483L84.804 71.906C84.8665 71.3171 84.8045 70.7216 84.6219 70.1582C84.4394 69.5948 84.1403 69.0761 83.7442 68.6357C83.3482 68.1954 82.8639 67.8434 82.3229 67.6024C81.7819 67.3614 81.1962 67.2369 80.604 67.237H74.946V58.651L84.388 62.7C86.3497 63.5703 88.0168 64.9909 89.1874 66.7896C90.3579 68.5883 90.9817 70.6879 90.983 72.834V93.8ZM58.383 76.576C57.3249 76.576 56.2905 76.8898 55.4107 77.4776C54.5309 78.0655 53.8452 78.9011 53.4402 79.8786C53.0353 80.8562 52.9294 81.9319 53.1358 82.9697C53.3422 84.0075 53.8518 84.9608 54.6 85.709C55.3482 86.4572 56.3015 86.9668 57.3393 87.1732C58.3771 87.3796 59.4528 87.2737 60.4304 86.8688C61.4079 86.4638 62.2435 85.7781 62.8314 84.8983C63.4192 84.0185 63.733 82.9841 63.733 81.926C63.7317 80.5083 63.1683 79.1489 62.1664 78.1459C61.1645 77.1428 59.8057 76.5779 58.388 76.575L58.383 76.576ZM58.383 84.46C57.8818 84.46 57.3919 84.3114 56.9752 84.0329C56.5585 83.7545 56.2337 83.3587 56.0419 82.8957C55.8501 82.4327 55.7999 81.9232 55.8977 81.4316C55.9955 80.9401 56.2368 80.4886 56.5912 80.1342C56.9456 79.7798 57.3971 79.5385 57.8886 79.4407C58.3802 79.3429 58.8897 79.3931 59.3527 79.5849C59.8157 79.7767 60.2115 80.1015 60.4899 80.5182C60.7684 80.9349 60.917 81.4248 60.917 81.926C60.9159 82.5968 60.6493 83.2398 60.1754 83.7145C59.7014 84.1892 59.0588 84.4569 58.388 84.459L58.383 84.46Z" fill="#EF9F9C" stroke="white"/>
</g>
<defs>
<clipPath id="clip0">
<rect width="97.115" height="97.115" fill="white"/>
</clipPath>
</defs>
</svg>
