<svg width="120" height="77" viewBox="0 0 120 77" fill="none" xmlns="http://www.w3.org/2000/svg">
<g clip-path="url(#clip0)">
<path d="M110.656 32.338L107.591 20.08C108.006 19.9916 108.378 19.7634 108.645 19.4336C108.912 19.1038 109.058 18.6923 109.058 18.268V16.288C109.056 14.2248 108.235 12.2468 106.776 10.7879C105.317 9.32901 103.339 8.50836 101.276 8.50598H87.317V4.42898C87.3157 3.41387 86.9118 2.44072 86.194 1.72293C85.4762 1.00514 84.5031 0.601299 83.488 0.599976H12.335C11.3199 0.601299 10.3467 1.00514 9.62893 1.72293C8.91113 2.44072 8.5073 3.41387 8.50598 4.42898V38.029C8.50598 38.5204 8.7012 38.9917 9.04871 39.3392C9.39621 39.6868 9.86753 39.882 10.359 39.882C10.8504 39.882 11.3217 39.6868 11.6692 39.3392C12.0167 38.9917 12.212 38.5204 12.212 38.029V4.42898C12.212 4.39636 12.2249 4.36507 12.248 4.342C12.2711 4.31894 12.3024 4.30598 12.335 4.30598H83.487C83.5196 4.30598 83.5509 4.31894 83.574 4.342C83.597 4.36507 83.61 4.39636 83.61 4.42898V38.029C83.61 38.5204 83.8052 38.9917 84.1527 39.3392C84.5002 39.6868 84.9715 39.882 85.463 39.882C85.9544 39.882 86.4257 39.6868 86.7732 39.3392C87.1208 38.9917 87.316 38.5204 87.316 38.029V35.929H109.184C110.464 35.9315 111.711 36.3391 112.745 37.0936C113.78 37.8481 114.549 38.9106 114.942 40.129H109.18C108.689 40.129 108.217 40.3242 107.87 40.6717C107.522 41.0192 107.327 41.4905 107.327 41.982V45.938C107.329 47.4773 107.941 48.9532 109.029 50.0417C110.118 51.1302 111.594 51.7424 113.133 51.744H115.233V59.897H110.388C109.592 57.5895 108.095 55.5878 106.107 54.171C104.119 52.7542 101.739 51.9927 99.298 51.9927C96.8569 51.9927 94.4766 52.7542 92.4887 54.171C90.5008 55.5878 89.0044 57.5895 88.208 59.897H87.316V45.938C87.316 45.4465 87.1208 44.9752 86.7732 44.6277C86.4257 44.2802 85.9544 44.085 85.463 44.085C84.9715 44.085 84.5002 44.2802 84.1527 44.6277C83.8052 44.9752 83.61 45.4465 83.61 45.938V59.896H45.166C44.3695 57.5885 42.8731 55.5868 40.8853 54.17C38.8974 52.7532 36.5171 51.9917 34.076 51.9917C31.6349 51.9917 29.2546 52.7532 27.2667 54.17C25.2788 55.5868 23.7824 57.5885 22.986 59.896H12.335C12.3024 59.896 12.2711 59.883 12.248 59.86C12.2249 59.8369 12.212 59.8056 12.212 59.773V55.697H20.241C20.7324 55.697 21.2037 55.5018 21.5512 55.1543C21.8988 54.8067 22.094 54.3354 22.094 53.844C22.094 53.3525 21.8988 52.8812 21.5512 52.5337C21.2037 52.1862 20.7324 51.991 20.241 51.991H2.45298C1.96153 51.991 1.49021 52.1862 1.14271 52.5337C0.795202 52.8812 0.599976 53.3525 0.599976 53.844C0.599976 54.3354 0.795202 54.8067 1.14271 55.1543C1.49021 55.5018 1.96153 55.697 2.45298 55.697H8.50598V59.773C8.5073 60.7881 8.91113 61.7612 9.62893 62.479C10.3467 63.1968 11.3199 63.6007 12.335 63.602H22.344C22.344 63.643 22.344 63.684 22.344 63.725C22.344 66.8373 23.5803 69.8221 25.7811 72.0229C27.9818 74.2236 30.9667 75.46 34.079 75.46C37.1913 75.46 40.1761 74.2236 42.3769 72.0229C44.5776 69.8221 45.814 66.8373 45.814 63.725C45.814 63.683 45.814 63.643 45.814 63.602H87.567C87.567 63.643 87.567 63.684 87.567 63.725C87.567 66.8373 88.8033 69.8221 91.0041 72.0229C93.2048 74.2236 96.1897 75.46 99.302 75.46C102.414 75.46 105.399 74.2236 107.6 72.0229C109.801 69.8221 111.037 66.8373 111.037 63.725C111.037 63.683 111.037 63.643 111.037 63.602H117.093C117.584 63.602 118.056 63.4068 118.403 63.0592C118.751 62.7117 118.946 62.2404 118.946 61.749V41.982C118.942 39.6497 118.104 37.3957 116.584 35.6271C115.064 33.8585 112.961 32.6919 110.656 32.338ZM87.317 12.212H101.276C102.357 12.2133 103.393 12.6432 104.157 13.4073C104.921 14.1714 105.351 15.2074 105.352 16.288V16.411H87.317V12.212ZM87.317 32.223V20.118H103.782L106.808 32.224L87.317 32.223ZM34.076 71.752C32.488 71.752 30.9357 71.2811 29.6153 70.3988C28.2949 69.5166 27.2658 68.2627 26.6581 66.7955C26.0504 65.3284 25.8914 63.7141 26.2013 62.1566C26.5111 60.5991 27.2757 59.1685 28.3986 58.0456C29.5215 56.9227 30.9521 56.1581 32.5096 55.8483C34.0671 55.5385 35.6814 55.6974 37.1485 56.3051C38.6157 56.9128 39.8696 57.9419 40.7518 59.2623C41.6341 60.5827 42.105 62.135 42.105 63.723C42.1026 65.8517 41.2559 67.8925 39.7507 69.3977C38.2455 70.9029 36.2047 71.7496 34.076 71.752ZM99.299 71.752C97.711 71.752 96.1587 71.2811 94.8383 70.3988C93.5179 69.5166 92.4888 68.2627 91.8811 66.7955C91.2735 65.3284 91.1144 63.7141 91.4242 62.1566C91.734 60.5991 92.4987 59.1685 93.6216 58.0456C94.7445 56.9227 96.1751 56.1581 97.7326 55.8483C99.2901 55.5385 100.904 55.6974 102.372 56.3051C103.839 56.9128 105.093 57.9419 105.975 59.2623C106.857 60.5827 107.328 62.135 107.328 63.723C107.326 65.8515 106.479 67.8922 104.974 69.3974C103.469 70.9025 101.428 71.7493 99.3 71.752H99.299ZM115.234 48.038H113.134C112.577 48.038 112.043 47.8167 111.649 47.4229C111.255 47.0291 111.034 46.4949 111.034 45.938V43.838H115.234V48.038Z" fill="#EF9F9C" stroke="white" stroke-width="1.2"/>
<path d="M34.08 59.897C33.3227 59.897 32.5824 60.1215 31.9527 60.5423C31.323 60.963 30.8323 61.561 30.5424 62.2607C30.2526 62.9603 30.1768 63.7302 30.3246 64.473C30.4723 65.2157 30.837 65.898 31.3725 66.4335C31.908 66.969 32.5902 67.3336 33.333 67.4814C34.0757 67.6291 34.8456 67.5533 35.5453 67.2635C36.2449 66.9737 36.8429 66.4829 37.2637 65.8532C37.6844 65.2236 37.909 64.4833 37.909 63.726C37.9077 62.7108 37.5038 61.7377 36.786 61.0199C36.0682 60.3021 35.0951 59.8983 34.08 59.897Z" fill="#EF9F9C" stroke="white" stroke-width="1.2"/>
<path d="M99.299 59.897C98.5417 59.897 97.8014 60.1215 97.1717 60.5423C96.542 60.963 96.0512 61.561 95.7614 62.2607C95.4716 62.9603 95.3958 63.7302 95.5435 64.473C95.6913 65.2157 96.056 65.898 96.5915 66.4335C97.127 66.969 97.8092 67.3336 98.552 67.4814C99.2947 67.6291 100.065 67.5533 100.764 67.2635C101.464 66.9737 102.062 66.4829 102.483 65.8532C102.903 65.2236 103.128 64.4833 103.128 63.726C103.127 62.7108 102.723 61.7377 102.005 61.0199C101.287 60.3021 100.314 59.8983 99.299 59.897Z" fill="#EF9F9C" stroke="white" stroke-width="1.2"/>
<path d="M77.558 51.988H49.888C49.3965 51.988 48.9252 52.1833 48.5777 52.5308C48.2302 52.8783 48.035 53.3496 48.035 53.841C48.035 54.3325 48.2302 54.8038 48.5777 55.1513C48.9252 55.4988 49.3965 55.694 49.888 55.694H77.558C78.0494 55.694 78.5207 55.4988 78.8682 55.1513C79.2157 54.8038 79.411 54.3325 79.411 53.841C79.411 53.3496 79.2157 52.8783 78.8682 52.5308C78.5207 52.1833 78.0494 51.988 77.558 51.988Z" fill="#EF9F9C" stroke="white" stroke-width="1.2"/>
<path d="M30.123 44.082H6.40598C5.91453 44.082 5.44322 44.2773 5.09571 44.6248C4.74821 44.9723 4.55298 45.4436 4.55298 45.935C4.55298 46.4265 4.74821 46.8978 5.09571 47.2453C5.44322 47.5928 5.91453 47.7881 6.40598 47.7881H30.123C30.6144 47.7881 31.0857 47.5928 31.4332 47.2453C31.7808 46.8978 31.976 46.4265 31.976 45.935C31.976 45.4436 31.7808 44.9723 31.4332 44.6248C31.0857 44.2773 30.6144 44.082 30.123 44.082Z" fill="#EF9F9C" stroke="white" stroke-width="1.2"/>
<path d="M65.03 18.9299C64.6825 18.5826 64.2113 18.3875 63.72 18.3875C63.2286 18.3875 62.7574 18.5826 62.41 18.9299L45.93 35.4079L37.358 26.8359C37.0082 26.5 36.5406 26.3146 36.0557 26.3195C35.5708 26.3245 35.1071 26.5193 34.7642 26.8622C34.4213 27.2051 34.2265 27.6688 34.2216 28.1537C34.2167 28.6386 34.4021 29.1061 34.738 29.4559L44.62 39.3379C44.9674 39.6853 45.4387 39.8804 45.93 39.8804C46.4213 39.8804 46.8925 39.6853 47.24 39.3379L65.03 21.5509C65.2021 21.3788 65.3386 21.1745 65.4318 20.9497C65.525 20.7248 65.5729 20.4838 65.5729 20.2404C65.5729 19.997 65.525 19.756 65.4318 19.5311C65.3386 19.3063 65.2021 19.102 65.03 18.9299Z" fill="#EF9F9C" stroke="white" stroke-width="1.2"/>
</g>
<defs>
<clipPath id="clip0">
<rect width="119.54" height="76.058" fill="white"/>
</clipPath>
</defs>
</svg>
