<svg width="149" height="86" viewBox="0 0 149 86" fill="none" xmlns="http://www.w3.org/2000/svg">
<g clip-path="url(#clip0)">
<path d="M30.906 31.019H66.488C66.8223 31.0185 67.1428 30.8853 67.3791 30.6487C67.6153 30.412 67.748 30.0913 67.748 29.757V24.836C67.748 24.5018 67.6152 24.1813 67.379 23.945C67.1427 23.7087 66.8222 23.576 66.488 23.576H58.108V1.75998C58.108 1.42581 57.9752 1.10531 57.739 0.869019C57.5027 0.632723 57.1822 0.5 56.848 0.5H41.14C40.8058 0.5 40.4853 0.632723 40.249 0.869019C40.0127 1.10531 39.88 1.42581 39.88 1.75998V23.575H30.906C30.5718 23.575 30.2513 23.7077 30.015 23.944C29.7787 24.1803 29.646 24.5008 29.646 24.835V29.756C29.6457 30.0905 29.7783 30.4115 30.0146 30.6483C30.2508 30.8851 30.5715 31.0185 30.906 31.019ZM42.4 3.01898H55.589V23.574H42.401L42.4 3.01898ZM32.167 26.099H41.073C41.095 26.099 41.116 26.113 41.14 26.113H56.848C56.873 26.113 56.893 26.1 56.917 26.099H65.228V28.499H32.167V26.099Z" fill="#EF9F9C" stroke="white"/>
<path d="M146.708 1.43298H108.289C107.955 1.43325 107.635 1.5661 107.398 1.80234C107.162 2.03858 107.029 2.3589 107.029 2.69299V42.693C61.319 42.465 1.761 42.693 1.761 42.693C1.42665 42.6935 1.10617 42.8267 0.869934 43.0633C0.633696 43.2999 0.501007 43.6206 0.501007 43.955V83.89C0.501007 84.2242 0.63376 84.5446 0.870056 84.7809C1.10635 85.0172 1.42683 85.15 1.761 85.15H107.666C107.853 85.2683 108.068 85.3336 108.289 85.339H146.708C147.042 85.3385 147.363 85.2053 147.599 84.9687C147.835 84.732 147.968 84.4114 147.968 84.077V2.69299C147.968 2.3589 147.835 2.03858 147.599 1.80234C147.362 1.5661 147.042 1.43325 146.708 1.43298ZM145.448 3.95398V27.683H109.548V3.95398H145.448ZM106.866 63.889H66.966V45.213H106.866V63.889ZM64.44 53.666H32.92V45.211H64.44V53.666ZM32.92 56.188H64.44V82.626H32.92V56.188ZM3.02 45.21H30.403V82.626H3.02101L3.02 45.21ZM66.964 82.623V66.411H106.864V82.626L66.964 82.623ZM109.548 82.812V30.202H145.448V82.812H109.548Z" fill="#EF9F9C" stroke="white"/>
<path d="M26.743 58.21C26.4087 58.2105 26.0882 58.3437 25.8519 58.5803C25.6157 58.8169 25.483 59.1376 25.483 59.472V69.314C25.483 69.6483 25.6158 69.9689 25.8522 70.2053C26.0886 70.4417 26.4092 70.5745 26.7435 70.5745C27.0778 70.5745 27.3984 70.4417 27.6348 70.2053C27.8712 69.9689 28.004 69.6483 28.004 69.314V59.472C28.004 59.1374 27.8712 58.8166 27.6347 58.58C27.3983 58.3433 27.0775 58.2102 26.743 58.21Z" fill="#EF9F9C" stroke="white"/>
<path d="M79.734 55.878H92.793C93.1275 55.878 93.4482 55.7451 93.6847 55.5086C93.9212 55.2721 94.054 54.9514 94.054 54.6169C94.054 54.2825 93.9212 53.9618 93.6847 53.7253C93.4482 53.4888 93.1275 53.356 92.793 53.356H79.734C79.3996 53.356 79.0788 53.4888 78.8423 53.7253C78.6059 53.9618 78.473 54.2825 78.473 54.6169C78.473 54.9514 78.6059 55.2721 78.8423 55.5086C79.0788 55.7451 79.3996 55.878 79.734 55.878Z" fill="#EF9F9C" stroke="white"/>
<path d="M93.161 73.0859H80.102C79.7677 73.0859 79.4471 73.2187 79.2107 73.4551C78.9743 73.6915 78.8415 74.0121 78.8415 74.3464C78.8415 74.6807 78.9743 75.0014 79.2107 75.2378C79.4471 75.4742 79.7677 75.6069 80.102 75.6069H93.161C93.4953 75.6069 93.8159 75.4742 94.0523 75.2378C94.2887 75.0014 94.4215 74.6807 94.4215 74.3464C94.4215 74.0121 94.2887 73.6915 94.0523 73.4551C93.8159 73.2187 93.4953 73.0859 93.161 73.0859Z" fill="#EF9F9C" stroke="white"/>
<path d="M58.781 59.686H37.963C37.6286 59.6866 37.3082 59.8198 37.0719 60.0564C36.8357 60.293 36.703 60.6137 36.703 60.9481V75.33C36.703 75.6642 36.8358 75.9847 37.0721 76.221C37.3083 76.4573 37.6288 76.5901 37.963 76.5901H58.781C59.1152 76.5901 59.4357 76.4573 59.672 76.221C59.9082 75.9847 60.041 75.6642 60.041 75.33V60.9481C60.041 60.6137 59.9083 60.293 59.6721 60.0564C59.4358 59.8198 59.1154 59.6866 58.781 59.686ZM57.521 74.069H39.221V62.208H57.521V74.069Z" fill="#EF9F9C" stroke="white"/>
<path d="M115.762 23.566C116.096 23.566 116.417 23.4332 116.653 23.1969C116.889 22.9606 117.022 22.6401 117.022 22.306V11.897C117.022 11.5627 116.889 11.242 116.653 11.0056C116.416 10.7693 116.096 10.6365 115.762 10.6365C115.427 10.6365 115.107 10.7693 114.87 11.0056C114.634 11.242 114.501 11.5627 114.501 11.897V22.306C114.501 22.4715 114.534 22.6355 114.597 22.7884C114.66 22.9413 114.753 23.0803 114.87 23.1973C114.988 23.3143 115.127 23.4071 115.28 23.4703C115.433 23.5336 115.596 23.5661 115.762 23.566Z" fill="#EF9F9C" stroke="white"/>
<path d="M115.194 35.605C114.86 35.605 114.539 35.7377 114.303 35.974C114.067 36.2103 113.934 36.5308 113.934 36.865V47.275C113.934 47.6093 114.067 47.9299 114.303 48.1663C114.54 48.4027 114.86 48.5355 115.195 48.5355C115.529 48.5355 115.849 48.4027 116.086 48.1663C116.322 47.9299 116.455 47.6093 116.455 47.275V36.865C116.455 36.6994 116.422 36.5355 116.359 36.3826C116.296 36.2296 116.203 36.0907 116.086 35.9737C115.969 35.8566 115.829 35.7639 115.676 35.7006C115.524 35.6373 115.36 35.6048 115.194 35.605Z" fill="#EF9F9C" stroke="white"/>
</g>
<defs>
<clipPath id="clip0">
<rect width="148.469" height="85.836" fill="white"/>
</clipPath>
</defs>
</svg>
