<svg width="15" height="9" viewBox="0 0 15 9" fill="none" xmlns="http://www.w3.org/2000/svg">
<path d="M13.7788 0.638999L7.4148 7.004L1.0508 0.638999C0.993411 0.589851 0.919588 0.564169 0.844085 0.567086C0.768582 0.570002 0.696961 0.601302 0.643532 0.65473C0.590104 0.708158 0.558804 0.77978 0.555888 0.855283C0.552971 0.930786 0.578653 1.00461 0.627801 1.062L7.2038 7.638C7.26001 7.69387 7.33605 7.72524 7.4153 7.72524C7.49456 7.72524 7.57059 7.69387 7.6268 7.638L14.2018 1.062C14.2342 1.03587 14.2609 1.00326 14.28 0.966266C14.2992 0.92927 14.3104 0.888692 14.313 0.847117C14.3156 0.805541 14.3095 0.76388 14.2951 0.724786C14.2808 0.685692 14.2584 0.650022 14.2295 0.620048C14.2005 0.590074 14.1657 0.566453 14.1271 0.55069C14.0886 0.534927 14.0471 0.527366 14.0055 0.528491C13.9639 0.529615 13.9229 0.539399 13.8853 0.55722C13.8476 0.575041 13.8141 0.600508 13.7868 0.631999L13.7798 0.638999H13.7788Z" stroke="black"/>
</svg>
