<svg width="18" height="18" viewBox="0 0 18 18" fill="none" xmlns="http://www.w3.org/2000/svg">
<g clip-path="url(#clip0)">
<path d="M8.67204 4.178C7.8018 4.178 6.95111 4.43605 6.22753 4.91953C5.50396 5.40301 4.94 6.0902 4.60697 6.89419C4.27395 7.69819 4.18681 8.58288 4.35659 9.4364C4.52636 10.2899 4.94542 11.0739 5.56077 11.6893C6.17612 12.3046 6.96013 12.7237 7.81364 12.8935C8.66716 13.0632 9.55185 12.9761 10.3558 12.6431C11.1598 12.31 11.847 11.7461 12.3305 11.0225C12.814 10.2989 13.072 9.44824 13.072 8.578C13.0732 7.99985 12.9602 7.42716 12.7395 6.89279C12.5188 6.35842 12.1948 5.8729 11.786 5.46408C11.3771 5.05527 10.8916 4.73121 10.3573 4.51051C9.82288 4.28981 9.25019 4.17681 8.67204 4.178ZM8.67204 11.435C8.10658 11.435 7.55383 11.2673 7.08367 10.9532C6.61351 10.639 6.24706 10.1925 6.03067 9.67009C5.81428 9.14768 5.75766 8.57283 5.86798 8.01824C5.97829 7.46364 6.25058 6.95422 6.65042 6.55438C7.05026 6.15454 7.55969 5.88225 8.11428 5.77193C8.66887 5.66162 9.24372 5.71824 9.76613 5.93463C10.2885 6.15102 10.7351 6.51746 11.0492 6.98762C11.3634 7.45778 11.531 8.01054 11.531 8.576C11.5297 9.33385 11.2281 10.0603 10.6922 10.5962C10.1563 11.132 9.42989 11.4337 8.67204 11.435ZM14.272 3.998C14.272 4.20092 14.2119 4.39929 14.0991 4.56801C13.9864 4.73674 13.8262 4.86824 13.6387 4.9459C13.4512 5.02355 13.2449 5.04387 13.0459 5.00428C12.8469 4.9647 12.664 4.86698 12.5205 4.72349C12.3771 4.58 12.2793 4.39719 12.2398 4.19816C12.2002 3.99914 12.2205 3.79284 12.2981 3.60537C12.3758 3.41789 12.5073 3.25765 12.676 3.14491C12.8448 3.03217 13.0431 2.972 13.246 2.972C13.3813 2.97107 13.5154 2.99698 13.6406 3.04823C13.7658 3.09947 13.8796 3.17504 13.9754 3.27055C14.0712 3.36606 14.1471 3.47962 14.1987 3.60466C14.2503 3.7297 14.2766 3.86373 14.276 3.999L14.272 3.998ZM17.185 5.039C17.2132 3.70543 16.7153 2.41436 15.799 1.445C14.8282 0.533932 13.5402 0.0377274 12.209 0.0619989C10.793 -0.0180011 6.54804 -0.0180011 5.13204 0.0619989C3.79976 0.0348028 2.50975 0.530133 1.53804 1.442C0.623345 2.41235 0.125713 3.70275 0.152041 5.036C0.072041 6.452 0.072041 10.697 0.152041 12.113C0.12388 13.4466 0.621771 14.7376 1.53804 15.707C2.50972 16.6196 3.79922 17.1169 5.13204 17.093C6.54804 17.173 10.793 17.173 12.209 17.093C13.5426 17.1212 14.8337 16.6233 15.803 15.707C16.7162 14.7357 17.2136 13.4459 17.189 12.113C17.269 10.697 17.269 6.456 17.189 5.04L17.185 5.039ZM15.355 13.632C15.2097 14.0003 14.9904 14.3349 14.7107 14.6153C14.4311 14.8956 14.097 15.1157 13.729 15.262C12.6 15.71 9.92104 15.606 8.67304 15.606C7.42504 15.606 4.74204 15.706 3.61704 15.262C3.24807 15.1162 2.91295 14.8962 2.63241 14.6156C2.35187 14.3351 2.13188 14 1.98604 13.631C1.53804 12.502 1.64204 9.823 1.64204 8.575C1.64204 7.327 1.54204 4.644 1.98604 3.519C2.13199 3.15049 2.35193 2.81582 2.63229 2.53564C2.91264 2.25546 3.24745 2.03572 3.61604 1.89C4.74504 1.442 7.42404 1.546 8.67204 1.546C9.92004 1.546 12.603 1.446 13.728 1.89C14.097 2.03583 14.4321 2.25583 14.7127 2.53637C14.9932 2.81691 15.2132 3.15203 15.359 3.521C15.807 4.65 15.703 7.329 15.703 8.577C15.703 9.825 15.807 12.507 15.359 13.633L15.355 13.632Z" fill="black"/>
</g>
<defs>
<clipPath id="clip0">
<rect width="17.157" height="17.153" fill="white" transform="translate(0.092041)"/>
</clipPath>
</defs>
</svg>
