<svg width="81" height="82" viewBox="0 0 81 82" fill="none" xmlns="http://www.w3.org/2000/svg">
<g clip-path="url(#clip0)">
<path d="M62.1619 37.7871L37.7279 62.2211C37.4051 62.545 37.1853 62.9573 37.0964 63.4059C37.0075 63.8546 37.0535 64.3195 37.2284 64.7421C37.4034 65.1647 37.6996 65.526 38.0796 65.7805C38.4597 66.035 38.9066 66.1712 39.3639 66.1721H63.7989C64.1028 66.1721 64.4037 66.1122 64.6845 65.9959C64.9652 65.8797 65.2203 65.7092 65.4352 65.4943C65.6501 65.2795 65.8205 65.0244 65.9368 64.7436C66.0531 64.4629 66.1129 64.162 66.1129 63.8581V39.4231C66.1116 38.9659 65.9751 38.5194 65.7205 38.1396C65.466 37.7599 65.1048 37.464 64.6824 37.2891C64.26 37.1142 63.7953 37.0681 63.3468 37.1567C62.8983 37.2454 62.4861 37.4647 62.1619 37.7871ZM61.4839 61.5431H44.9519L61.4849 45.0111L61.4839 61.5431Z" fill="#EF9F9C" stroke="white" stroke-width="2"/>
<path d="M76.0491 4.26108L4.20206 76.1071C3.87911 76.4311 3.65934 76.8435 3.57048 77.2922C3.48162 77.741 3.52765 78.206 3.70275 78.6286C3.87785 79.0512 4.17419 79.4125 4.55438 79.6669C4.93458 79.9213 5.3816 80.0574 5.83906 80.0581H77.6851C78.2987 80.0578 78.8871 79.8139 79.321 79.38C79.7549 78.9461 79.9988 78.3577 79.9991 77.7441V5.89708C79.9977 5.43992 79.8612 4.99337 79.6066 4.61363C79.3521 4.2339 78.9909 3.93796 78.5685 3.76306C78.1461 3.58816 77.6814 3.54212 77.2329 3.63074C76.7844 3.71936 76.3722 3.93868 76.0481 4.26108H76.0491ZM69.1991 75.4311V73.1151C69.1991 72.5012 68.9552 71.9125 68.5212 71.4785C68.0871 71.0444 67.4984 70.8006 66.8846 70.8006C66.2707 70.8006 65.682 71.0444 65.248 71.4785C64.8139 71.9125 64.5701 72.5012 64.5701 73.1151V75.4311H58.3981V73.1151C58.3981 72.5012 58.1542 71.9125 57.7202 71.4785C57.2861 71.0444 56.6974 70.8006 56.0836 70.8006C55.4697 70.8006 54.881 71.0444 54.447 71.4785C54.0129 71.9125 53.7691 72.5012 53.7691 73.1151V75.4311H47.5981V73.1151C47.5981 72.5012 47.3542 71.9125 46.9202 71.4785C46.4861 71.0444 45.8974 70.8006 45.2836 70.8006C44.6697 70.8006 44.081 71.0444 43.647 71.4785C43.2129 71.9125 42.9691 72.5012 42.9691 73.1151V75.4311H36.7971V73.1151C36.7971 72.5012 36.5532 71.9125 36.1192 71.4785C35.6851 71.0444 35.0964 70.8006 34.4826 70.8006C33.8687 70.8006 33.28 71.0444 32.846 71.4785C32.4119 71.9125 32.1681 72.5012 32.1681 73.1151V75.4311H25.9961V73.1151C25.9961 72.5012 25.7522 71.9125 25.3182 71.4785C24.8841 71.0444 24.2954 70.8006 23.6816 70.8006C23.0677 70.8006 22.479 71.0444 22.045 71.4785C21.6109 71.9125 21.3671 72.5012 21.3671 73.1151V75.4311H11.4261L75.3751 11.4851V21.4261H73.0571C72.4432 21.4261 71.8545 21.6699 71.4205 22.104C70.9864 22.538 70.7426 23.1267 70.7426 23.7406C70.7426 24.3544 70.9864 24.9431 71.4205 25.3772C71.8545 25.8112 72.4432 26.0551 73.0571 26.0551H75.3751V32.2311H73.0571C72.4432 32.2311 71.8545 32.4749 71.4205 32.909C70.9864 33.343 70.7426 33.9317 70.7426 34.5456C70.7426 35.1594 70.9864 35.7481 71.4205 36.1822C71.8545 36.6162 72.4432 36.8601 73.0571 36.8601H75.3751V43.0311H73.0571C72.4432 43.0311 71.8545 43.2749 71.4205 43.709C70.9864 44.143 70.7426 44.7317 70.7426 45.3456C70.7426 45.9594 70.9864 46.5481 71.4205 46.9822C71.8545 47.4162 72.4432 47.6601 73.0571 47.6601H75.3751V53.8311H73.0571C72.4432 53.8311 71.8545 54.0749 71.4205 54.509C70.9864 54.943 70.7426 55.5317 70.7426 56.1456C70.7426 56.7594 70.9864 57.3481 71.4205 57.7822C71.8545 58.2162 72.4432 58.4601 73.0571 58.4601H75.3751V64.6311H73.0571C72.4432 64.6311 71.8545 64.8749 71.4205 65.309C70.9864 65.743 70.7426 66.3317 70.7426 66.9456C70.7426 67.5594 70.9864 68.1481 71.4205 68.5822C71.8545 69.0162 72.4432 69.2601 73.0571 69.2601H75.3751V75.4311H69.1991Z" fill="#EF9F9C" stroke="white" stroke-width="2"/>
<path d="M11.5001 62.152L56.1511 17.502C56.3531 17.3047 56.5196 17.074 56.6431 16.82L62.5481 4.36503C62.753 3.93354 62.8194 3.44921 62.7381 2.9785C62.6569 2.50778 62.4319 2.07376 62.0941 1.73598C61.7564 1.39821 61.3223 1.17325 60.8516 1.09197C60.3809 1.01069 59.8966 1.07708 59.4651 1.28203L47.0121 7.18903C46.773 7.30337 46.555 7.4572 46.3671 7.64403L1.67808 52.333C1.24421 52.7671 1.00049 53.3558 1.00049 53.9695C1.00049 54.5833 1.24421 55.1719 1.67808 55.606L8.22408 62.152C8.43902 62.3674 8.69434 62.5383 8.97541 62.6549C9.25648 62.7715 9.55779 62.8315 9.86208 62.8315C10.1664 62.8315 10.4677 62.7715 10.7488 62.6549C11.0298 62.5383 11.2851 62.3674 11.5001 62.152ZM49.4181 17.685L17.9601 49.143L14.6871 45.87L46.1441 14.413C46.8669 15.8189 48.0118 16.9631 49.4181 17.685ZM52.9291 13.842C52.5365 13.866 52.1433 13.8063 51.7755 13.6669C51.4077 13.5275 51.0737 13.3116 50.7956 13.0335C50.5175 12.7554 50.3016 12.4214 50.1622 12.0536C50.0228 11.6858 49.9631 11.2926 49.9871 10.9L55.5871 8.24503L52.9291 13.842ZM11.4141 49.142L14.6871 52.415L9.86008 57.243L6.58708 53.97L11.4141 49.142Z" fill="#EF9F9C" stroke="white" stroke-width="2"/>
</g>
<defs>
<clipPath id="clip0">
<rect width="81" height="81.058" fill="white"/>
</clipPath>
</defs>
</svg>
