<svg width="148" height="85" viewBox="0 0 148 85" fill="none" xmlns="http://www.w3.org/2000/svg">
<g clip-path="url(#clip0)">
<path d="M30.6978 30.659H66.0404C66.3725 30.6585 66.6908 30.5268 66.9255 30.293C67.1601 30.0591 67.2919 29.7421 67.2919 29.4116V24.5478C67.2919 24.2175 67.1601 23.9007 66.9254 23.6671C66.6907 23.4336 66.3723 23.3024 66.0404 23.3024H57.7168V1.7395C57.7168 1.4092 57.5849 1.09243 57.3502 0.858877C57.1155 0.625323 56.7972 0.494141 56.4653 0.494141H40.863C40.531 0.494141 40.2127 0.625323 39.978 0.858877C39.7433 1.09243 39.6114 1.4092 39.6114 1.7395V23.3014H30.6978C30.3659 23.3014 30.0476 23.4326 29.8129 23.6661C29.5781 23.8997 29.4463 24.2165 29.4463 24.5468V29.4106C29.446 29.7413 29.5777 30.0585 29.8124 30.2926C30.0471 30.5267 30.3655 30.6585 30.6978 30.659ZM42.1145 2.98389H55.2147V23.3004H42.1155L42.1145 2.98389ZM31.9503 25.7961H40.7964C40.8183 25.7961 40.8391 25.8099 40.863 25.8099H56.4653C56.4901 25.8099 56.51 25.7971 56.5338 25.7961H64.7889V28.1682H31.9503V25.7961Z" fill="#EF9F9C" stroke="white"/>
<path d="M145.721 1.41626H107.56C107.228 1.41652 106.91 1.54783 106.676 1.78133C106.441 2.01483 106.309 2.33143 106.309 2.66165V42.1975C60.9063 41.9721 1.74908 42.1975 1.74908 42.1975C1.41697 42.198 1.09865 42.3297 0.864003 42.5635C0.629354 42.7974 0.497558 43.1144 0.497559 43.4449V82.9165C0.497559 83.2468 0.629419 83.5635 0.864124 83.7971C1.09883 84.0306 1.41715 84.1618 1.74908 84.1618H106.941C107.127 84.2787 107.341 84.3433 107.56 84.3487H145.721C146.053 84.3481 146.371 84.2165 146.606 83.9826C146.841 83.7488 146.972 83.4318 146.972 83.1013V2.66165C146.972 2.33143 146.84 2.01483 146.605 1.78133C146.371 1.54783 146.053 1.41652 145.721 1.41626ZM144.469 3.908V27.3617H108.811V3.908H144.469ZM106.147 63.1475H66.5153V44.6883H106.147V63.1475ZM64.0063 53.0432H32.6984V44.6863H64.0063V53.0432ZM32.6984 55.5359H64.0063V81.6671H32.6984V55.5359ZM2.99961 44.6853H30.1984V81.6671H3.00061L2.99961 44.6853ZM66.5134 81.6642V65.6403H106.145V81.6671L66.5134 81.6642ZM108.811 81.851V29.8514H144.469V81.851H108.811Z" fill="#EF9F9C" stroke="white"/>
<path d="M26.563 57.5345C26.2309 57.5351 25.9126 57.6667 25.678 57.9006C25.4433 58.1344 25.3115 58.4514 25.3115 58.7819V68.5097C25.3115 68.8401 25.4434 69.157 25.6782 69.3907C25.913 69.6243 26.2315 69.7556 26.5635 69.7556C26.8956 69.7556 27.214 69.6243 27.4488 69.3907C27.6836 69.157 27.8156 68.8401 27.8156 68.5097V58.7819C27.8156 58.4512 27.6836 58.1341 27.4488 57.9002C27.2139 57.6664 26.8953 57.5348 26.563 57.5345Z" fill="#EF9F9C" stroke="white"/>
<path d="M79.1973 55.2296H92.1685C92.5007 55.2296 92.8193 55.0982 93.0541 54.8645C93.289 54.6307 93.421 54.3137 93.421 53.9832C93.421 53.6526 93.289 53.3356 93.0541 53.1019C92.8193 52.8681 92.5007 52.7368 92.1685 52.7368H79.1973C78.8652 52.7368 78.5466 52.8681 78.3117 53.1019C78.0768 53.3356 77.9448 53.6526 77.9448 53.9832C77.9448 54.3137 78.0768 54.6307 78.3117 54.8645C78.5466 55.0982 78.8652 55.2296 79.1973 55.2296Z" fill="#EF9F9C" stroke="white"/>
<path d="M92.5342 72.2378H79.5631C79.231 72.2378 78.9125 72.3691 78.6777 72.6027C78.4429 72.8364 78.311 73.1532 78.311 73.4837C78.311 73.8141 78.4429 74.131 78.6777 74.3646C78.9125 74.5983 79.231 74.7295 79.5631 74.7295H92.5342C92.8662 74.7295 93.1847 74.5983 93.4195 74.3646C93.6543 74.131 93.7862 73.8141 93.7862 73.4837C93.7862 73.1532 93.6543 72.8364 93.4195 72.6027C93.1847 72.3691 92.8662 72.2378 92.5342 72.2378Z" fill="#EF9F9C" stroke="white"/>
<path d="M58.3855 58.9934H37.7076C37.3755 58.9939 37.0571 59.1256 36.8225 59.3595C36.5879 59.5933 36.4561 59.9103 36.4561 60.2408V74.4559C36.4561 74.7862 36.5879 75.103 36.8226 75.3365C37.0573 75.5701 37.3756 75.7013 37.7076 75.7013H58.3855C58.7174 75.7013 59.0357 75.5701 59.2705 75.3365C59.5052 75.103 59.637 74.7862 59.637 74.4559V60.2408C59.637 59.9103 59.5052 59.5933 59.2706 59.3595C59.0359 59.1256 58.7176 58.9939 58.3855 58.9934ZM57.134 73.2095H38.9571V61.4861H57.134V73.2095Z" fill="#EF9F9C" stroke="white"/>
<path d="M114.983 23.2925C115.315 23.2925 115.633 23.1613 115.868 22.9278C116.103 22.6942 116.234 22.3774 116.234 22.0471V11.7589C116.234 11.4285 116.103 11.1116 115.868 10.8779C115.633 10.6443 115.315 10.5131 114.982 10.5131C114.65 10.5131 114.332 10.6443 114.097 10.8779C113.862 11.1116 113.73 11.4285 113.73 11.7589V22.0471C113.73 22.2108 113.763 22.3728 113.826 22.524C113.889 22.6751 113.981 22.8124 114.097 22.9281C114.214 23.0438 114.352 23.1355 114.504 23.198C114.656 23.2605 114.819 23.2927 114.983 23.2925Z" fill="#EF9F9C" stroke="white"/>
<path d="M114.419 35.1918C114.087 35.1918 113.769 35.323 113.534 35.5565C113.299 35.7901 113.167 36.1068 113.167 36.4371V46.7263C113.167 47.0568 113.299 47.3737 113.534 47.6073C113.769 47.841 114.087 47.9722 114.42 47.9722C114.752 47.9722 115.07 47.841 115.305 47.6073C115.54 47.3737 115.672 47.0568 115.672 46.7263V36.4371C115.672 36.2735 115.639 36.1115 115.576 35.9603C115.513 35.8092 115.421 35.6718 115.305 35.5562C115.188 35.4405 115.05 35.3488 114.898 35.2863C114.746 35.2237 114.583 35.1916 114.419 35.1918Z" fill="#EF9F9C" stroke="white"/>
</g>
<defs>
<clipPath id="clip0">
<rect width="147.47" height="84.84" fill="white"/>
</clipPath>
</defs>
</svg>
