<svg width="124" height="72" viewBox="0 0 124 72" fill="none" xmlns="http://www.w3.org/2000/svg">
<g clip-path="url(#clip0)">
<path d="M50.3748 50.376H23.2498C22.9929 50.3762 22.7465 50.4784 22.5649 50.6601C22.3832 50.8418 22.281 51.0881 22.2808 51.345V59.095C22.2805 59.2223 22.3054 59.3484 22.354 59.4661C22.4026 59.5838 22.474 59.6907 22.564 59.7808C22.654 59.8708 22.761 59.9422 22.8786 59.9908C22.9963 60.0394 23.1224 60.0643 23.2498 60.064H50.3748C50.5021 60.0643 50.6282 60.0394 50.7459 59.9908C50.8636 59.9422 50.9705 59.8708 51.0605 59.7808C51.1506 59.6907 51.2219 59.5838 51.2705 59.4661C51.3191 59.3484 51.344 59.2223 51.3438 59.095V51.345C51.3438 51.088 51.2417 50.8415 51.06 50.6598C50.8782 50.4781 50.6318 50.376 50.3748 50.376ZM49.4058 58.126H24.2188V52.313H49.4038L49.4058 58.126Z" fill="#EF9F9C"/>
<path d="M100.751 1.18194e-05H73.6259C73.3744 0.00809351 73.1359 0.113668 72.9609 0.294415C72.7859 0.475162 72.688 0.716905 72.688 0.96851C72.688 1.22012 72.7859 1.46185 72.9609 1.6426C73.1359 1.82334 73.3744 1.92893 73.6259 1.93701H100.751C100.881 1.94118 101.01 1.91922 101.131 1.87243C101.252 1.82563 101.363 1.75496 101.456 1.66462C101.549 1.57427 101.624 1.46609 101.674 1.34651C101.725 1.22693 101.751 1.09838 101.751 0.96851C101.751 0.838639 101.725 0.710094 101.674 0.590512C101.624 0.47093 101.549 0.36275 101.456 0.272404C101.363 0.182059 101.252 0.111389 101.131 0.0645946C101.01 0.0178004 100.881 -0.00415969 100.751 1.18194e-05Z" fill="#EF9F9C"/>
<path d="M101.436 0.284042C101.346 0.193999 101.239 0.122561 101.122 0.073822C101.004 0.0250833 100.878 0 100.751 0C100.624 0 100.498 0.0250833 100.38 0.073822C100.263 0.122561 100.156 0.193999 100.066 0.284042L49.6911 50.66C49.5977 50.7492 49.523 50.8562 49.4715 50.9746C49.42 51.093 49.3927 51.2206 49.3912 51.3497C49.3897 51.4789 49.414 51.607 49.4627 51.7266C49.5115 51.8462 49.5836 51.9549 49.6749 52.0462C49.7663 52.1375 49.8749 52.2097 49.9945 52.2584C50.1141 52.3071 50.2423 52.3315 50.3714 52.33C50.5006 52.3284 50.6281 52.3011 50.7465 52.2496C50.865 52.1981 50.9719 52.1235 51.0611 52.03L101.436 1.65405C101.526 1.56414 101.598 1.45736 101.646 1.33982C101.695 1.22228 101.72 1.09628 101.72 0.96904C101.72 0.841796 101.695 0.715806 101.646 0.598267C101.598 0.480727 101.526 0.373949 101.436 0.284042Z" fill="#EF9F9C"/>
<path d="M101.436 8.03307C101.346 7.94302 101.239 7.87158 101.122 7.82285C101.004 7.77411 100.878 7.74902 100.751 7.74902C100.624 7.74902 100.498 7.77411 100.38 7.82285C100.263 7.87158 100.156 7.94302 100.066 8.03307L49.6911 58.4071C49.5977 58.4962 49.523 58.6032 49.4715 58.7216C49.42 58.8401 49.3927 58.9676 49.3912 59.0967C49.3897 59.2259 49.414 59.354 49.4627 59.4736C49.5115 59.5932 49.5836 59.7019 49.6749 59.7932C49.7663 59.8846 49.8749 59.9567 49.9945 60.0054C50.1141 60.0542 50.2423 60.0785 50.3714 60.077C50.5006 60.0755 50.6281 60.0482 50.7465 59.9967C50.865 59.9452 50.9719 59.8705 51.0611 59.7771L101.436 9.40306C101.526 9.31315 101.598 9.20638 101.646 9.08884C101.695 8.9713 101.72 8.84531 101.72 8.71806C101.72 8.59082 101.695 8.46481 101.646 8.34727C101.598 8.22974 101.526 8.12297 101.436 8.03307Z" fill="#EF9F9C"/>
<path d="M74.3096 0.284042C74.2197 0.193999 74.1129 0.122561 73.9954 0.073822C73.8779 0.0250833 73.7519 0 73.6246 0C73.4974 0 73.3714 0.0250833 73.2538 0.073822C73.1363 0.122561 73.0295 0.193999 72.9396 0.284042L22.5646 50.66C22.4712 50.7492 22.3965 50.8562 22.345 50.9746C22.2935 51.093 22.2662 51.2206 22.2647 51.3497C22.2632 51.4789 22.2875 51.607 22.3363 51.7266C22.385 51.8462 22.4571 51.9549 22.5485 52.0462C22.6398 52.1375 22.7484 52.2097 22.8681 52.2584C22.9877 52.3071 23.1158 52.3315 23.2449 52.33C23.3741 52.3284 23.5016 52.3011 23.6201 52.2496C23.7385 52.1981 23.8455 52.1235 23.9346 52.03L74.3096 1.65405C74.3997 1.56414 74.4711 1.45736 74.5198 1.33982C74.5686 1.22228 74.5937 1.09628 74.5937 0.96904C74.5937 0.841796 74.5686 0.715806 74.5198 0.598267C74.4711 0.480727 74.3997 0.373949 74.3096 0.284042Z" fill="#EF9F9C"/>
<path d="M100.751 5.17086e-07C100.623 -0.000131047 100.497 0.0248443 100.38 0.0734945C100.262 0.122145 100.155 0.193518 100.065 0.283524C99.9753 0.37353 99.9039 0.480407 99.8553 0.598031C99.8066 0.715654 99.7816 0.841714 99.7817 0.969002V8.721C99.7776 8.85081 99.7996 8.98013 99.8464 9.10127C99.8931 9.22242 99.9638 9.33293 100.054 9.42622C100.144 9.51952 100.253 9.5937 100.372 9.64436C100.492 9.69503 100.62 9.72113 100.75 9.72113C100.88 9.72113 101.009 9.69503 101.128 9.64436C101.248 9.5937 101.356 9.51952 101.446 9.42622C101.537 9.33293 101.607 9.22242 101.654 9.10127C101.701 8.98013 101.723 8.85081 101.719 8.721V0.969002C101.719 0.841799 101.694 0.715818 101.645 0.59826C101.597 0.480701 101.525 0.373868 101.436 0.283875C101.346 0.193882 101.239 0.122493 101.121 0.0737844C101.004 0.0250753 100.878 4.4921e-07 100.751 5.17086e-07Z" fill="#EF9F9C"/>
<path d="M66.469 35.0861C66.416 35.0441 61.369 31.2341 55.501 37.1031L41.939 50.665L43.309 52.0351L56.87 38.473C61.493 33.852 65.134 36.5051 65.28 36.6161C65.3804 36.6941 65.4951 36.7515 65.6177 36.7852C65.7403 36.8188 65.8684 36.828 65.9945 36.8122C66.1207 36.7963 66.2425 36.7558 66.353 36.6929C66.4634 36.63 66.5605 36.5459 66.6385 36.4456C66.7165 36.3452 66.7739 36.2304 66.8076 36.1078C66.8412 35.9852 66.8504 35.8571 66.8346 35.731C66.8187 35.6048 66.7782 35.483 66.7153 35.3726C66.6524 35.2621 66.5684 35.1651 66.468 35.087L66.469 35.0861Z" fill="#EF9F9C"/>
<path d="M55.9049 11.911C55.8149 11.821 55.7082 11.7495 55.5906 11.7008C55.4731 11.652 55.3471 11.627 55.2199 11.627C55.0926 11.627 54.9666 11.652 54.8491 11.7008C54.7315 11.7495 54.6248 11.821 54.5349 11.911L48.7219 17.724C48.6284 17.8132 48.5538 17.9201 48.5023 18.0386C48.4508 18.157 48.4234 18.2845 48.4219 18.4137C48.4204 18.5428 48.4448 18.671 48.4935 18.7906C48.5422 18.9102 48.6144 19.0188 48.7057 19.1102C48.797 19.2015 48.9057 19.2736 49.0253 19.3224C49.1449 19.3711 49.273 19.3954 49.4022 19.3939C49.5313 19.3924 49.6589 19.3651 49.7773 19.3136C49.8957 19.2621 50.0027 19.1874 50.0918 19.094L55.9049 13.281C55.9949 13.1911 56.0663 13.0843 56.1151 12.9668C56.1638 12.8492 56.1889 12.7232 56.1889 12.596C56.1889 12.4687 56.1638 12.3428 56.1151 12.2252C56.0663 12.1077 55.9949 12.0009 55.9049 11.911Z" fill="#EF9F9C"/>
<path d="M28.094 62.001H0.969002C0.712007 62.001 0.465538 62.1031 0.283816 62.2848C0.102093 62.4665 2.07273e-06 62.713 2.07273e-06 62.97V70.72C-0.000261541 70.8473 0.0246225 70.9734 0.0732259 71.0911C0.121829 71.2088 0.193195 71.3157 0.283228 71.4057C0.37326 71.4958 0.480187 71.5672 0.59787 71.6158C0.715554 71.6644 0.841677 71.6892 0.969002 71.689H28.094C28.2213 71.6892 28.3475 71.6644 28.4651 71.6158C28.5828 71.5672 28.6897 71.4958 28.7798 71.4057C28.8698 71.3157 28.9412 71.2088 28.9898 71.0911C29.0384 70.9734 29.0633 70.8473 29.063 70.72V62.97C29.063 62.713 28.9609 62.4665 28.7792 62.2848C28.5975 62.1031 28.351 62.001 28.094 62.001ZM27.125 69.751H1.937V63.939H27.125V69.751Z" fill="#EF9F9C"/>
<path d="M58.1286 11.621H51.3436C51.0922 11.6291 50.8537 11.7347 50.6787 11.9154C50.5036 12.0961 50.4058 12.3379 50.4058 12.5895C50.4058 12.8411 50.5036 13.0828 50.6787 13.2636C50.8537 13.4443 51.0922 13.5499 51.3436 13.558H58.1286C58.2585 13.5622 58.3878 13.5402 58.5089 13.4934C58.6301 13.4466 58.7406 13.3759 58.8339 13.2856C58.9272 13.1952 59.0013 13.0871 59.052 12.9675C59.1027 12.8479 59.1288 12.7194 59.1288 12.5895C59.1288 12.4596 59.1027 12.3311 59.052 12.2115C59.0013 12.0919 58.9272 11.9837 58.8339 11.8934C58.7406 11.803 58.6301 11.7324 58.5089 11.6856C58.3878 11.6388 58.2585 11.6168 58.1286 11.621Z" fill="#EF9F9C"/>
<path d="M36.4679 62.346C36.378 62.256 36.2712 62.1846 36.1537 62.1358C36.0361 62.0871 35.9101 62.062 35.7829 62.062C35.6557 62.062 35.5297 62.0871 35.4121 62.1358C35.2946 62.1846 35.1878 62.256 35.0979 62.346L27.4079 70.036C27.3145 70.1252 27.2398 70.2321 27.1883 70.3506C27.1368 70.469 27.1095 70.5966 27.108 70.7257C27.1065 70.8549 27.1308 70.983 27.1795 71.1026C27.2283 71.2222 27.3004 71.3309 27.3917 71.4222C27.483 71.5135 27.5917 71.5857 27.7113 71.6344C27.8309 71.6832 27.9591 71.7075 28.0882 71.706C28.2174 71.7045 28.3449 71.6771 28.4633 71.6256C28.5818 71.5741 28.6887 71.4995 28.7779 71.406L36.4679 63.716C36.5579 63.6261 36.6294 63.5194 36.6781 63.4018C36.7268 63.2843 36.7519 63.1583 36.7519 63.031C36.7519 62.9038 36.7268 62.7778 36.6781 62.6603C36.6294 62.5427 36.5579 62.4359 36.4679 62.346Z" fill="#EF9F9C"/>
<path d="M52.0289 11.909C51.939 11.819 51.8322 11.7476 51.7146 11.6988C51.5971 11.6501 51.4711 11.625 51.3439 11.625C51.2166 11.625 51.0906 11.6501 50.9731 11.6988C50.8556 11.7476 50.7488 11.819 50.6589 11.909L0.283871 62.285C0.19044 62.3742 0.115778 62.4812 0.0642728 62.5996C0.0127677 62.718 -0.0145408 62.8456 -0.0160473 62.9747C-0.0175539 63.1039 0.00677177 63.232 0.0554998 63.3516C0.104228 63.4712 0.176375 63.5799 0.2677 63.6712C0.359025 63.7625 0.467686 63.8347 0.587294 63.8834C0.706903 63.9321 0.835046 63.9565 0.96419 63.955C1.09333 63.9534 1.22088 63.9261 1.33931 63.8746C1.45775 63.8231 1.5647 63.7485 1.65387 63.655L52.0289 13.279C52.1189 13.1891 52.1903 13.0824 52.2391 12.9648C52.2878 12.8473 52.3129 12.7213 52.3129 12.594C52.3129 12.4668 52.2878 12.3408 52.2391 12.2233C52.1903 12.1057 52.1189 11.9989 52.0289 11.909Z" fill="#EF9F9C"/>
<path d="M72.657 62.001H45.532C45.275 62.001 45.0285 62.1031 44.8468 62.2848C44.6651 62.4665 44.563 62.713 44.563 62.97V70.72C44.5627 70.8473 44.5876 70.9734 44.6362 71.0911C44.6848 71.2088 44.7562 71.3157 44.8462 71.4057C44.9362 71.4958 45.0432 71.5672 45.1609 71.6158C45.2785 71.6644 45.4047 71.6892 45.532 71.689H72.657C72.7843 71.6892 72.9104 71.6644 73.0281 71.6158C73.1458 71.5672 73.2527 71.4958 73.3428 71.4057C73.4328 71.3157 73.5042 71.2088 73.5528 71.0911C73.6014 70.9734 73.6262 70.8473 73.626 70.72V62.97C73.626 62.713 73.5239 62.4665 73.3422 62.2848C73.1604 62.1031 72.914 62.001 72.657 62.001ZM71.688 69.751H46.5V63.939H71.688V69.751Z" fill="#EF9F9C"/>
<path d="M123.032 11.625H100.76C100.63 11.6208 100.501 11.6428 100.38 11.6896C100.258 11.7364 100.148 11.8071 100.055 11.8974C99.9614 11.9878 99.8872 12.0959 99.8365 12.2155C99.7859 12.3351 99.7598 12.4636 99.7598 12.5935C99.7598 12.7234 99.7859 12.8519 99.8365 12.9715C99.8872 13.0911 99.9614 13.1993 100.055 13.2896C100.148 13.38 100.258 13.4506 100.38 13.4974C100.501 13.5442 100.63 13.5662 100.76 13.562H123.032C123.283 13.5539 123.522 13.4484 123.697 13.2676C123.872 13.0869 123.97 12.8451 123.97 12.5935C123.97 12.3419 123.872 12.1002 123.697 11.9194C123.522 11.7387 123.283 11.6331 123.032 11.625Z" fill="#EF9F9C"/>
<path d="M123.717 11.909C123.627 11.819 123.52 11.7476 123.403 11.6988C123.285 11.6501 123.159 11.625 123.032 11.625C122.905 11.625 122.779 11.6501 122.661 11.6988C122.544 11.7476 122.437 11.819 122.347 11.909L71.9719 62.285C71.8784 62.3742 71.8038 62.4812 71.7523 62.5996C71.7008 62.718 71.6734 62.8456 71.6719 62.9747C71.6704 63.1039 71.6947 63.232 71.7435 63.3516C71.7922 63.4712 71.8644 63.5799 71.9557 63.6712C72.047 63.7625 72.1557 63.8347 72.2753 63.8834C72.3949 63.9321 72.523 63.9565 72.6522 63.955C72.7813 63.9534 72.9089 63.9261 73.0273 63.8746C73.1458 63.8231 73.2527 63.7485 73.3419 63.655L123.717 13.279C123.807 13.1891 123.878 13.0824 123.927 12.9648C123.976 12.8473 124.001 12.7213 124.001 12.594C124.001 12.4668 123.976 12.3408 123.927 12.2233C123.878 12.1057 123.807 11.9989 123.717 11.909Z" fill="#EF9F9C"/>
<path d="M123.717 19.661C123.627 19.571 123.52 19.4995 123.403 19.4508C123.285 19.4021 123.159 19.377 123.032 19.377C122.905 19.377 122.779 19.4021 122.661 19.4508C122.544 19.4995 122.437 19.571 122.347 19.661L71.9721 70.035C71.7974 70.2181 71.7012 70.4623 71.7042 70.7153C71.7071 70.9684 71.8089 71.2103 71.9879 71.3892C72.1668 71.5682 72.4087 71.67 72.6618 71.673C72.9148 71.6759 73.159 71.5797 73.3421 71.405L123.717 21.031C123.807 20.9411 123.879 20.8343 123.927 20.7168C123.976 20.5992 124.001 20.4733 124.001 20.346C124.001 20.2188 123.976 20.0928 123.927 19.9752C123.879 19.8577 123.807 19.7509 123.717 19.661Z" fill="#EF9F9C"/>
<path d="M123.034 11.625C122.907 11.6249 122.781 11.6498 122.663 11.6985C122.545 11.7471 122.438 11.8185 122.348 11.9085C122.258 11.9985 122.187 12.1054 122.138 12.223C122.09 12.3406 122.065 12.4667 122.065 12.594V20.346C122.061 20.4758 122.083 20.6051 122.13 20.7263C122.176 20.8474 122.247 20.9579 122.337 21.0512C122.428 21.1445 122.536 21.2187 122.655 21.2694C122.775 21.32 122.904 21.3461 123.033 21.3461C123.163 21.3461 123.292 21.32 123.411 21.2694C123.531 21.2187 123.639 21.1445 123.73 21.0512C123.82 20.9579 123.891 20.8474 123.937 20.7263C123.984 20.6051 124.006 20.4758 124.002 20.346V12.594C124.002 12.4668 123.977 12.3408 123.929 12.2233C123.88 12.1057 123.809 11.9989 123.719 11.9089C123.629 11.8189 123.522 11.7475 123.405 11.6988C123.287 11.6501 123.161 11.625 123.034 11.625Z" fill="#EF9F9C"/>
<path d="M63.6539 54.535C63.564 54.445 63.4572 54.3735 63.3396 54.3248C63.2221 54.2761 63.0961 54.251 62.9689 54.251C62.8416 54.251 62.7156 54.2761 62.5981 54.3248C62.4805 54.3735 62.3738 54.445 62.2839 54.535L54.5339 62.285C54.4404 62.3742 54.3658 62.4811 54.3143 62.5996C54.2628 62.718 54.2355 62.8456 54.234 62.9747C54.2324 63.1038 54.2568 63.232 54.3055 63.3516C54.3542 63.4712 54.4264 63.5798 54.5177 63.6712C54.609 63.7625 54.7177 63.8347 54.8373 63.8834C54.9569 63.9321 55.085 63.9564 55.2142 63.9549C55.3433 63.9534 55.4709 63.9261 55.5893 63.8746C55.7077 63.8231 55.8147 63.7484 55.9039 63.655L63.6539 55.905C63.7439 55.8151 63.8153 55.7083 63.8641 55.5908C63.9128 55.4733 63.9379 55.3472 63.9379 55.22C63.9379 55.0928 63.9128 54.9668 63.8641 54.8492C63.8153 54.7317 63.7439 54.6249 63.6539 54.535Z" fill="#EF9F9C"/>
<path d="M79.1548 48.723C79.0649 48.633 78.9582 48.5615 78.8406 48.5128C78.7231 48.464 78.5971 48.439 78.4698 48.439C78.3426 48.439 78.2166 48.464 78.0991 48.5128C77.9815 48.5615 77.8747 48.633 77.7848 48.723L64.2228 62.282C64.1294 62.3712 64.0547 62.4781 64.0032 62.5966C63.9517 62.715 63.9244 62.8426 63.9229 62.9717C63.9214 63.1009 63.9457 63.229 63.9945 63.3486C64.0432 63.4682 64.1153 63.5769 64.2067 63.6682C64.298 63.7595 64.4066 63.8317 64.5263 63.8804C64.6459 63.9291 64.774 63.9534 64.9031 63.9519C65.0323 63.9504 65.1598 63.9231 65.2783 63.8716C65.3967 63.8201 65.5037 63.7454 65.5928 63.652L79.1558 50.093C79.2458 50.003 79.3172 49.8962 79.3658 49.7786C79.4145 49.6611 79.4395 49.535 79.4394 49.4078C79.4393 49.2806 79.4141 49.1546 79.3653 49.0371C79.3164 48.9196 79.2449 48.8129 79.1548 48.723Z" fill="#EF9F9C"/>
<path d="M104.264 11.9931C104.082 11.8117 103.835 11.7098 103.579 11.7098C103.322 11.7098 103.076 11.8117 102.894 11.9931L94.6177 20.2681L95.9877 21.638L104.264 13.3651C104.354 13.275 104.425 13.1681 104.474 13.0504C104.523 12.9327 104.548 12.8065 104.548 12.679C104.548 12.5516 104.523 12.4254 104.474 12.3077C104.425 12.19 104.354 12.0831 104.264 11.9931Z" fill="#EF9F9C"/>
<path d="M81.0948 0.284042C81.0049 0.193999 80.8981 0.122561 80.7806 0.073822C80.663 0.0250833 80.5371 0 80.4098 0C80.2826 0 80.1566 0.0250833 80.039 0.073822C79.9215 0.122561 79.8147 0.193999 79.7248 0.284042L70.0358 9.97504C69.9424 10.0642 69.8677 10.1712 69.8162 10.2896C69.7647 10.408 69.7374 10.5356 69.7359 10.6647C69.7344 10.7939 69.7587 10.922 69.8074 11.0416C69.8562 11.1612 69.9283 11.2699 70.0196 11.3612C70.111 11.4525 70.2196 11.5247 70.3392 11.5734C70.4588 11.6221 70.587 11.6465 70.7161 11.645C70.8453 11.6435 70.9728 11.6161 71.0913 11.5646C71.2097 11.5131 71.3167 11.4385 71.4058 11.345L81.0948 1.65405C81.1849 1.56414 81.2563 1.45736 81.305 1.33982C81.3538 1.22228 81.3788 1.09628 81.3788 0.96904C81.3788 0.841796 81.3538 0.715806 81.305 0.598267C81.2563 0.480727 81.1849 0.373949 81.0948 0.284042Z" fill="#EF9F9C"/>
<path d="M90.7788 0.284042C90.6889 0.193999 90.5821 0.122561 90.4646 0.073822C90.3471 0.0250833 90.2211 0 90.0938 0C89.9666 0 89.8406 0.0250833 89.723 0.073822C89.6055 0.122561 89.4987 0.193999 89.4088 0.284042L70.0358 19.657C69.9424 19.7462 69.8677 19.8532 69.8162 19.9716C69.7647 20.09 69.7374 20.2176 69.7359 20.3467C69.7344 20.4759 69.7587 20.604 69.8074 20.7236C69.8562 20.8432 69.9283 20.9519 70.0196 21.0432C70.111 21.1345 70.2196 21.2067 70.3392 21.2554C70.4588 21.3041 70.587 21.3285 70.7161 21.327C70.8453 21.3255 70.9728 21.2981 71.0913 21.2466C71.2097 21.1951 71.3167 21.1205 71.4058 21.027L90.7788 1.65405C90.8689 1.56414 90.9403 1.45736 90.989 1.33982C91.0378 1.22228 91.0628 1.09628 91.0628 0.96904C91.0628 0.841796 91.0378 0.715806 90.989 0.598267C90.9403 0.480727 90.8689 0.373949 90.7788 0.284042Z" fill="#EF9F9C"/>
</g>
<defs>
<clipPath id="clip0">
<rect width="124" height="71.689" fill="white"/>
</clipPath>
</defs>
</svg>
