<svg width="354" height="35" viewBox="0 0 354 35" fill="none" xmlns="http://www.w3.org/2000/svg">
<g clip-path="url(#clip0)">
<path d="M25.774 7.71001L33.137 15.074V0.346008L25.774 7.71001Z" fill="#EF9F9C"/>
<path d="M18.412 15.235V0.507004L25.776 7.871L18.412 15.235Z" fill="#EF9F9C"/>
<path d="M33.14 26.282C33.14 28.2351 32.3642 30.1081 30.9831 31.4891C29.6021 32.8701 27.7291 33.646 25.776 33.646C24.8089 33.646 23.8514 33.4555 22.9579 33.0854C22.0645 32.7154 21.2527 32.1729 20.5689 31.4891C19.8851 30.8053 19.3426 29.9935 18.9726 29.1001C18.6025 28.2066 18.412 27.2491 18.412 26.282C18.412 25.3149 18.6025 24.3574 18.9726 23.4639C19.3426 22.5705 19.8851 21.7587 20.5689 21.0749C21.2527 20.391 22.0645 19.8486 22.9579 19.4785C23.8514 19.1085 24.8089 18.918 25.776 18.918C27.7291 18.918 29.6021 19.6938 30.9831 21.0749C32.3642 22.4559 33.14 24.3289 33.14 26.282Z" fill="#EF9F9C"/>
<path d="M13.391 6.49899H10.71L12.61 4.59898C12.8672 4.3417 13.0117 3.99279 13.0117 3.62898C13.0117 3.26518 12.8672 2.91627 12.61 2.65898C12.4827 2.53151 12.3315 2.43039 12.165 2.36139C11.9986 2.29239 11.8202 2.25688 11.64 2.25688C11.4598 2.25688 11.2814 2.29239 11.115 2.36139C10.9485 2.43039 10.7973 2.53151 10.67 2.65898L8.77 4.55899V1.88199C8.77 1.51811 8.62546 1.16913 8.36816 0.911835C8.11086 0.654535 7.76188 0.509995 7.39801 0.509995C7.21788 0.509994 7.03952 0.545479 6.87312 0.614441C6.70672 0.683403 6.55553 0.784481 6.42821 0.911896C6.30089 1.03931 6.19992 1.19057 6.13108 1.35703C6.06224 1.52348 6.02688 1.70186 6.02701 1.88199V4.56299L4.12701 2.66299C3.99968 2.53552 3.84847 2.43438 3.68203 2.36539C3.51559 2.29639 3.33718 2.26088 3.15701 2.26088C2.97683 2.26088 2.79842 2.29639 2.63198 2.36539C2.46554 2.43438 2.31434 2.53552 2.18701 2.66299C1.9298 2.92028 1.78531 3.26919 1.78531 3.633C1.78531 3.9968 1.9298 4.34569 2.18701 4.60298L4.08701 6.50299H1.40701C1.04313 6.50299 0.694155 6.64753 0.436855 6.90483C0.179555 7.16213 0.0350075 7.51111 0.0350075 7.87498C0.0350075 8.23886 0.179555 8.58784 0.436855 8.84514C0.694155 9.10244 1.04313 9.24699 1.40701 9.24699H4.08801L2.18801 11.147C1.9308 11.4043 1.78631 11.7532 1.78631 12.117C1.78631 12.4808 1.9308 12.8297 2.18801 13.087C2.31534 13.2145 2.46654 13.3156 2.63298 13.3846C2.79942 13.4536 2.97783 13.4891 3.15801 13.4891C3.33818 13.4891 3.51659 13.4536 3.68303 13.3846C3.84947 13.3156 4.00068 13.2145 4.12801 13.087L6.02801 11.187V13.868C6.02788 14.0482 6.06327 14.2267 6.13218 14.3932C6.20108 14.5597 6.30214 14.711 6.42957 14.8384C6.55699 14.9659 6.70829 15.0669 6.87481 15.1358C7.04133 15.2047 7.2198 15.2401 7.40001 15.24C7.76389 15.24 8.11286 15.0954 8.37016 14.8381C8.62746 14.5808 8.77201 14.2319 8.77201 13.868V11.182L10.672 13.082C10.7993 13.2095 10.9505 13.3106 11.117 13.3796C11.2834 13.4486 11.4618 13.4841 11.642 13.4841C11.8222 13.4841 12.0006 13.4486 12.167 13.3796C12.3335 13.3106 12.4847 13.2095 12.612 13.082C12.8692 12.8247 13.0137 12.4758 13.0137 12.112C13.0137 11.7482 12.8692 11.3993 12.612 11.142L10.712 9.24199H13.393C13.5732 9.24199 13.7516 9.20651 13.9181 9.13756C14.0845 9.06861 14.2358 8.96754 14.3632 8.84013C14.4906 8.71273 14.5916 8.56149 14.6606 8.39503C14.7295 8.22858 14.765 8.05017 14.765 7.87C14.765 7.68982 14.7295 7.5114 14.6606 7.34494C14.5916 7.17848 14.4906 7.02724 14.3632 6.89984C14.2358 6.77244 14.0845 6.67138 13.9181 6.60243C13.7516 6.53348 13.5732 6.49799 13.393 6.49799" fill="#EF9F9C"/>
<path d="M0.00200653 19.078C0.00200653 21.0311 0.777857 22.9041 2.15887 24.2851C3.53989 25.6662 5.41295 26.442 7.36601 26.442C9.31898 26.4417 11.1919 25.6658 12.5728 24.2848C13.9538 22.9039 14.7297 21.031 14.73 19.078H0.00200653Z" fill="#EF9F9C"/>
<path d="M14.729 33.646C14.729 31.6929 13.9532 29.8199 12.5721 28.4389C11.1911 27.0578 9.31806 26.282 7.36501 26.282C5.41195 26.282 3.53889 27.0578 2.15788 28.4389C0.776857 29.8199 0.00100708 31.6929 0.00100708 33.646H14.729Z" fill="#EF9F9C"/>
<path d="M47.911 0.602005H52.073V14.708H62.063L68.677 0.602005H73.071L65.671 16.651L73.489 33.626H69.095L62.064 18.502H52.074V33.626H47.912L47.911 0.602005Z" fill="black"/>
<path d="M95.155 17.946L103.434 0.602005H107.782L92.011 33.626H87.711L92.429 23.726L80.211 0.602005H84.697L93.855 17.946H95.155Z" fill="black"/>
<path d="M125.618 18.64H123.907L115.351 33.626H110.818L120.718 16.189L112.254 0.602005H116.741L123.957 13.784H125.668L132.975 0.602005H137.412L128.855 16.002L138.706 33.624H133.942L125.618 18.64Z" fill="black"/>
<path d="M174.173 0.602005V33.626H170.016V18.548H151.557V33.626H147.394V0.602005H151.557V14.663H170.016V0.602005H174.173Z" fill="black"/>
<path d="M187.662 0.602005V28.584H188.679L204.035 0.602005H210.556V33.626H206.486V5.64301H205.468L190.112 33.626H183.59V0.602005H187.662Z" fill="black"/>
<path d="M240.051 18.64H238.34L229.784 33.626H225.251L235.151 16.189L226.684 0.600998H231.17L238.386 13.783H240.097L247.404 0.600998H251.845L243.288 16.001L253.14 33.623H248.376L240.051 18.64Z" fill="black"/>
<path d="M286.484 17.114C286.484 26.596 281.119 34.228 271.084 34.228C261.001 34.228 255.684 26.596 255.684 17.114C255.684 7.632 261.002 0 271.084 0C281.121 0 286.484 7.632 286.484 17.114ZM282.275 17.114C282.275 10.222 278.944 3.793 271.082 3.793C263.22 3.793 259.889 10.222 259.889 17.114C259.889 24.006 263.219 30.434 271.082 30.434C278.945 30.434 282.275 24.006 282.275 17.114Z" fill="black"/>
<path d="M289.755 29.509C294.103 29.509 295.955 26.965 295.955 12.719V0.600998H317.647V33.625H313.484V4.38901H299.884V13.501C299.884 29.735 296.877 33.621 289.801 33.621H288.876V29.504L289.755 29.509Z" fill="black"/>
<path d="M325.221 29.448C329.568 29.448 331.421 26.904 331.421 12.658V0.539993H353.113V33.564H348.95V4.33299H335.35V13.445C335.35 29.679 332.344 33.564 325.267 33.564H324.342V29.448H325.221Z" fill="black"/>
</g>
<defs>
<clipPath id="clip0">
<rect width="353.111" height="34.228" fill="white"/>
</clipPath>
</defs>
</svg>
