<svg width="92" height="92" viewBox="0 0 92 92" fill="none" xmlns="http://www.w3.org/2000/svg">
<g clip-path="url(#clip0)">
<path d="M88.693 53.242C88.1981 53.242 87.7235 53.4386 87.3735 53.7885C87.0236 54.1385 86.827 54.6131 86.827 55.108V64.437H4.732V21.523C4.73359 21.0283 4.931 20.5544 5.28106 20.2049C5.63112 19.8554 6.10534 19.6588 6.6 19.658H32.719C32.964 19.658 33.2067 19.6097 33.4331 19.5159C33.6595 19.4222 33.8652 19.2847 34.0385 19.1115C34.2117 18.9382 34.3492 18.7325 34.443 18.5061C34.5367 18.2797 34.585 18.037 34.585 17.792C34.585 17.5469 34.5367 17.3043 34.443 17.0779C34.3492 16.8515 34.2117 16.6458 34.0385 16.4725C33.8652 16.2993 33.6595 16.1618 33.4331 16.068C33.2067 15.9743 32.964 15.926 32.719 15.926H6.6C5.11531 15.926 3.69138 16.5156 2.64126 17.5651C1.59114 18.6147 1.0008 20.0383 1 21.523L1 73.766C1 75.2512 1.59 76.6756 2.6402 77.7258C3.69041 78.776 5.11479 79.366 6.6 79.366H36.109C35.3162 82.4224 33.6844 85.1962 31.398 87.374C31.1374 87.6353 30.96 87.968 30.8883 88.3301C30.8166 88.6921 30.8538 89.0673 30.9951 89.4083C31.1364 89.7492 31.3756 90.0407 31.6824 90.2458C31.9892 90.451 32.3499 90.5606 32.719 90.561H58.84C59.2091 90.5606 59.5698 90.451 59.8766 90.2458C60.1834 90.0407 60.4226 89.7492 60.5639 89.4083C60.7052 89.0673 60.7424 88.6921 60.6707 88.3301C60.599 87.968 60.4216 87.6353 60.161 87.374C57.872 85.1901 56.2256 82.4203 55.401 79.366H84.961C86.4462 79.366 87.8706 78.776 88.9208 77.7258C89.971 76.6756 90.561 75.2512 90.561 73.766V55.108C90.561 54.8628 90.5127 54.62 90.4188 54.3934C90.3249 54.1669 90.1872 53.9611 90.0138 53.7878C89.8403 53.6145 89.6343 53.4771 89.4077 53.3835C89.1811 53.2898 88.9382 53.2417 88.693 53.242ZM54.836 86.827H36.711C38.3016 84.5982 39.393 82.0527 39.911 79.364H51.591C52.1339 82.0528 53.2398 84.5962 54.836 86.827ZM84.961 75.632H6.6C6.10551 75.6307 5.63165 75.4336 5.282 75.084C4.93234 74.7343 4.73532 74.2605 4.734 73.766V68.166H86.834V73.766C86.8327 74.2617 86.6347 74.7366 86.2835 75.0865C85.9324 75.4363 85.4567 75.6325 84.961 75.632Z" fill="#EF9F9C" stroke="white" stroke-width="2"/>
<path d="M64.4374 53.243C59.2712 53.243 54.2209 51.711 49.9254 48.8408C45.6298 45.9706 42.2818 41.891 40.3048 37.1181C38.3277 32.3451 37.8104 27.093 38.8183 22.026C39.8262 16.9591 42.314 12.3047 45.9671 8.65165C49.6202 4.99856 54.2745 2.51078 59.3415 1.5029C64.4084 0.495012 69.6605 1.01229 74.4335 2.98933C79.2065 4.96637 83.286 8.31436 86.1562 12.6099C89.0264 16.9055 90.5584 21.9557 90.5584 27.122C90.5494 34.0469 87.7945 40.6857 82.8978 45.5824C78.0011 50.4791 71.3624 53.234 64.4374 53.243ZM64.4374 4.73199C60.0091 4.73199 55.6802 6.04514 51.9982 8.50538C48.3162 10.9656 45.4464 14.4625 43.7518 18.5537C42.0571 22.6449 41.6137 27.1468 42.4776 31.4901C43.3416 35.8333 45.474 39.8228 48.6053 42.9541C51.7366 46.0854 55.7261 48.2178 60.0693 49.0818C64.4126 49.9457 68.9144 49.5023 73.0057 47.8077C77.0969 46.113 80.5938 43.2432 83.054 39.5612C85.5143 35.8792 86.8274 31.5503 86.8274 27.122C86.8216 21.1856 84.4608 15.494 80.2631 11.2963C76.0654 7.09862 70.3738 4.73781 64.4374 4.73199Z" fill="#EF9F9C" stroke="white" stroke-width="2"/>
<path d="M67.422 30.275C69.2965 30.275 71.0943 29.5303 72.4198 28.2048C73.7453 26.8793 74.49 25.0815 74.49 23.207C74.49 21.3324 73.7453 19.5347 72.4198 18.2091C71.0943 16.8836 69.2965 16.139 67.422 16.139H59.882C59.7571 16.139 59.6373 16.1886 59.5489 16.2769C59.4606 16.3653 59.411 16.4851 59.411 16.61V29.332H57.993C57.8679 29.332 57.748 29.3817 57.6596 29.4701C57.5712 29.5585 57.5215 29.6784 57.5215 29.8035C57.5215 29.9285 57.5712 30.0485 57.6596 30.1369C57.748 30.2253 57.8679 30.275 57.993 30.275H59.407V32.159H57.993C57.8679 32.159 57.748 32.2087 57.6596 32.2971C57.5712 32.3855 57.5215 32.5054 57.5215 32.6305C57.5215 32.7555 57.5712 32.8755 57.6596 32.9639C57.748 33.0523 57.8679 33.102 57.993 33.102H59.407V38.286C59.407 38.4109 59.4566 38.5307 59.5449 38.619C59.6333 38.7074 59.7531 38.757 59.878 38.757C60.0029 38.757 60.1227 38.7074 60.211 38.619C60.2994 38.5307 60.349 38.4109 60.349 38.286V33.102H68.359C68.484 33.102 68.604 33.0523 68.6924 32.9639C68.7808 32.8755 68.8305 32.7555 68.8305 32.6305C68.8305 32.5054 68.7808 32.3855 68.6924 32.2971C68.604 32.2087 68.484 32.159 68.359 32.159H60.349V30.275H67.422ZM60.349 17.082H67.422C68.8347 17.0837 70.2035 17.5736 71.2966 18.4686C72.3896 19.3636 73.1399 20.6088 73.4203 21.9935C73.7008 23.3781 73.4942 24.8171 72.8356 26.0669C72.1769 27.3167 71.1067 28.3006 69.806 28.852C69.0517 29.1706 68.2408 29.3339 67.422 29.332H60.349V17.082Z" fill="#EF9F9C" stroke="#EF9F9C" stroke-width="0.6"/>
</g>
<defs>
<clipPath id="clip0">
<rect width="91.559" height="91.559" fill="white"/>
</clipPath>
</defs>
</svg>
