<svg width="102" height="102" viewBox="0 0 102 102" fill="none" xmlns="http://www.w3.org/2000/svg">
<g clip-path="url(#clip0)">
<path d="M102 -0.000976562H0V101.999H102V-0.000976562Z" fill="white"/>
<path d="M36 21.999H60" stroke="#EF9F9C" stroke-width="2" stroke-linecap="round" stroke-linejoin="round"/>
<path d="M48.9387 80.723H10.6387V21.149H14.8937" stroke="#EF9F9C" stroke-width="2" stroke-linecap="round" stroke-linejoin="round"/>
<path d="M78.7227 21.149H82.9777V44.549" stroke="#EF9F9C" stroke-width="2" stroke-linecap="round" stroke-linejoin="round"/>
<path d="M28 14.999H22V26.999H28V14.999Z" stroke="#EF9F9C" stroke-width="2" stroke-linecap="round" stroke-linejoin="round"/>
<path d="M72 14.999H66V26.999H72V14.999Z" stroke="#EF9F9C" stroke-width="2" stroke-linecap="round" stroke-linejoin="round"/>
<path d="M83 33.999H11" stroke="#EF9F9C" stroke-width="2" stroke-linecap="round" stroke-linejoin="round"/>
<path d="M32 44.999H22V52.999H32V44.999Z" stroke="#EF9F9C" stroke-width="2" stroke-linecap="round" stroke-linejoin="round"/>
<path d="M53 44.999H42V52.999H53V44.999Z" stroke="#EF9F9C" stroke-width="2" stroke-linecap="round" stroke-linejoin="round"/>
<path d="M32 61.999H22V69.999H32V61.999Z" stroke="#EF9F9C" stroke-width="2" stroke-linecap="round" stroke-linejoin="round"/>
<path d="M46.8077 61.574H42.5527V70.085H46.8077" stroke="#EF9F9C" stroke-width="2" stroke-linecap="round" stroke-linejoin="round"/>
<path d="M72.5 86.999C83.2696 86.999 92 78.4924 92 67.999C92 57.5056 83.2696 48.999 72.5 48.999C61.7304 48.999 53 57.5056 53 67.999C53 78.4924 61.7304 86.999 72.5 86.999Z" stroke="#EF9F9C" stroke-width="2" stroke-linecap="round" stroke-linejoin="round"/>
<path d="M74.815 70.275C76.5613 70.2536 78.2288 69.5448 79.456 68.3024C80.6833 67.0599 81.3715 65.3839 81.3715 63.6375C81.3715 61.8911 80.6833 60.2151 79.456 58.9726C78.2288 57.7302 76.5613 57.0214 74.815 57H67.735C67.6178 57 67.5054 57.0466 67.4225 57.1295C67.3396 57.2123 67.293 57.3248 67.293 57.442V69.39H65.965C65.9051 69.3872 65.8453 69.3965 65.7891 69.4174C65.733 69.4384 65.6816 69.4705 65.6383 69.5119C65.5949 69.5533 65.5603 69.603 65.5367 69.6581C65.5131 69.7132 65.501 69.7726 65.501 69.8325C65.501 69.8924 65.5131 69.9518 65.5367 70.0069C65.5603 70.062 65.5949 70.1117 65.6383 70.1531C65.6816 70.1945 65.733 70.2266 65.7891 70.2476C65.8453 70.2685 65.9051 70.2778 65.965 70.275H67.292V72.045H65.965C65.9051 72.0422 65.8453 72.0515 65.7891 72.0724C65.733 72.0934 65.6816 72.1255 65.6383 72.1669C65.5949 72.2083 65.5603 72.258 65.5367 72.3131C65.5131 72.3682 65.501 72.4276 65.501 72.4875C65.501 72.5474 65.5131 72.6068 65.5367 72.6619C65.5603 72.717 65.5949 72.7667 65.6383 72.8081C65.6816 72.8495 65.733 72.8816 65.7891 72.9026C65.8453 72.9235 65.9051 72.9328 65.965 72.93H67.292V77.8C67.292 77.9174 67.3386 78.0299 67.4216 78.1129C67.5046 78.1959 67.6172 78.2425 67.7345 78.2425C67.8519 78.2425 67.9644 78.1959 68.0474 78.1129C68.1304 78.0299 68.177 77.9174 68.177 77.8V72.93H75.699C75.7589 72.9328 75.8187 72.9235 75.8749 72.9026C75.9311 72.8816 75.9824 72.8495 76.0258 72.8081C76.0692 72.7667 76.1037 72.717 76.1273 72.6619C76.1509 72.6068 76.1631 72.5474 76.1631 72.4875C76.1631 72.4276 76.1509 72.3682 76.1273 72.3131C76.1037 72.258 76.0692 72.2083 76.0258 72.1669C75.9824 72.1255 75.9311 72.0934 75.8749 72.0724C75.8187 72.0515 75.7589 72.0422 75.699 72.045H68.177V70.275H74.815ZM68.177 57.885H74.815C76.1422 57.8858 77.4282 58.3454 78.4553 59.1858C79.4824 60.0263 80.1874 61.1959 80.4509 62.4966C80.7144 63.7973 80.5202 65.1491 79.9011 66.323C79.282 67.4969 78.2762 68.4208 77.054 68.938C76.3456 69.2373 75.5841 69.3907 74.815 69.389H68.177V57.885Z" fill="#EF9F9C" stroke="#EF9F9C" stroke-width="0.6"/>
</g>
<defs>
<clipPath id="clip0">
<rect width="102" height="102" fill="white"/>
</clipPath>
</defs>
</svg>
