<svg width="103" height="103" viewBox="0 0 103 103" fill="none" xmlns="http://www.w3.org/2000/svg">
<path d="M103 0H0V103H103V0Z" fill="white"/>
<path d="M64.5449 72.88V87.941C64.5449 89.0814 64.0919 90.1751 63.2855 90.9815C62.4791 91.7879 61.3853 92.241 60.2449 92.241H21.5119C20.3715 92.241 19.2778 91.7879 18.4714 90.9815C17.665 90.1751 17.2119 89.0814 17.2119 87.941V14.786C17.2119 13.6455 17.665 12.5518 18.4714 11.7454C19.2778 10.939 20.3715 10.486 21.5119 10.486H60.2419C61.3823 10.486 62.4761 10.939 63.2825 11.7454C64.0889 12.5518 64.5419 13.6455 64.5419 14.786V25.544" stroke="#EF9F9C" stroke-width="2" stroke-linecap="round" stroke-linejoin="round"/>
<path d="M84.248 32.001H34.752C33.7844 32.001 33 32.7854 33 33.753V64.249C33 65.2166 33.7844 66.001 34.752 66.001H84.248C85.2156 66.001 86 65.2166 86 64.249V33.753C86 32.7854 85.2156 32.001 84.248 32.001Z" stroke="#EF9F9C" stroke-width="2" stroke-linecap="round" stroke-linejoin="round"/>
<path d="M41 58.001H49" stroke="#EF9F9C" stroke-width="2" stroke-linecap="round" stroke-linejoin="round"/>
<path d="M33 41.001H86" stroke="#EF9F9C" stroke-width="2" stroke-linecap="round" stroke-linejoin="round"/>
<path d="M33 49.001H86" stroke="#EF9F9C" stroke-width="2" stroke-linecap="round" stroke-linejoin="round"/>
<path d="M56 58.001H62" stroke="#EF9F9C" stroke-width="2" stroke-linecap="round" stroke-linejoin="round"/>
<path d="M69 58.001H78" stroke="#EF9F9C" stroke-width="2" stroke-linecap="round" stroke-linejoin="round"/>
<path d="M17 21.001H64" stroke="#EF9F9C" stroke-width="2" stroke-linecap="round" stroke-linejoin="round"/>
<path d="M17 75.001H64" stroke="#EF9F9C" stroke-width="2" stroke-linecap="round" stroke-linejoin="round"/>
<path d="M37 84.001H43" stroke="#EF9F9C" stroke-width="2" stroke-linecap="round" stroke-linejoin="round"/>
</svg>
