<svg width="112" height="112" viewBox="0 0 112 112" fill="none" xmlns="http://www.w3.org/2000/svg">
<g clip-path="url(#clip0)">
<path d="M0 111.319V0H111.319" fill="white"/>
<path d="M51.0217 69.572H11.5957V20.872H88.1277V34.787" stroke="#EF9F9C" stroke-width="2" stroke-linecap="round" stroke-linejoin="round"/>
<path d="M97.5832 52.723L68.6742 81.631C65.8899 84.4163 62.3546 86.3303 58.5002 87.139L55.7122 87.723L53.5762 85.587L54.1602 82.799C54.9689 78.9446 56.8828 75.4093 59.6682 72.625L88.5742 43.716C89.769 42.5221 91.3891 41.8514 93.0782 41.8514C94.7673 41.8514 96.3873 42.5221 97.5822 43.716" stroke="#EF9F9C" stroke-width="2" stroke-linecap="round" stroke-linejoin="round"/>
<path d="M86.957 45.336L95.963 54.342" stroke="#EF9F9C" stroke-width="2" stroke-linecap="round" stroke-linejoin="round"/>
<path d="M71.0742 61.219L80.0802 70.225" stroke="#EF9F9C" stroke-width="2" stroke-linecap="round" stroke-linejoin="round"/>
<path d="M98.7701 60.741L85.1621 74.349" stroke="#EF9F9C" stroke-width="2" stroke-linecap="round" stroke-linejoin="round"/>
<path d="M90.4512 59.854L94.1672 56.138" stroke="#EF9F9C" stroke-width="2" stroke-linecap="round" stroke-linejoin="round"/>
<path d="M54.6426 86.656L50.8516 90.447" stroke="#EF9F9C" stroke-width="2" stroke-linecap="round" stroke-linejoin="round"/>
<path d="M44 41.319H79" stroke="#EF9F9C" stroke-width="2" stroke-linecap="round" stroke-linejoin="round"/>
<path d="M44 32.319H65" stroke="#EF9F9C" stroke-width="2" stroke-linecap="round" stroke-linejoin="round"/>
<path d="M44 51.319H67" stroke="#EF9F9C" stroke-width="2" stroke-linecap="round" stroke-linejoin="round"/>
<path d="M29.422 43.596C31.2965 43.596 33.0943 42.8513 34.4198 41.5258C35.7453 40.2003 36.49 38.4025 36.49 36.528C36.49 34.6534 35.7453 32.8557 34.4198 31.5302C33.0943 30.2047 31.2965 29.46 29.422 29.46H21.882C21.7571 29.46 21.6373 29.5096 21.5489 29.5979C21.4606 29.6863 21.411 29.8061 21.411 29.931V42.653H19.993C19.8679 42.653 19.748 42.7027 19.6596 42.7911C19.5712 42.8795 19.5215 42.9994 19.5215 43.1245C19.5215 43.2495 19.5712 43.3695 19.6596 43.4579C19.748 43.5463 19.8679 43.596 19.993 43.596H21.407V45.48H19.993C19.8679 45.48 19.748 45.5297 19.6596 45.6181C19.5712 45.7065 19.5215 45.8264 19.5215 45.9515C19.5215 46.0765 19.5712 46.1965 19.6596 46.2849C19.748 46.3733 19.8679 46.423 19.993 46.423H21.407V51.607C21.407 51.7319 21.4566 51.8517 21.5449 51.94C21.6333 52.0284 21.7531 52.078 21.878 52.078C22.0029 52.078 22.1227 52.0284 22.211 51.94C22.2994 51.8517 22.349 51.7319 22.349 51.607V46.423H30.359C30.484 46.423 30.604 46.3733 30.6924 46.2849C30.7808 46.1965 30.8305 46.0765 30.8305 45.9515C30.8305 45.8264 30.7808 45.7065 30.6924 45.6181C30.604 45.5297 30.484 45.48 30.359 45.48H22.349V43.596H29.422ZM22.349 30.403H29.422C30.8347 30.4048 32.2035 30.8946 33.2966 31.7896C34.3896 32.6846 35.1399 33.9298 35.4203 35.3145C35.7008 36.6991 35.4942 38.1381 34.8356 39.3879C34.1769 40.6377 33.1067 41.6216 31.806 42.173C31.0517 42.4916 30.2408 42.6549 29.422 42.653H22.349V30.403Z" fill="#EF9F9C" stroke="#EF9F9C" stroke-width="0.6"/>
</g>
<defs>
<clipPath id="clip0">
<rect width="111.319" height="111.319" fill="white"/>
</clipPath>
</defs>
</svg>
