<svg width="108" height="108" viewBox="0 0 108 108" fill="none" xmlns="http://www.w3.org/2000/svg">
<path d="M108 0H0V108H108V0Z" fill="white"/>
<path d="M29.3128 87.709H22.5488V17.809H78.9178V87.709H56.3678" stroke="#EF9F9C" stroke-width="2" stroke-linecap="round" stroke-linejoin="round"/>
<path d="M86 10.999V82.999" stroke="#EF9F9C" stroke-width="2" stroke-linecap="round" stroke-linejoin="round"/>
<path d="M29 10.999H86" stroke="#EF9F9C" stroke-width="2" stroke-linecap="round" stroke-linejoin="round"/>
<path d="M34 37.999H67" stroke="#EF9F9C" stroke-width="2" stroke-linecap="round" stroke-linejoin="round"/>
<path d="M34 28.999H52" stroke="#EF9F9C" stroke-width="2" stroke-linecap="round" stroke-linejoin="round"/>
<path d="M34 46.999H67" stroke="#EF9F9C" stroke-width="2" stroke-linecap="round" stroke-linejoin="round"/>
<path d="M43 80.999C47.9706 80.999 52 76.9696 52 71.999C52 67.0284 47.9706 62.999 43 62.999C38.0294 62.999 34 67.0284 34 71.999C34 76.9696 38.0294 80.999 43 80.999Z" stroke="#EF9F9C" stroke-width="2" stroke-linecap="round" stroke-linejoin="round"/>
<path d="M49 96.999V84.999" stroke="#EF9F9C" stroke-width="2" stroke-linecap="round" stroke-linejoin="round"/>
<path d="M43 94.999V87.999" stroke="#EF9F9C" stroke-width="2" stroke-linecap="round" stroke-linejoin="round"/>
<path d="M36 84.999V96.999" stroke="#EF9F9C" stroke-width="2" stroke-linecap="round" stroke-linejoin="round"/>
</svg>
