<svg width="111" height="111" viewBox="0 0 111 111" fill="none" xmlns="http://www.w3.org/2000/svg">
<path d="M111 0H0V111H111V0Z" fill="white"/>
<path d="M46.0799 85.248L36.8709 90.276L27.6469 85.248L18.4219 90.276V11.983L27.6219 17.011L36.8219 11.983L46.0289 17.011L55.2389 11.983L64.4629 17.011L73.6879 11.983V51.129" stroke="#EF9F9C" stroke-width="2" stroke-linecap="round" stroke-linejoin="round"/>
<path d="M39 33.001H62" stroke="#EF9F9C" stroke-width="2" stroke-linecap="round" stroke-linejoin="round"/>
<path d="M28 56.001H55" stroke="#EF9F9C" stroke-width="2" stroke-linecap="round" stroke-linejoin="round"/>
<path d="M28 65.001H44" stroke="#EF9F9C" stroke-width="2" stroke-linecap="round" stroke-linejoin="round"/>
<path d="M39 42.001H55" stroke="#EF9F9C" stroke-width="2" stroke-linecap="round" stroke-linejoin="round"/>
<path d="M32 33.001H28" stroke="#EF9F9C" stroke-width="2" stroke-linecap="round" stroke-linejoin="round"/>
<path d="M32 42.001H28" stroke="#EF9F9C" stroke-width="2" stroke-linecap="round" stroke-linejoin="round"/>
<path d="M71.5 99.001C82.8218 99.001 92 89.8228 92 78.501C92 67.1792 82.8218 58.001 71.5 58.001C60.1782 58.001 51 67.1792 51 78.501C51 89.8228 60.1782 99.001 71.5 99.001Z" stroke="#EF9F9C" stroke-width="2" stroke-linecap="round" stroke-linejoin="round"/>
<path d="M74.422 80.277C76.2965 80.277 78.0943 79.5323 79.4198 78.2068C80.7453 76.8813 81.49 75.0835 81.49 73.209C81.49 71.3344 80.7453 69.5367 79.4198 68.2112C78.0943 66.8857 76.2965 66.141 74.422 66.141H66.882C66.7571 66.141 66.6373 66.1906 66.5489 66.2789C66.4606 66.3673 66.411 66.4871 66.411 66.612V79.334H64.993C64.8679 79.334 64.748 79.3837 64.6596 79.4721C64.5712 79.5605 64.5215 79.6804 64.5215 79.8055C64.5215 79.9305 64.5712 80.0505 64.6596 80.1389C64.748 80.2273 64.8679 80.277 64.993 80.277H66.407V82.161H64.993C64.8679 82.161 64.748 82.2107 64.6596 82.2991C64.5712 82.3875 64.5215 82.5074 64.5215 82.6325C64.5215 82.7575 64.5712 82.8775 64.6596 82.9659C64.748 83.0543 64.8679 83.104 64.993 83.104H66.407V88.288C66.407 88.4129 66.4566 88.5327 66.5449 88.621C66.6333 88.7094 66.7531 88.759 66.878 88.759C67.0029 88.759 67.1227 88.7094 67.211 88.621C67.2994 88.5327 67.349 88.4129 67.349 88.288V83.104H75.359C75.484 83.104 75.604 83.0543 75.6924 82.9659C75.7808 82.8775 75.8305 82.7575 75.8305 82.6325C75.8305 82.5074 75.7808 82.3875 75.6924 82.2991C75.604 82.2107 75.484 82.161 75.359 82.161H67.349V80.277H74.422ZM67.349 67.084H74.422C75.8347 67.0858 77.2035 67.5756 78.2966 68.4706C79.3896 69.3656 80.1399 70.6108 80.4203 71.9955C80.7008 73.3801 80.4942 74.8191 79.8356 76.0689C79.1769 77.3187 78.1067 78.3026 76.806 78.854C76.0517 79.1726 75.2408 79.3359 74.422 79.334H67.349V67.084Z" fill="#EF9F9C" stroke="#EF9F9C" stroke-width="0.6"/>
</svg>
