<svg width="18" height="18" viewBox="0 0 18 18" fill="none" xmlns="http://www.w3.org/2000/svg">
<g clip-path="url(#clip0)">
<path d="M14.834 2.49299C13.3772 1.02992 11.4377 0.147121 9.37758 0.00943972C7.31749 -0.128242 5.27772 0.488611 3.63917 1.74481C2.00061 3.00101 0.8753 4.81066 0.473373 6.83584C0.0714459 8.86102 0.420382 10.9633 1.45502 12.75L0.249023 17.15L4.75602 15.967C6.00239 16.6465 7.39947 17.002 8.81902 17.001C11.0808 17.0008 13.2511 16.1078 14.858 14.5161C16.4648 12.9244 17.3784 10.7627 17.4 8.50099C17.388 7.37922 17.1549 6.27083 16.7141 5.23923C16.2733 4.20763 15.6334 3.27306 14.831 2.48899L14.834 2.49299ZM8.82202 15.573C7.55544 15.5742 6.3119 15.2343 5.22202 14.589L4.96502 14.436L2.29202 15.136L3.00402 12.528L2.83602 12.26C2.27103 11.3292 1.92838 10.2805 1.83474 9.19568C1.74109 8.11082 1.89897 7.01899 2.2961 6.0051C2.69323 4.99122 3.31889 4.08261 4.12443 3.34996C4.92997 2.6173 5.89367 2.08036 6.94057 1.78088C7.98746 1.4814 9.08933 1.42747 10.1605 1.62327C11.2316 1.81908 12.2431 2.25935 13.1164 2.90983C13.9896 3.56031 14.701 4.40347 15.1953 5.37373C15.6895 6.34399 15.9533 7.41518 15.966 8.50399C15.946 10.3857 15.1844 12.1835 13.8466 13.5069C12.5087 14.8303 10.7028 15.5724 8.82102 15.572L8.82202 15.573ZM12.697 10.281C12.486 10.174 11.441 9.66099 11.246 9.59199C11.051 9.52299 10.909 9.48499 10.767 9.69899C10.625 9.91299 10.219 10.388 10.093 10.534C9.96702 10.68 9.84402 10.695 9.63402 10.588C8.41048 10.0993 7.39052 9.20743 6.74302 8.05999C6.52502 7.68499 6.96102 7.71199 7.36702 6.89999C7.39476 6.84144 7.40762 6.77695 7.40449 6.71224C7.40135 6.64753 7.3823 6.58459 7.34902 6.529C7.29502 6.421 6.86902 5.37599 6.69302 4.94999C6.51702 4.52399 6.34502 4.59399 6.21402 4.58599C6.08302 4.57799 5.94902 4.57999 5.80902 4.57999C5.70149 4.58291 5.59569 4.60784 5.49817 4.65325C5.40065 4.69866 5.31347 4.76358 5.24202 4.84399C5.00204 5.07187 4.81206 5.34717 4.68415 5.65239C4.55624 5.95762 4.4932 6.2861 4.49902 6.61699C4.5686 7.41853 4.86906 8.18271 5.36402 8.81699C6.27602 10.1827 7.52678 11.2884 8.99402 12.026C9.76505 12.472 10.659 12.6585 11.544 12.558C11.8398 12.498 12.1198 12.3771 12.3663 12.2031C12.6129 12.029 12.8205 11.8056 12.976 11.547C13.1148 11.2292 13.1576 10.8778 13.099 10.536C13.049 10.438 12.908 10.384 12.697 10.281Z" fill="black"/>
</g>
<defs>
<clipPath id="clip0">
<rect width="17.154" height="17.154" fill="white" transform="translate(0.249023)"/>
</clipPath>
</defs>
</svg>
