<svg width="30" height="30" viewBox="0 0 30 30" fill="none" xmlns="http://www.w3.org/2000/svg">
<path d="M15 30C23.2843 30 30 23.2843 30 15C30 6.71573 23.2843 0 15 0C6.71573 0 0 6.71573 0 15C0 23.2843 6.71573 30 15 30Z" fill="#EF9F9C"/>
<path d="M22.5608 17.822C22.1608 17.622 20.1768 16.645 19.8058 16.514C19.4348 16.383 19.1658 16.314 18.8968 16.714C18.6278 17.114 17.8578 18.022 17.6178 18.298C17.3778 18.574 17.1458 18.603 16.7458 18.398C14.3768 17.213 12.8208 16.283 11.2588 13.598C10.8448 12.886 11.6728 12.937 12.4438 11.398C12.4964 11.2866 12.5206 11.164 12.5144 11.041C12.5081 10.918 12.4715 10.7984 12.4078 10.693C12.3078 10.493 11.4988 8.505 11.1648 7.699C10.8378 6.914 10.5038 7.023 10.2558 7.009C10.0078 6.995 9.74982 7 9.48582 7C9.28183 7.00544 9.08112 7.05261 8.89606 7.1386C8.711 7.2246 8.54552 7.34759 8.40982 7.5C7.95373 7.93307 7.59281 8.45636 7.35006 9.03657C7.1073 9.61677 6.98802 10.2412 6.99982 10.87C7.13305 12.3902 7.70371 13.8392 8.64282 15.042C8.84282 15.311 11.4848 19.381 15.5328 21.133C18.0908 22.233 19.0938 22.333 20.3738 22.143C20.9352 22.0292 21.4667 21.7998 21.9347 21.4694C22.4026 21.139 22.7967 20.7149 23.0918 20.224C23.3551 19.6208 23.4361 18.9537 23.3248 18.305C23.2298 18.12 22.9608 18.018 22.5608 17.822Z" fill="white"/>
</svg>
